<svg width="321" height="58" viewBox="0 0 321 58" fill="none" xmlns="http://www.w3.org/2000/svg">
<g filter="url(#filter0_dddddd_106_465)">
<path d="M1.45044 37V2.92H8.07444V37H1.45044ZM21.8088 15.16V37H15.1848V2.92H20.3208L38.0808 25.288V2.968H44.7048V37H39.3288L21.8088 15.16ZM61.2614 19.72C61.2614 17.64 61.6294 15.592 62.3654 13.576C63.1334 11.528 64.2374 9.704 65.6774 8.104C67.1174 6.504 68.8774 5.208 70.9574 4.216C73.0374 3.224 75.4054 2.728 78.0614 2.728C81.1974 2.728 83.9014 3.416 86.1734 4.792C88.4774 6.168 90.1894 7.96 91.3094 10.168L86.2214 13.672C85.7734 12.712 85.2294 11.912 84.5894 11.272C83.9494 10.6 83.2614 10.072 82.5254 9.688C81.7894 9.304 81.0214 9.032 80.2214 8.872C79.4214 8.68 78.6374 8.584 77.8694 8.584C76.2054 8.584 74.7494 8.92 73.5014 9.592C72.2854 10.264 71.2614 11.144 70.4294 12.232C69.6294 13.288 69.0214 14.504 68.6054 15.88C68.1894 17.224 67.9814 18.568 67.9814 19.912C67.9814 21.416 68.2214 22.872 68.7014 24.28C69.1814 25.656 69.8534 26.872 70.7174 27.928C71.6134 28.984 72.6694 29.832 73.8854 30.472C75.1334 31.112 76.4934 31.432 77.9654 31.432C78.7334 31.432 79.5334 31.336 80.3654 31.144C81.1974 30.952 81.9814 30.648 82.7174 30.232C83.4854 29.816 84.1894 29.288 84.8294 28.648C85.4694 27.976 85.9814 27.176 86.3654 26.248L91.7894 29.368C91.2454 30.648 90.4614 31.784 89.4374 32.776C88.4454 33.736 87.3094 34.552 86.0294 35.224C84.7814 35.896 83.4374 36.408 81.9974 36.76C80.5574 37.112 79.1494 37.288 77.7734 37.288C75.3414 37.288 73.1174 36.776 71.1014 35.752C69.0854 34.728 67.3414 33.4 65.8694 31.768C64.4294 30.104 63.2934 28.232 62.4614 26.152C61.6614 24.04 61.2614 21.896 61.2614 19.72ZM110.448 37.24C107.952 37.24 105.68 36.76 103.632 35.8C101.616 34.808 99.8716 33.512 98.3996 31.912C96.9596 30.28 95.8396 28.424 95.0396 26.344C94.2396 24.264 93.8396 22.136 93.8396 19.96C93.8396 17.688 94.2556 15.512 95.0876 13.432C95.9516 11.352 97.1196 9.512 98.5916 7.912C100.096 6.312 101.872 5.048 103.92 4.12C105.968 3.16 108.192 2.68 110.592 2.68C113.056 2.68 115.296 3.192 117.312 4.216C119.36 5.208 121.104 6.52 122.544 8.152C123.984 9.784 125.104 11.64 125.904 13.72C126.704 15.8 127.104 17.912 127.104 20.056C127.104 22.328 126.688 24.504 125.856 26.584C125.024 28.632 123.872 30.456 122.4 32.056C120.928 33.624 119.168 34.888 117.12 35.848C115.072 36.776 112.848 37.24 110.448 37.24ZM100.56 19.96C100.56 21.432 100.784 22.856 101.232 24.232C101.68 25.608 102.32 26.824 103.152 27.88C104.016 28.936 105.056 29.784 106.272 30.424C107.52 31.064 108.928 31.384 110.496 31.384C112.096 31.384 113.504 31.064 114.72 30.424C115.968 29.752 117.008 28.872 117.84 27.784C118.704 26.696 119.344 25.48 119.76 24.136C120.208 22.76 120.432 21.368 120.432 19.96C120.432 18.488 120.192 17.064 119.712 15.688C119.264 14.312 118.608 13.096 117.744 12.04C116.912 10.984 115.872 10.152 114.624 9.544C113.408 8.904 112.032 8.584 110.496 8.584C108.896 8.584 107.472 8.92 106.224 9.592C104.976 10.232 103.936 11.096 103.104 12.184C102.272 13.24 101.632 14.456 101.184 15.832C100.768 17.176 100.56 18.552 100.56 19.96ZM138.809 15.16V37H132.185V2.92H137.321L155.081 25.288V2.968H161.705V37H156.329L138.809 15.16ZM166.73 19.72C166.73 17.64 167.098 15.592 167.834 13.576C168.602 11.528 169.706 9.704 171.146 8.104C172.586 6.504 174.346 5.208 176.426 4.216C178.506 3.224 180.874 2.728 183.53 2.728C186.666 2.728 189.37 3.416 191.642 4.792C193.946 6.168 195.658 7.96 196.778 10.168L191.69 13.672C191.242 12.712 190.698 11.912 190.058 11.272C189.418 10.6 188.73 10.072 187.994 9.688C187.258 9.304 186.49 9.032 185.69 8.872C184.89 8.68 184.106 8.584 183.338 8.584C181.674 8.584 180.218 8.92 178.97 9.592C177.754 10.264 176.73 11.144 175.898 12.232C175.098 13.288 174.49 14.504 174.074 15.88C173.658 17.224 173.45 18.568 173.45 19.912C173.45 21.416 173.69 22.872 174.17 24.28C174.65 25.656 175.322 26.872 176.186 27.928C177.082 28.984 178.138 29.832 179.354 30.472C180.602 31.112 181.962 31.432 183.434 31.432C184.202 31.432 185.002 31.336 185.834 31.144C186.666 30.952 187.45 30.648 188.186 30.232C188.954 29.816 189.658 29.288 190.298 28.648C190.938 27.976 191.45 27.176 191.834 26.248L197.258 29.368C196.714 30.648 195.93 31.784 194.906 32.776C193.914 33.736 192.778 34.552 191.498 35.224C190.25 35.896 188.906 36.408 187.466 36.76C186.026 37.112 184.618 37.288 183.242 37.288C180.81 37.288 178.586 36.776 176.57 35.752C174.554 34.728 172.81 33.4 171.338 31.768C169.898 30.104 168.762 28.232 167.93 26.152C167.13 24.04 166.73 21.896 166.73 19.72ZM225.364 31.192V37H201.7V2.92H224.932V8.728H208.324V16.936H222.676V22.312H208.324V31.192H225.364ZM230.529 37V2.92H245.601C247.169 2.92 248.609 3.256 249.921 3.928C251.265 4.568 252.417 5.432 253.377 6.52C254.337 7.576 255.089 8.792 255.633 10.168C256.177 11.512 256.449 12.872 256.449 14.248C256.449 16.456 255.889 18.472 254.769 20.296C253.681 22.088 252.193 23.384 250.305 24.184L258.081 37H250.641L243.681 25.576H237.153V37H230.529ZM237.153 19.768H245.457C246.065 19.768 246.625 19.624 247.137 19.336C247.681 19.048 248.145 18.664 248.529 18.184C248.913 17.672 249.217 17.08 249.441 16.408C249.665 15.736 249.777 15.016 249.777 14.248C249.777 13.448 249.649 12.712 249.393 12.04C249.137 11.368 248.785 10.792 248.337 10.312C247.921 9.8 247.425 9.416 246.849 9.16C246.305 8.872 245.745 8.728 245.169 8.728H237.153V19.768ZM287.423 8.728H276.527V37H269.951V8.728H259.055V2.92H287.423V8.728Z" fill="white"/>
</g>
<defs>
<filter id="filter0_dddddd_106_465" x="0.450439" y="0.680176" width="319.972" height="56.6079" filterUnits="userSpaceOnUse" color-interpolation-filters="sRGB">
<feFlood flood-opacity="0" result="BackgroundImageFix"/>
<feColorMatrix in="SourceAlpha" type="matrix" values="0 0 0 0 0 0 0 0 0 0 0 0 0 0 0 0 0 0 127 0" result="hardAlpha"/>
<feOffset/>
<feColorMatrix type="matrix" values="0 0 0 0 0.309804 0 0 0 0 0.407843 0 0 0 0 0.709804 0 0 0 0.7 0"/>
<feBlend mode="normal" in2="BackgroundImageFix" result="effect1_dropShadow_106_465"/>
<feColorMatrix in="SourceAlpha" type="matrix" values="0 0 0 0 0 0 0 0 0 0 0 0 0 0 0 0 0 0 127 0" result="hardAlpha"/>
<feOffset dx="1"/>
<feGaussianBlur stdDeviation="1"/>
<feColorMatrix type="matrix" values="0 0 0 0 0.309804 0 0 0 0 0.407843 0 0 0 0 0.709804 0 0 0 0.69 0"/>
<feBlend mode="normal" in2="effect1_dropShadow_106_465" result="effect2_dropShadow_106_465"/>
<feColorMatrix in="SourceAlpha" type="matrix" values="0 0 0 0 0 0 0 0 0 0 0 0 0 0 0 0 0 0 127 0" result="hardAlpha"/>
<feOffset dx="4" dy="2"/>
<feGaussianBlur stdDeviation="2"/>
<feColorMatrix type="matrix" values="0 0 0 0 0.309804 0 0 0 0 0.407843 0 0 0 0 0.709804 0 0 0 0.6 0"/>
<feBlend mode="normal" in2="effect2_dropShadow_106_465" result="effect3_dropShadow_106_465"/>
<feColorMatrix in="SourceAlpha" type="matrix" values="0 0 0 0 0 0 0 0 0 0 0 0 0 0 0 0 0 0 127 0" result="hardAlpha"/>
<feOffset dx="9" dy="4"/>
<feGaussianBlur stdDeviation="3"/>
<feColorMatrix type="matrix" values="0 0 0 0 0.309804 0 0 0 0 0.407843 0 0 0 0 0.709804 0 0 0 0.35 0"/>
<feBlend mode="normal" in2="effect3_dropShadow_106_465" result="effect4_dropShadow_106_465"/>
<feColorMatrix in="SourceAlpha" type="matrix" values="0 0 0 0 0 0 0 0 0 0 0 0 0 0 0 0 0 0 127 0" result="hardAlpha"/>
<feOffset dx="16" dy="8"/>
<feGaussianBlur stdDeviation="3.5"/>
<feColorMatrix type="matrix" values="0 0 0 0 0.309804 0 0 0 0 0.407843 0 0 0 0 0.709804 0 0 0 0.1 0"/>
<feBlend mode="normal" in2="effect4_dropShadow_106_465" result="effect5_dropShadow_106_465"/>
<feColorMatrix in="SourceAlpha" type="matrix" values="0 0 0 0 0 0 0 0 0 0 0 0 0 0 0 0 0 0 127 0" result="hardAlpha"/>
<feOffset dx="25" dy="12"/>
<feGaussianBlur stdDeviation="4"/>
<feColorMatrix type="matrix" values="0 0 0 0 0.309804 0 0 0 0 0.407843 0 0 0 0 0.709804 0 0 0 0.01 0"/>
<feBlend mode="normal" in2="effect5_dropShadow_106_465" result="effect6_dropShadow_106_465"/>
<feBlend mode="normal" in="SourceGraphic" in2="effect6_dropShadow_106_465" result="shape"/>
</filter>
</defs>
</svg>
