<?xml version="1.0" encoding="UTF-8" standalone="no"?>
<svg
   xmlns:dc="http://purl.org/dc/elements/1.1/"
   xmlns:cc="http://creativecommons.org/ns#"
   xmlns:rdf="http://www.w3.org/1999/02/22-rdf-syntax-ns#"
   xmlns:svg="http://www.w3.org/2000/svg"
   xmlns="http://www.w3.org/2000/svg"
   xmlns:sodipodi="http://sodipodi.sourceforge.net/DTD/sodipodi-0.dtd"
   xmlns:inkscape="http://www.inkscape.org/namespaces/inkscape"
   width="290"
   height="567"
   viewBox="0 0 290 567"
   fill="none"
   version="1.1"
   id="svg26"
   sodipodi:docname="Left_pipe_0x0001.svg"
   inkscape:version="0.92.2 5c3e80d, 2017-08-06">
  <metadata
     id="metadata32">
    <rdf:RDF>
      <cc:Work
         rdf:about="">
        <dc:format>image/svg+xml</dc:format>
        <dc:type
           rdf:resource="http://purl.org/dc/dcmitype/StillImage" />
      </cc:Work>
    </rdf:RDF>
  </metadata>
  <defs
     id="defs30" />
  <sodipodi:namedview
     pagecolor="#ffffff"
     bordercolor="#666666"
     borderopacity="1"
     objecttolerance="10"
     gridtolerance="10"
     guidetolerance="10"
     inkscape:pageopacity="0"
     inkscape:pageshadow="2"
     inkscape:window-width="723"
     inkscape:window-height="480"
     id="namedview28"
     showgrid="false"
     inkscape:zoom="0.41622575"
     inkscape:cx="36.796741"
     inkscape:cy="585.26273"
     inkscape:window-x="372"
     inkscape:window-y="0"
     inkscape:window-maximized="0"
     inkscape:current-layer="svg26" />
  <rect
     width="87.761604"
     height="175.34473"
     rx="10.74588"
     transform="scale(-1,1)"
     id="rect2"
     x="-159.841"
     y="4.6552701"
     style="fill:#313353;stroke-width:0.69595766" />
  <rect
     width="130.50201"
     height="92.256645"
     transform="scale(-1,1)"
     id="rect4"
     x="-102.50272"
     y="4.6552701"
     style="fill:#313353;stroke-width:0.94602776" />
  <rect
     width="33.873"
     height="94.6552"
     rx="4"
     transform="matrix(-1 0 0 1 5.87305 0)"
     fill="#9295BA"
     id="rect10" />
  <rect
     width="34.1379"
     height="93.9206"
     rx="4"
     transform="matrix(0 -1 -1 0 166 180)"
     fill="#9295BA"
     id="rect12" />
  <path
     d="M85 180H142V512H85V180Z"
     fill="#313353"
     id="path14" />
  <rect
     x="84"
     y="562"
     width="67"
     height="170"
     rx="23"
     transform="rotate(-90 84 562)"
     fill="#212343"
     id="rect16" />
  <rect
     x="84"
     y="537"
     width="131"
     height="70"
     transform="rotate(-90 84 537)"
     fill="#212343"
     id="rect18" />
  <rect
     x="218"
     y="562"
     width="67"
     height="71"
     transform="rotate(-90 218 562)"
     fill="#212343"
     id="rect20" />
  <rect
     x="80"
     y="434.111"
     width="28.1111"
     height="78.3534"
     rx="4"
     transform="rotate(-90 80 434.111)"
     fill="#9295BA"
     id="rect22" />
  <rect
     x="289.48"
     y="567"
     width="34.2297"
     height="78"
     rx="4"
     transform="rotate(-180 289.48 567)"
     fill="#9295BA"
     id="rect24" />
</svg>
