<?xml version="1.0" encoding="utf-8"?>
<!-- Generator: Adobe Illustrator 27.4.1, SVG Export Plug-In . SVG Version: 6.00 Build 0)  -->
<svg version="1.1" id="Layer_3" xmlns="http://www.w3.org/2000/svg" xmlns:xlink="http://www.w3.org/1999/xlink" x="0px" y="0px"
	 viewBox="0 0 1152 284.2" style="enable-background:new 0 0 1152 284.2;" xml:space="preserve">
<style type="text/css">
	.st0{fill:#D0222A;}
	.st1{fill:#FFFFFF;}
	.st2{fill:#FFFFFF;stroke:#3C5AA5;stroke-width:1.5;stroke-miterlimit:10;}
</style>
<g>
	<g>
		<path class="st0" d="M544,11.7c2.7,2.4,4.8,5.2,6.5,8.5c0.1,0.1,0.1,0.2,0.2,0.3c3.8,7.4,4.1,16.2,1.6,24.1
			c-1.2,3.5-3,6.9-5.4,9.7c-0.1,0.1-0.2,0.3-0.4,0.4c-0.4,0.4-0.8,0.9-1.2,1.3c-0.1,0.1-0.3,0.3-0.4,0.4c-5.5,5.7-13.5,8.5-21.2,8.8
			c-5.7,0.1-11.2-1.1-16.1-3.8c-0.1-0.1-0.2-0.1-0.3-0.2c-2.4-1.3-4.5-3-6.4-4.8c-0.1-0.1-0.3-0.2-0.4-0.4c-5.3-5-8.1-12.5-8.5-19.7
			c-0.2-8.3,2-16.3,7.8-22.5c0.2-0.2,0.4-0.5,0.6-0.7C510.3,1.8,529.3,1.1,544,11.7L544,11.7z M509.7,20.6c-2.4,2.7-3.8,5.8-4.6,9.3
			c0,0.2-0.1,0.4-0.1,0.6c-1,5.3,0,11.4,3.1,15.9c0.4,0.5,0.8,1,1.2,1.5c0.1,0.1,0.2,0.3,0.4,0.4c2,2.3,4.7,4,7.6,4.9
			c0.1,0,0.2,0.1,0.3,0.1c3.4,1.1,7.5,1,10.9-0.1c0.1,0,0.2-0.1,0.3-0.1c4.5-1.5,7.9-4.7,10-8.9c1.5-3.1,2.2-6.3,2.1-9.7
			c0-0.2,0-0.4,0-0.6c-0.1-5.3-2.1-10.5-5.9-14.3c-3.8-3.5-8.5-4.8-13.6-4.6C516.9,15.2,512.8,17.3,509.7,20.6L509.7,20.6z"/>
		<path class="st0" d="M477.1,8.6c1.3,1.3,2.4,2.6,3.4,4.2c0.1,0.2,0.2,0.3,0.3,0.5c0.1,0.1,0.1,0.3,0.2,0.4c-0.2,0.7-0.5,0.7-1,1.1
			c-0.2,0.1-0.4,0.2-0.5,0.3c-0.2,0.1-0.4,0.2-0.6,0.4c-0.2,0.1-0.4,0.2-0.6,0.4c-0.4,0.2-0.8,0.5-1.2,0.8c-0.7,0.5-1.5,0.9-2.2,1.4
			c-0.2,0.2-0.5,0.3-0.7,0.4c-0.4,0.3-0.8,0.5-1.2,0.8c-0.2,0.1-0.3,0.2-0.5,0.3c-0.1,0.1-0.3,0.2-0.4,0.3c-0.1,0.1-0.4,0.2-0.9,0.2
			c-0.2-0.2-0.4-0.5-0.6-0.9c-1.2-1.9-2.5-3.3-4.8-4c-1.9-0.4-3.8-0.4-5.6,0.5c-1.3,0.9-2,1.8-2.3,3.4c-0.2,1.6,0.1,3,1,4.3
			c1.9,2.3,5.4,3.4,8,4.6c3.8,1.6,6.5,2.9,8.1,3.9c0.2,0.1,0.3,0.2,0.5,0.3c1.2,0.7,2.2,1.5,3.2,2.4c0.1,0.1,0.3,0.2,0.4,0.4
			c3.4,2.9,5,6.8,5.4,11.2c0.3,4.7-0.7,9.2-3.9,12.9c-1.3,1.4-2.7,2.4-4.4,3.4c-0.2,0.1-0.3,0.2-0.5,0.3c-6,3.2-14,3.2-20.3,1.3
			c-5.9-1.8-10.4-5.5-13.6-10.8c-0.2-0.3-0.2-0.6-0.2-0.8c0.1-0.1,0.2-0.1,0.4-0.2c0.5-0.3,1-0.6,1.4-0.8c0.2-0.1,0.4-0.2,0.6-0.4
			c1.2-0.7,2.5-1.4,3.7-2.1c0.1-0.1,0.2-0.1,0.3-0.2c0.5-0.3,1-0.6,1.5-0.8c0.2-0.1,0.4-0.2,0.5-0.3c0.1-0.1,0.3-0.2,0.5-0.3
			c0.4-0.2,0.9-0.4,1.3-0.6c0.1,0.1,0.1,0.2,0.2,0.2c0.3,0.4,0.5,0.7,0.8,1.1c0.1,0.1,0.2,0.2,0.3,0.4c2.1,2.8,4.6,4.7,8.1,5.4
			c0.2,0,0.3,0.1,0.5,0.1c2.9,0.4,6,0.1,8.3-1.7c1.1-1,1.8-2.2,2-3.7c0.1-1.6-0.5-3.1-1.6-4.2c-2.4-2.4-6-3.6-9.1-4.9
			c-3.3-1.4-5.6-2.5-6.9-3.3c-0.1-0.1-0.3-0.2-0.4-0.2c-1.1-0.7-2.1-1.4-3-2.3c-0.1-0.1-0.2-0.2-0.2-0.2c-3.1-2.8-5.1-6.6-5.3-10.8
			c-0.1-5.3,0.7-9.6,4.5-13.6C457,2.2,470.1,2.2,477.1,8.6L477.1,8.6z"/>
		<path class="st0" d="M384.5,4.6h13.3c0.8,1.7,1.3,2.9,1.6,3.6c0,0.1,0.1,0.2,0.1,0.4c0.1,0.3,0.2,0.5,0.3,0.8
			c0.3,0.7,0.6,1.4,0.9,2.1c0.1,0.2,0.1,0.3,0.2,0.4c0.6,1.6,1.3,3.1,1.9,4.7l0.4,0.8c0.2,0.6,0.5,1.1,0.7,1.7
			c0.5,1.3,1,2.5,1.6,3.8c0.3,0.7,0.6,1.4,0.9,2.1c0.1,0.3,0.2,0.6,0.4,0.8c0.1,0.1,0.1,0.3,0.2,0.4c1.9,4.6,3.8,9.3,5.7,13.9
			c0.4-0.4,0.5-0.6,0.6-1c0.1-0.2,0.1-0.3,0.2-0.4c0.1-0.2,0.1-0.3,0.2-0.5c0.1-0.2,0.1-0.3,0.2-0.5c0.2-0.6,0.5-1.1,0.7-1.7
			c0.2-0.4,0.3-0.8,0.5-1.2c0.4-0.9,0.8-1.9,1.1-2.8c0.8-2,1.6-3.9,2.3-5.9c0.1-0.2,0.2-0.4,0.2-0.6c1.5-3.8,3.1-7.6,4.6-11.4
			c0.8-1.9,1.5-3.8,2.3-5.7c0.2-0.5,0.4-1,0.6-1.5c0.1-0.3,0.2-0.6,0.4-0.9c0.3-0.6,0.5-1.1,0.6-1.3h13.8c-0.1,0.7-0.3,1.2-0.6,1.8
			c-0.1,0.2-0.2,0.4-0.2,0.6c-0.1,0.2-0.2,0.4-0.3,0.6c-0.1,0.2-0.2,0.4-0.3,0.7c-0.2,0.5-0.4,1-0.7,1.5c-0.4,0.8-0.8,1.7-1.1,2.5
			c-0.5,1.2-1.1,2.4-1.7,3.7c-0.8,1.7-1.5,3.4-2.3,5.1c-0.3,0.8-0.7,1.5-1,2.3c-0.1,0.3-0.3,0.6-0.4,0.9
			c-3.6,7.9-7.1,15.7-10.7,23.6c-0.1,0.2-0.1,0.3-0.2,0.4c-0.1,0.3-0.3,0.6-0.4,0.9c-0.3,0.8-0.7,1.5-1,2.3
			c-0.6,1.4-1.3,2.8-1.9,4.2c-0.3,0.7-0.6,1.3-0.9,1.9c-0.1,0.3-0.3,0.6-0.4,0.9c-1,2.1-1.9,4.3-2.9,6.4h-2.6
			c-0.8-1.6-1.6-3.2-2.3-4.8c-0.2-0.4-0.4-0.8-0.5-1.2c-0.3-0.6-0.5-1.2-0.8-1.7c-0.7-1.6-1.4-3.2-2.1-4.8c-0.1-0.2-0.1-0.3-0.2-0.5
			c-1.1-2.5-2.2-4.9-3.3-7.4c-1-2.3-2.1-4.6-3.1-6.9c-1.1-2.4-2.1-4.8-3.2-7.2c-1-2.2-2-4.5-3-6.7c-1.1-2.6-2.3-5.1-3.4-7.7
			c-1.3-2.8-2.5-5.6-3.8-8.4c-0.2-0.5-0.4-1-0.6-1.4C384.7,5.3,384.5,4.9,384.5,4.6L384.5,4.6z"/>
		<path class="st1" d="M603.7,29.2h3.5c0.4,1,0.7,1.9,1.1,2.9c0.1,0.3,0.2,0.7,0.4,1c0.2,0.5,0.4,0.9,0.5,1.4
			c0.1,0.2,0.1,0.3,0.2,0.4c0,0.1,0.1,0.3,0.2,0.4c0,0.1,0.1,0.2,0.1,0.4c0.1,0.2,0.1,0.5,0.1,0.8h0.3c0-0.1,0-0.2,0.1-0.3
			c0.2-0.9,0.5-1.8,0.8-2.7c0-0.1,0.1-0.3,0.1-0.4c0.1-0.4,0.3-0.8,0.4-1.2c0.1-0.3,0.2-0.6,0.3-0.8c0.2-0.7,0.5-1.3,0.7-2h3.5v11.9
			h-2.6c-0.1-2.1-0.1-4.2-0.2-6.4c-0.2,0.4-0.3,0.9-0.5,1.3c-0.2,0.4-0.3,0.8-0.5,1.2l-0.3,0.9c-0.2,0.4-0.3,0.8-0.5,1.2
			c0,0.1-0.1,0.3-0.2,0.4c-0.2,0.6-0.4,1-0.5,1.3h-2.1c-0.7-2.1-1.5-4.1-2.2-6.2c-0.1,2.1-0.1,4.1-0.2,6.2h-2.6L603.7,29.2
			L603.7,29.2z"/>
		<path class="st1" d="M665.5,29.2c1.7,0,2.8,0.2,3.2,0.5c0.1,0.2,0.3,0.5,0.4,0.7c0.2,0.3,0.3,0.5,0.5,0.8c0.1,0.1,0.2,0.3,0.2,0.4
			c0.4,0.7,0.8,1.3,1.2,2c0.5,0.8,1,1.5,1.5,2.3c0.1-2.2,0.1-4.4,0.2-6.7h2.4v11.9c-1.7,0-2.8-0.2-3.3-0.6c-0.2-0.3-0.3-0.6-0.5-0.8
			c-0.1-0.2-0.2-0.3-0.3-0.4c-0.3-0.5-0.6-0.9-0.8-1.4c-0.2-0.3-0.4-0.6-0.6-0.9c-0.5-0.8-1-1.6-1.4-2.3c-0.1,2.2-0.1,4.3-0.2,6.6
			h-2.4V29.2L665.5,29.2z"/>
		<path class="st1" d="M603.9,8.4h2.6c0.7,0.7,1,1.2,1.5,2c0.2,0.4,0.4,0.8,0.7,1.1c0.2,0.4,0.4,0.8,0.7,1.2c0.5,0.8,1,1.6,1.6,2.4
			c0.1-2.2,0.1-4.4,0.2-6.7h2.4v11.9c-1.7,0-2.8-0.2-3.3-0.6c-0.2-0.3-0.3-0.6-0.5-0.8c-0.1-0.2-0.2-0.3-0.3-0.4
			c-0.3-0.5-0.6-0.9-0.8-1.4c-0.2-0.3-0.4-0.6-0.6-0.9c-0.5-0.8-1-1.6-1.4-2.3c-0.1,2.2-0.1,4.3-0.2,6.6h-2.4V8.4L603.9,8.4z"/>
		<path class="st1" d="M591.3,49.9c1,0,1.9,0,2.9,0c0.3,0,0.6,0,0.9,0c2,0,3.4,0.3,4.2,0.9c0.1,0.1,0.2,0.2,0.3,0.3
			c0.1,0.1,0.2,0.2,0.3,0.3c0.7,1.1,0.7,2.2,0.6,3.5c-0.3,1-0.9,1.6-1.7,2.2h-0.3c0.6,1.2,1.2,2.3,1.9,3.5c0.3,0.6,0.5,1,0.5,1.2
			c-1,0.2-2,0.4-2.9,0c-0.9-0.8-1.4-2-1.9-3.1c-0.1-0.3-0.3-0.6-0.5-0.9c-0.5-0.1-1-0.1-1.6-0.2v4.2h-2.6V49.9L591.3,49.9z
			 M593.9,52.3v3.1c0.4,0,0.9,0,1.3,0c0.1,0,0.3,0,0.4,0c0.8,0,1.3-0.1,1.9-0.6c0.4-0.6,0.4-0.7,0.3-1.3c0-0.1,0-0.3,0-0.4
			c-0.1-0.3-0.2-0.5-0.4-0.7c-0.7-0.3-1.3-0.3-2-0.2C594.9,52.3,594.4,52.3,593.9,52.3L593.9,52.3z"/>
		<path class="st1" d="M690.1,8.4c1,0,2.1,0,3.1,0c0.3,0,0.6,0,1,0c0.3,0,0.5,0,0.8,0c0.1,0,0.3,0,0.4,0c1.1,0,2,0.3,2.9,1.1
			c0.1,0.1,0.2,0.2,0.2,0.3c0.1,0.1,0.2,0.2,0.2,0.3c0.7,1,0.5,2.4,0.4,3.6c-0.3,1-1,1.6-1.9,2.1c0.2,0.6,0.5,1.1,0.8,1.7
			c0.1,0.2,0.2,0.3,0.3,0.5c0.2,0.3,0.4,0.6,0.6,0.9c0.1,0.2,0.2,0.3,0.3,0.5c0.1,0.1,0.2,0.3,0.3,0.4s0.1,0.4,0.2,0.7
			c-1.7,0.2-2.8,0.1-3.3-0.3c-0.3-0.4-0.5-0.8-0.7-1.3c-0.2-0.3-0.3-0.7-0.5-1c-0.1-0.2-0.2-0.4-0.3-0.7c-0.1-0.2-0.3-0.5-0.6-0.8
			c-0.5-0.1-1-0.1-1.6-0.2v4.2h-2.6L690.1,8.4L690.1,8.4z M692.7,10.7v3.1c0.5,0,0.9,0,1.4,0.1c0.1,0,0.3,0,0.4,0c0.7,0,1,0,1.6-0.5
			c0.5-0.7,0.5-1,0.3-1.8c-0.3-0.6-0.4-0.7-1-0.9c-0.5,0-0.9,0-1.4,0C693.6,10.7,693.1,10.7,692.7,10.7L692.7,10.7z"/>
		<path class="st1" d="M673.8,49.9c4.4,0,7,0.3,7.9,0.8c0.9,0.9,1.1,1.8,1.2,3.1c0,1-0.1,1.9-0.8,2.7c-0.4,0.4-0.8,0.7-1.4,0.7
			c0.7,1.2,1.4,2.4,2.1,3.7c0.3,0.5,0.5,0.9,0.5,1c-1,0.2-2.1,0.4-3.1,0c-1-1-1.7-2.5-2.2-3.8v-0.3h-1.6v4.2h-2.6
			C673.8,61.8,673.8,49.9,673.8,49.9z M676.4,52.3v3.1c0.4,0,0.8,0,1.2,0c0.1,0,0.3,0,0.4,0c0.7,0,1.2,0,1.8-0.4
			c0.4-0.6,0.4-0.9,0.4-1.5c-0.2-0.6-0.5-0.9-1-1.2c-0.5-0.1-1-0.1-1.5-0.1C677.4,52.3,676.9,52.3,676.4,52.3L676.4,52.3z"/>
		<path class="st1" d="M659.1,30c1.5,1.6,1.7,3.6,1.6,5.8c-0.1,2-0.6,3.3-2,4.7c-1.6,1-3.5,1-5.3,0.7c-1.1-0.3-2-1-2.7-2
			c-1.1-1.9-1.1-4.6-0.6-6.7c0.4-1.4,1.2-2.4,2.5-3.2C654.8,28.5,657.2,28.9,659.1,30z M653.6,31.6c-0.9,1.1-0.9,2.1-0.9,3.4
			c0,0.2,0,0.3,0,0.4c0,1.3,0.2,2.2,1,3.2c0.7,0.4,1.2,0.6,2,0.5c0.8-0.2,1.4-0.5,1.9-1.2c0.4-0.9,0.4-1.8,0.4-2.8
			c0-0.2,0-0.3,0-0.5c0-1-0.1-1.8-0.6-2.7C656.2,30.9,654.9,30.9,653.6,31.6L653.6,31.6z"/>
		<path class="st1" d="M637.6,8.2c0.2,0,0.3,0,0.5,0c1.3,0,2.2,0.4,3.3,1c1.4,1.5,1.7,3.5,1.6,5.5c-0.1,1.7-0.4,3.3-1.6,4.6
			c-1.4,1.2-3.1,1.4-4.8,1.2c-1.2-0.2-2.2-0.7-3.1-1.6c-1.3-2-1.4-4.5-1.1-6.8c0.3-1.4,0.9-2.4,2-3.3C635.5,8.3,636.4,8.2,637.6,8.2
			L637.6,8.2z M635.9,10.9c-0.9,1.1-0.9,2-0.9,3.3c0,0.2,0,0.3,0,0.5c0,1.2,0.1,2.2,0.9,3.2c0.8,0.6,1.7,0.6,2.6,0.4
			c0.8-0.4,1.2-0.8,1.6-1.6c0.2-0.8,0.2-1.6,0.2-2.5c0-0.1,0-0.3,0-0.4c0-1-0.2-1.7-0.6-2.6c-0.7-0.6-1.1-0.8-2-0.9
			C637,10.3,636.5,10.4,635.9,10.9L635.9,10.9z"/>
		<path class="st1" d="M584.6,50.6c1.2,1,1.7,2.2,1.9,3.8c0.2,2.1,0.1,4.3-1.1,6.1c-0.8,0.9-1.8,1.4-3,1.6c-0.4,0-0.8,0-1.2,0
			c-0.1,0-0.3,0-0.4,0c-1,0-1.9-0.2-2.8-0.8c-0.2-0.1-0.3-0.2-0.5-0.3c-1.4-1.4-1.7-3.2-1.6-5.2c0-0.1,0-0.3,0-0.4
			c0-1.8,0.4-3.1,1.5-4.5C579.2,49.2,582.4,49.4,584.6,50.6L584.6,50.6z M579.2,52.6c-1,1.5-0.8,3.6-0.5,5.3
			c0.2,0.8,0.6,1.3,1.3,1.8c0.9,0.3,1.5,0.3,2.4,0c0.8-0.5,1.1-1,1.4-1.9c0.2-1.5,0.4-3.6-0.5-5c-0.7-0.6-1.1-0.9-2-0.9
			C580.4,51.9,579.9,52.1,579.2,52.6z"/>
		<path class="st1" d="M635.6,29.2h2.6v4.7h4.3v-4.7h2.6v11.9h-2.6v-5h-4.3v5h-2.6C635.6,41.1,635.6,29.2,635.6,29.2z"/>
		<path class="st1" d="M619.5,49.9h2.4v4.7h4.3v-4.7h2.6v11.9h-2.6v-5h-4.3v5h-2.4V49.9z"/>
		<path class="st1" d="M634.2,49.9h8.1v2.4h-5.5v2.2h4.8v2.2h-4.8v2.8h5.7v2.2h-8.3L634.2,49.9L634.2,49.9z"/>
		<path class="st1" d="M676.8,8.4h8.1v2.2h-5.5v2.2h4.8v2.4h-4.8v2.8h5.7v2.2h-8.3L676.8,8.4L676.8,8.4z"/>
		<path class="st1" d="M592.5,8.3h3.1c0.3,0.8,0.6,1.6,0.9,2.4c0.1,0.2,0.1,0.4,0.2,0.6c0.1,0.2,0.1,0.4,0.2,0.6s0.1,0.4,0.2,0.6
			c0.1,0.4,0.3,0.9,0.4,1.3c0.2,0.6,0.4,1.1,0.5,1.7c0.2,0.5,0.3,1.1,0.5,1.6c0.1,0.2,0.1,0.4,0.2,0.6c0.1,0.2,0.1,0.4,0.2,0.6
			c0,0.2,0.1,0.3,0.2,0.5c0.1,0.3,0.2,0.8,0.3,1.5h-2.8c-0.3-0.8-0.6-1.7-0.9-2.8h-3.6c-0.1,0.4-0.1,0.8-0.2,1.2
			c-0.2,0.5-0.3,1-0.5,1.6h-2.8c0.3-1.3,0.7-2.6,1.2-3.9c0.1-0.2,0.1-0.4,0.2-0.6c0.2-0.6,0.4-1.2,0.6-1.8c0.1-0.4,0.2-0.8,0.4-1.2
			C591.5,11.4,592,9.8,592.5,8.3L592.5,8.3z M593.9,11.9c-0.2,0.5-0.3,1-0.5,1.5c0,0.1-0.1,0.3-0.2,0.4c0,0.1-0.1,0.3-0.1,0.4
			c0,0.1-0.1,0.3-0.1,0.4c-0.1,0.2-0.1,0.5-0.1,0.9h2.4c-0.1-0.5-0.3-0.9-0.4-1.4c0-0.1-0.1-0.3-0.1-0.4c0-0.1-0.1-0.3-0.1-0.4
			c0-0.1-0.1-0.2-0.1-0.4c-0.1-0.4-0.3-0.7-0.5-1L593.9,11.9L593.9,11.9z"/>
		<path class="st1" d="M690.4,49.9h3.3c0.5,1.5,1,3,1.4,4.4c0.2,0.7,0.4,1.4,0.7,2.1c0.2,0.7,0.4,1.3,0.6,2c0.1,0.2,0.2,0.5,0.2,0.8
			c0.1,0.3,0.2,0.7,0.3,1.1c0.1,0.2,0.1,0.4,0.2,0.6c0.1,0.3,0.1,0.7,0.1,1h-2.8c-0.1-0.2-0.2-0.4-0.2-0.6c0-0.1-0.1-0.2-0.1-0.3
			c-0.2-0.5-0.3-1-0.5-1.4h-3.5c-0.1,0.4-0.2,0.7-0.3,1.1c-0.2,0.7-0.4,1.2-0.5,1.3c-0.5,0-0.9,0-1.4,0c-0.1,0-0.3,0-0.4,0
			c-0.3,0-0.7,0-1,0C687.9,57.8,689.1,53.9,690.4,49.9L690.4,49.9z M691.8,53.5c-0.2,0.5-0.3,1-0.5,1.5c0,0.1-0.1,0.3-0.2,0.4
			c0,0.1-0.1,0.3-0.1,0.4c0,0.1-0.1,0.3-0.1,0.4c0,0.1-0.1,0.4-0.1,0.7h2.4c-0.3-1.2-0.6-2.3-1-3.5L691.8,53.5L691.8,53.5z"/>
		<path class="st1" d="M647.7,8.4h2.6c0,0.2,0,0.5,0,0.8c0,0.9,0,1.9,0,2.8c0,0.4,0,0.8,0,1.2c0,0.6,0,1.2,0,1.8c0,0.2,0,0.4,0,0.6
			c0,0.8,0.2,1.6,0.6,2.2c0.8,0.5,1.5,0.5,2.4,0.3c0.6-0.4,0.8-0.5,1-1.2c0-0.3,0-0.6,0-0.8c0-0.2,0-0.3,0-0.5c0-0.2,0-0.4,0-0.6
			s0-0.4,0-0.6c0-0.6,0-1.2,0-1.8c0-0.4,0-0.8,0-1.2c0-1,0-2,0-3h2.6c0,1.2,0,2.4,0,3.5c0,0.4,0,0.8,0,1.2c0,0.6,0,1.2,0,1.7
			c0,0.2,0,0.3,0,0.5c0,1.3-0.1,2.7-1,3.8c-1.3,1.2-2.6,1.4-4.3,1.3c-1.4-0.1-2.4-0.4-3.4-1.4c-0.7-0.9-0.9-1.8-0.9-3v-0.5
			c0-0.2,0-0.4,0-0.6c0-0.2,0-0.4,0-0.6c0-0.6,0-1.2,0-1.8c0-0.4,0-0.8,0-1.2C647.6,10.4,647.6,9.4,647.7,8.4L647.7,8.4z"/>
		<path class="st1" d="M656.3,50.4c0,0.3-0.1,0.6-0.2,0.8c0,0.2-0.1,0.3-0.1,0.5c-0.1,0.3-0.2,0.6-0.3,0.9c-0.1,0-0.2-0.1-0.3-0.1
			c-1-0.2-2-0.3-3-0.3c-0.1,0-0.2,0-0.4,0c-0.6,0-0.9,0-1.5,0.4c0,0.4,0,0.7,0,1c1,0.6,2,0.9,3.2,1.2c1,0.3,1.8,0.7,2.4,1.6
			c0.5,1,0.6,2.1,0.3,3.2c-0.4,1-1.2,1.7-2.2,2.2c-0.8,0.2-1.7,0.2-2.5,0.2c-0.2,0-0.3,0-0.5,0c-1.3,0-2.5-0.2-3.8-0.6
			c0-0.2,0-0.5,0.1-0.7c0-0.1,0-0.3,0-0.4c0-0.4,0.1-0.7,0.2-1.1c0.2,0,0.3,0.1,0.4,0.1c1.8,0.4,3.6,0.3,5.3-0.1
			c0.1-0.3,0.2-0.7,0.2-1c-0.4-0.5-0.7-0.6-1.3-0.8c-0.2-0.1-0.3-0.1-0.5-0.2c-0.3-0.1-0.6-0.2-0.9-0.3c-1.3-0.4-2.4-1-3.1-2.2
			c-0.5-1-0.4-2-0.1-3.1c0.6-0.9,1.4-1.6,2.5-1.8C652.2,49.5,654.6,49.6,656.3,50.4L656.3,50.4z"/>
		<path class="st1" d="M585,29.5c0,0.2,0,0.5-0.1,0.7c0,0.1,0,0.3,0,0.4c-0.1,0.4-0.2,0.7-0.4,1.1c-0.2,0-0.4-0.1-0.6-0.1
			c-0.2,0-0.5-0.1-0.7-0.1c-0.1,0-0.2,0-0.4-0.1c-1.2-0.2-2.3-0.1-3.4,0.2c-0.1,0.4-0.2,0.7-0.2,1c0.8,0.6,1.5,0.9,2.5,1.1
			c1.5,0.4,2.5,0.9,3.4,2.2c0.3,1,0.3,2.1,0,3.1c-0.7,1.2-1.6,1.8-2.9,2.1c-0.5,0.1-1,0.1-1.6,0.1c-0.1,0-0.3,0-0.4,0
			c-1.3,0-2.6-0.2-3.9-0.6c-0.2-0.5-0.1-0.7,0-1.2c0-0.2,0.1-0.3,0.1-0.5c0-0.1,0-0.2,0.1-0.4c0.7-0.2,1.2-0.2,1.8,0
			c1.4,0.2,2.8,0.5,4-0.3c0.1-0.3,0.1-0.7,0-1c-0.8-0.6-1.5-0.9-2.4-1.1c-1.4-0.4-2.3-0.9-3.2-2c-0.5-1-0.6-2-0.3-3.1
			c0.3-0.9,0.9-1.3,1.7-1.8C580.3,28.4,583,28.9,585,29.5L585,29.5z"/>
		<path class="st1" d="M621.9,29.2c1,0,2,0,3-0.1c0.3,0,0.6,0,0.9,0c1.5,0,2.8,0,4,0.9c0.7,0.7,1,1.4,1.1,2.4c0,1.4-0.1,2.6-1.2,3.7
			c-1.3,0.8-2.2,0.9-3.7,0.8c-0.6,0-1.2,0-1.8,0v4.2h-2.4L621.9,29.2L621.9,29.2z M624.3,31.4v3.3c0.4,0,0.9,0,1.3,0
			c0.1,0,0.3,0,0.4,0c0.8,0,1.3-0.1,1.9-0.6c0.4-0.7,0.4-1,0.3-1.7c-0.4-0.6-0.5-0.8-1.2-1c-0.5,0-0.9,0-1.4,0
			C625.2,31.4,624.8,31.4,624.3,31.4L624.3,31.4z"/>
		<path class="st1" d="M661.7,8.4h2.8c0.4,0.9,0.6,1.6,0.8,2c0,0.1,0.1,0.3,0.1,0.4s0.1,0.3,0.1,0.4c0,0.2,0.1,0.3,0.1,0.5
			c0.1,0.5,0.3,1,0.4,1.4c0.1,0.3,0.2,0.7,0.3,1c0.2,0.8,0.5,1.6,0.7,2.4c0.7-2.2,1.4-4.4,2-6.7c0-0.2,0.1-0.3,0.2-0.5
			c0-0.2,0.1-0.3,0.1-0.5c0.1-0.2,0.2-0.4,0.3-0.5c0.4,0,0.9,0,1.3,0c0.1,0,0.2,0,0.4,0c0.3,0,0.6,0,0.9,0c-0.1,0.8-0.2,1.5-0.5,2.3
			c-0.1,0.2-0.1,0.4-0.2,0.6c-0.1,0.2-0.1,0.4-0.2,0.7c-0.1,0.2-0.2,0.5-0.2,0.7c-0.2,0.5-0.3,1-0.5,1.4c-0.2,0.6-0.4,1.2-0.6,1.8
			c-0.2,0.6-0.4,1.2-0.6,1.8c0,0.1-0.1,0.2-0.1,0.3c-0.1,0.3-0.2,0.6-0.3,0.9c-0.1,0.2-0.1,0.4-0.2,0.5c-0.1,0.3-0.2,0.5-0.3,0.8
			h-3.1c-0.5-1.3-1-2.6-1.4-4c-0.1-0.2-0.1-0.4-0.2-0.6c-0.1-0.4-0.3-0.9-0.4-1.3c-0.2-0.6-0.4-1.1-0.5-1.7
			c-0.2-0.5-0.3-1.1-0.5-1.6c-0.1-0.2-0.1-0.4-0.2-0.6c-0.1-0.2-0.1-0.4-0.2-0.6c-0.1-0.2-0.1-0.3-0.2-0.5
			C661.7,9.1,661.7,8.7,661.7,8.4L661.7,8.4z"/>
		<path class="st1" d="M575.5,8.4h2.9c0.8,2.7,1.6,5.4,2.4,8.1c0.4-1.3,0.9-2.7,1.3-4c0-0.1,0.1-0.2,0.1-0.3
			c0.1-0.3,0.2-0.7,0.3-1.1c0.1-0.5,0.3-0.9,0.4-1.4c0.1-0.2,0.1-0.4,0.2-0.6c0.1-0.3,0.2-0.5,0.3-0.6c0.5,0,0.9,0,1.4,0
			c0.1,0,0.3,0,0.4,0c0.3,0,0.7,0,1,0c-1.2,4-2.5,8-3.8,11.9h-3.1c-0.3-0.7-0.6-1.4-0.8-2.1c0-0.2-0.1-0.3-0.2-0.5
			c-0.1-0.2-0.1-0.3-0.2-0.5c-0.1-0.2-0.1-0.4-0.2-0.6c-0.1-0.4-0.2-0.8-0.4-1.2c-0.2-0.6-0.4-1.2-0.6-1.8c-0.1-0.4-0.2-0.8-0.4-1.1
			c-0.1-0.2-0.1-0.3-0.2-0.5C576.1,10.8,575.8,9.6,575.5,8.4L575.5,8.4z"/>
		<path class="st1" d="M614.3,50.2c0.2,0.7,0.2,1.1-0.1,1.7c0,0.1-0.1,0.3-0.2,0.4c0,0.1-0.1,0.2-0.1,0.3c-0.1,0-0.2-0.1-0.3-0.1
			c-1.4-0.3-3.3-0.7-4.7,0c-0.8,0.6-1.1,1.3-1.2,2.2c-0.1,1.3-0.2,2.8,0.5,4c1,0.9,1.7,0.9,3,0.9c0.9,0,1.8-0.2,2.7-0.4
			c0.3,0.8,0.6,1.4,0.5,2.2c-1.3,0.5-2.6,0.6-4,0.6c-0.2,0-0.3,0-0.5,0c-1.3,0-2.5-0.2-3.5-1.1c-1.5-1.5-1.7-3.4-1.7-5.4
			c0-1.7,0.3-3.3,1.5-4.6C608.4,49,611.7,49.6,614.3,50.2L614.3,50.2z"/>
		<path class="st1" d="M624.1,8.2c0.2,0,0.3,0,0.5,0c1.3,0,2.4,0.2,3.7,0.6c-0.2,0.7-0.3,1.5-0.5,2.2c-0.9-0.1-1.5-0.2-1.9-0.3
			c-1.1-0.2-2.2-0.2-3.2,0.1c-0.8,0.6-1.1,1.4-1.3,2.4c-0.1,1.4-0.1,2.9,0.7,4.1c0.6,0.6,1.2,0.7,1.9,0.8c0.7,0,1.5-0.2,2.2-0.3
			c0.4-0.1,0.9-0.1,1.6-0.1c0.2,0.7,0.3,1.4,0.5,2.1c-2.3,0.7-5,1.2-7.3,0.2c-1.2-0.6-1.8-1.7-2.2-3c-0.2-0.9-0.2-1.8-0.2-2.7
			c0-0.2,0-0.4,0-0.5c0-1.5,0.2-3,1.2-4.1c0.1-0.1,0.2-0.2,0.3-0.4C621.3,8.3,622.6,8.1,624.1,8.2L624.1,8.2z"/>
		<path class="st1" d="M589.4,29.2h2.9c0.7,1.5,1.4,3.1,2.1,4.7c0.4-0.6,0.7-1,1-1.6c0.1-0.2,0.2-0.3,0.2-0.5
			c0.1-0.2,0.2-0.4,0.2-0.6c0.1-0.2,0.2-0.4,0.2-0.6c0.2-0.5,0.4-0.9,0.6-1.4h2.9c-0.2,0.3-0.3,0.6-0.5,1c-0.1,0.3-0.3,0.6-0.4,0.9
			c-0.4,0.8-0.8,1.6-1.3,2.4c-1.5,2.6-1.8,4.7-1.7,7.7h-2.6c0-0.2,0.1-0.5,0.1-0.7c0.3-3.7-1.6-6.7-3.3-9.8
			c-0.1-0.1-0.1-0.3-0.2-0.4c-0.1-0.1-0.1-0.2-0.2-0.3C589.4,29.6,589.4,29.4,589.4,29.2L589.4,29.2z"/>
		<path class="st1" d="M679,29.2h2.9c0.7,1.5,1.4,3.1,2.1,4.7c0.3-0.5,0.5-0.9,0.8-1.5c0.1-0.2,0.2-0.4,0.3-0.6
			c0.1-0.2,0.2-0.4,0.3-0.6c0.1-0.2,0.2-0.4,0.3-0.6c0.2-0.5,0.4-1,0.7-1.4h2.8c-0.3,0.8-0.5,1.3-0.7,1.7c-0.1,0.1-0.1,0.2-0.2,0.4
			c-0.1,0.1-0.1,0.3-0.2,0.4c-1.6,3-2.5,6.1-2.7,9.4h-2.4c0-0.2,0.1-0.4,0.1-0.7c0.3-3.7-1.6-6.6-3.3-9.7c-0.1-0.1-0.1-0.3-0.2-0.4
			c-0.1-0.1-0.1-0.2-0.2-0.3C679.1,29.8,679,29.5,679,29.2L679,29.2z"/>
		<path class="st1" d="M660.7,49.9h8.8v2.4h-3.1v9.5h-2.6v-9.5h-3.1L660.7,49.9L660.7,49.9z"/>
	</g>
	<path class="st2" d="M859.1,275.5v-34.1h6.6v34.1L859.1,275.5L859.1,275.5z M879.4,253.6v21.8h-6.6v-34.1h5.1l17.8,22.4v-22.3h6.6
		v34h-5.4L879.4,253.6z M918.9,258.2c0-2.1,0.4-4.1,1.1-6.1c0.8-2,1.9-3.9,3.3-5.5s3.2-2.9,5.3-3.9s4.5-1.5,7.1-1.5
		c3.1,0,5.8,0.7,8.1,2.1c2.3,1.4,4,3.2,5.1,5.4l-5.1,3.5c-0.5-1-1-1.8-1.6-2.4c-0.6-0.6-1.3-1.2-2.1-1.6c-0.7-0.4-1.5-0.6-2.3-0.8
		c-0.8-0.2-1.6-0.3-2.3-0.3c-1.7,0-3.1,0.3-4.4,1c-1.2,0.7-2.2,1.6-3.1,2.6c-0.8,1.1-1.4,2.3-1.8,3.6c-0.4,1.3-0.6,2.7-0.6,4
		c0,1.5,0.2,3,0.7,4.4c0.5,1.4,1.2,2.6,2,3.6c0.9,1,2,1.9,3.2,2.5c1.2,0.6,2.6,1,4.1,1c0.8,0,1.6-0.1,2.4-0.3
		c0.8-0.2,1.6-0.5,2.3-0.9c0.8-0.4,1.5-1,2.1-1.6c0.7-0.7,1.2-1.5,1.5-2.4l5.4,3.1c-0.5,1.3-1.3,2.4-2.3,3.4c-1,1-2.2,1.8-3.4,2.5
		c-1.3,0.7-2.6,1.2-4,1.5c-1.4,0.4-2.8,0.5-4.2,0.5c-2.4,0-4.7-0.5-6.7-1.5c-2-1-3.8-2.3-5.2-4c-1.4-1.7-2.6-3.6-3.4-5.6
		C919.3,262.5,918.9,260.4,918.9,258.2L918.9,258.2L918.9,258.2z M968.1,275.7c-2.5,0-4.8-0.5-6.8-1.4c-2-1-3.8-2.3-5.2-3.9
		c-1.4-1.6-2.6-3.5-3.4-5.6c-0.8-2.1-1.2-4.2-1.2-6.4s0.4-4.5,1.2-6.5c0.8-2,2-3.9,3.5-5.5c1.5-1.6,3.3-2.9,5.3-3.8
		c2-1,4.3-1.4,6.7-1.4s4.7,0.5,6.7,1.5c2,1,3.8,2.3,5.2,3.9s2.6,3.5,3.4,5.6c0.8,2.1,1.2,4.2,1.2,6.3c0,2.3-0.4,4.5-1.2,6.5
		c-0.8,2-2,3.9-3.5,5.5c-1.5,1.6-3.2,2.8-5.3,3.8C972.7,275.3,970.4,275.7,968.1,275.7L968.1,275.7z M958.2,258.4
		c0,1.5,0.2,2.9,0.7,4.3s1.1,2.6,1.9,3.6c0.9,1,1.9,1.9,3.1,2.5c1.2,0.6,2.7,1,4.2,1s3-0.3,4.2-1c1.2-0.6,2.3-1.5,3.1-2.6
		c0.9-1.1,1.5-2.3,1.9-3.6c0.5-1.4,0.7-2.8,0.7-4.2s-0.2-2.9-0.7-4.3c-0.5-1.4-1.1-2.6-2-3.6c-0.8-1.1-1.9-1.9-3.1-2.5
		c-1.2-0.6-2.6-1-4.1-1s-3,0.3-4.3,1c-1.2,0.6-2.3,1.5-3.1,2.6c-0.8,1.1-1.5,2.3-1.9,3.6C958.4,255.6,958.1,257,958.2,258.4
		L958.2,258.4L958.2,258.4z M996.4,253.6v21.8h-6.6v-34.1h5.1l17.8,22.4v-22.3h6.6v34h-5.4L996.4,253.6L996.4,253.6z M1024.3,258.2
		c0-2.1,0.4-4.1,1.1-6.1c0.8-2,1.9-3.9,3.3-5.5c1.4-1.6,3.2-2.9,5.3-3.9s4.4-1.5,7.1-1.5c3.1,0,5.8,0.7,8.1,2.1
		c2.3,1.4,4,3.2,5.1,5.4l-5.1,3.5c-0.4-1-1-1.8-1.6-2.4c-0.6-0.6-1.3-1.2-2.1-1.6c-0.7-0.4-1.5-0.6-2.3-0.8
		c-0.8-0.2-1.6-0.3-2.3-0.3c-1.7,0-3.1,0.3-4.4,1c-1.2,0.7-2.2,1.6-3.1,2.6c-0.8,1.1-1.4,2.3-1.8,3.6c-0.4,1.3-0.6,2.7-0.6,4
		c0,1.5,0.2,3,0.7,4.4c0.5,1.4,1.2,2.6,2,3.6c0.9,1,2,1.9,3.2,2.5c1.2,0.6,2.6,1,4.1,1c0.8,0,1.6-0.1,2.4-0.3
		c0.8-0.2,1.6-0.5,2.3-0.9c0.8-0.4,1.5-1,2.1-1.6c0.7-0.7,1.2-1.5,1.5-2.4l5.4,3.1c-0.6,1.3-1.3,2.4-2.3,3.4c-1,1-2.2,1.8-3.4,2.5
		c-1.3,0.7-2.6,1.2-4,1.5c-1.4,0.4-2.8,0.5-4.2,0.5c-2.4,0-4.7-0.5-6.7-1.5c-2-1-3.8-2.3-5.2-4c-1.4-1.7-2.6-3.6-3.4-5.6
		C1024.8,262.5,1024.4,260.4,1024.3,258.2L1024.3,258.2z M1083,269.7v5.8h-23.7v-34.1h23.2v5.8h-16.6v8.2h14.3v5.4h-14.3v8.9
		L1083,269.7L1083,269.7z M1088.1,275.5v-34.1h15.1c1.6,0,3,0.3,4.3,1c1.3,0.6,2.5,1.5,3.5,2.6c1,1.1,1.7,2.3,2.3,3.6
		c0.5,1.3,0.8,2.7,0.8,4.1c0,2.2-0.6,4.2-1.7,6c-1.1,1.8-2.6,3.1-4.5,3.9l7.8,12.8h-7.4l-7-11.4h-6.5v11.4L1088.1,275.5
		L1088.1,275.5L1088.1,275.5z M1094.8,258.3h8.3c0.6,0,1.2-0.1,1.7-0.4c0.5-0.3,1-0.7,1.4-1.1c0.4-0.5,0.7-1.1,0.9-1.8
		c0.2-0.7,0.3-1.4,0.3-2.2c0-0.8-0.1-1.5-0.4-2.2c-0.2-0.6-0.6-1.2-1.1-1.7c-0.4-0.5-0.9-0.9-1.5-1.1c-0.5-0.3-1.1-0.4-1.7-0.4h-8
		L1094.8,258.3L1094.8,258.3L1094.8,258.3z M1145,247.2h-10.9v28.3h-6.6v-28.3h-10.9v-5.8h28.4L1145,247.2L1145,247.2L1145,247.2z"
		/>
	<g id="Layer_1-2">
		<g>
			<path class="st1" d="M0.1,80.1C0.5,79,1,78.8,2.2,79.2c1.1,0.4,2.2,0.3,3.3,0.1c1.1-0.2,2.2-0.1,3.2-0.1c2.4,0.1,4.9,0.6,7.2,0.2
				c3.5-0.5,6.9-0.2,10.4-0.3c6.8-0.1,13.7-0.2,20.5-0.3c4-0.1,8-0.1,11.9,0c1.7,0,3.3,0.4,5,0.6c2.5,0.4,5,0.6,7.5,1.1
				c2.2,0.5,4.3,1.3,6.4,2c5.3,2,9.8,5,13.6,9.2c2.2,2.5,4,5.3,5.1,8.4c0.5,1.4,1.1,2.7,1.4,4.1c0.4,1.7,0.8,3.4,0.9,5.1
				c0.3,4.8,0.4,9.6-0.6,14.3c-0.8,3.5-1.9,6.9-3.6,10.2c-2.4,4.6-6,8.1-10,11.2c-2.2,1.7-4.8,2.9-7.6,3.7c-1.1,0.4-1.4,1.6-0.6,2.7
				c0.5,0.8,1,1.6,1.4,2.4c1.3,2.4,2.5,4.8,3.7,7.3c0.9,1.8,1.8,3.6,2.7,5.3c0.6,1.3,1.3,2.5,1.9,3.8c1.5,2.9,3,5.9,4.5,8.8
				c1.5,2.9,3.1,5.9,4.7,8.8c1.2,2.2,2.4,4.4,3.8,6.6c1.1,1.7,2.3,3.2,4.2,4.2c0.2,0.1,0.5,0.2,0.6,0.4c0.2,0.6,0.5,1.2,0.5,1.8
				c-0.1,0.7-0.8,0.8-1.3,0.8c-3.4,0-6.9,0.1-10.3,0.1c-4.1,0-8.2,0-12.2,0c-3.7,0-7.4,0.1-11.1,0.1c-1.1,0-2.2-0.1-3.2-0.2
				c-0.7-0.1-1.4,0-1.5-1c-0.1-0.9,0.3-1.5,1.2-1.9c0.8-0.4,1.7-0.7,2.4-1.3c1.1-0.9,1.2-2.1,0.6-3.4c-1.2-2.5-2.4-5.1-3.7-7.6
				c-2.8-5.4-5.6-10.8-8.5-16.2c-1.6-3.1-3.2-6.1-4.8-9.2c-0.7-1.2-1.4-1.6-2.6-1.5c-2.3,0.1-4.6,0.3-6.8,0.2
				c-1.9,0-2.3,0.3-2.3,2.2c0,3.2,0,6.5,0,9.7c0,6.5,0,13,0,19.5v1c0.1,2.6,0.9,3.7,3.3,4.6c1.6,0.5,1.9,1,2,2.6
				c0,0.8,0.2,1.5,0.2,2.3c-0.1,1.8-0.2,3.6-0.4,5.3c-0.1,1-0.8,1.3-2,1.3c-5.6,0-11.3,0-16.9,0s-11.6,0-17.4,0
				c-0.4,0-0.9,0-1.2-0.2c-0.3-0.4-0.6-0.9-0.5-1.4c0.1-0.6,0.7-0.9,1.3-0.9c2.1,0,4.3-0.1,6.5,0c8.6,0.1,17.3,0.2,25.9,0.3
				c0.4,0,0.8,0,1.2-0.1c0.8-0.2,1.3-0.6,1.2-1.5c0-1.5,0-2.9,0-4.4c0-0.9-0.4-1.6-1.2-2.1c-0.9-0.5-1.8-1-2.5-1.7
				c-1.2-1.2-1.5-2.9-1.5-4.6c0-7.4-0.1-14.9-0.2-22.4c0-3.1,0-6.2,0-9.3c0-1.9,0.3-2.2,2.2-2.3c2.3-0.1,4.7-0.1,7.1-0.1
				c0.8,0,1.8,0.2,2.1-0.8c0.6-1.4-1.2-3-2.3-3.4c-0.9-0.3-2-0.4-3-0.4c-2.6-0.1-5.2-0.1-7.9-0.1c-0.6,0-1.3,0-1.9,0.2
				c-1.3,0.4-1.7,1.5-1.7,2.7c-0.2,4.1,0.2,8.2,0.2,12.3c0,8.2,0.1,16.3,0.2,24.5c0,0.3,0,0.6,0,0.9c0.2,2.4,1.6,4.1,3.8,4.9
				c0.4,0.1,1,0.4,1.2,0.7c0.3,0.5,0.5,1.2,0.3,1.6c-0.1,0.3-0.8,0.7-1.3,0.7c-3.6,0.1-7.2,0.2-10.8,0.2c-6,0-12-0.1-18-0.1
				c-2.1,0-4.2,0.1-6.4,0.2c-0.9,0-1.2-0.3-1.3-1.1c-0.2-1.5,0-2,1.5-2.3c2.7-0.5,3.8-2.9,3.7-5.2c-0.1-4.3-0.2-8.7-0.2-13
				c-0.1-11.5-0.1-23-0.1-34.5c0-8.1-0.1-16.1-0.1-24.2c0.1-9.2,0.2-18.3,0.3-27.5c0-1.6,0.2-3.3,0.1-4.9c0-1.3-0.2-2.6-0.5-3.8
				c-0.5-1.7-2-2.5-3.6-2.9c-0.8-0.2-1.3-0.4-1.4-1.3v-1.2L0.1,80.1L0.1,80.1z M46.1,103.6H34.4c-1.1,0-1.5,0.3-1.5,1.4
				c0,1.1,0,2.2,0,3.3c0,5.9-0.1,11.9-0.2,17.8c0,0.8,0.2,1.3,0.6,2c0.1,0.2,0.3,0.5,0.5,0.6c0.2,0.1,0.5,0.1,0.7,0.1
				c0.9,0,2.9,0.2,3-1c0.1-0.9,0.2-1.8,0.2-2.7c0-4.9,0-9.8,0-14.7c0-2,0.5-2.4,2.4-2.4c4.2,0,8.3,0,12.4,0.1c2.6,0,5.1,0,7.7,0.1
				c2,0.1,3.9,0.5,5.6,1.7c0.4,0.3,0.8,0.7,0.5,1.1c-0.2,0.3-0.8,0.6-1.2,0.6c-0.4,0-0.7-0.3-1.1-0.4c-1.2-0.3-2.4-0.9-3.6-0.9
				c-6.3-0.1-12.6-0.1-18.9-0.1c-1.4,0-1.8,0.3-1.8,1.7c0,4.9,0,9.7-0.1,14.6c0,0.7,0,1.7,0.5,2.1c0.4,0.4,1,0.4,1.5,0.4
				c4.4,0,8.8,0,13.2,0c3.8,0,7.4-0.8,10.7-2.5c1.7-0.9,3.1-2.2,4-4c1.2-2.4,1.6-5,1.4-7.6c-0.1-1.6-0.5-3.2-1.2-4.6
				c-1.5-3.2-4.3-5-7.6-5.9c-3-0.8-6.1-1.1-9.2-1C51,103.7,48.5,103.6,46.1,103.6L46.1,103.6L46.1,103.6z"/>
			<path class="st1" d="M1084,183.7c-0.1,0.9-0.2,1.7-0.2,2.6c0,7.8,0,15.6-0.1,23.5c0,2.2-0.3,2.4-2.5,2.3c-3.1-0.1-6.1,0-9.2,0.1
				c-1,0-1.7-0.3-2.1-1.1c-0.2-0.4-0.4-0.8-0.7-1.1c-0.7-1.1-1.7-1.6-3.1-1.6c-9.9,0-19.8,0.1-29.8,0.1c-9.9,0-19.8,0-29.8,0
				c-0.5,0-1.1-0.2-1.4-0.5c-0.6-0.8,0.1-1.8,1-1.9c1,0,2,0.1,2.9,0.1c7.4,0,14.7,0,22.1,0c8.5,0,17-0.1,25.5-0.2c3,0,6,0.1,9,0.2
				c2,0.1,3.8,0.8,4.9,2.7c0.5,0.9,1.5,1.3,2.5,1.3c2.4,0,4.8,0.2,7.2-0.4c0.7-0.2,1-0.4,1-1.1c0-5.8,0.1-11.6,0.2-17.4
				c0-3-0.1-6-0.2-9c0-0.3,0.1-0.9,0.3-1c0.5-0.3,1.1-0.4,1.7-0.5c0.1,0,0.3,0.3,0.4,0.5c0.1,0.3,0.2,0.6,0.3,0.9V183.7L1084,183.7
				L1084,183.7z"/>
			<path class="st1" d="M554.9,96.2c3.3,0.3,6.6,0.7,9.9,1c3.1,0.3,6,1.3,9,2c1,0.2,1.9,0.7,2.8,1.1c4.5,2,8.9,4.3,12.5,7.6
				c2.4,2.2,4.6,4.6,6.8,7.1c2.2,2.5,3.9,5.4,5.4,8.4c2.2,4.4,3.7,9,4.7,13.8c0.7,3.5,1,7,1.3,10.5c0.2,1.7,0,3.5,0,5.2
				c-0.2,4.7-0.8,9.4-2.1,14c-1,3.7-2.4,7.2-4.2,10.6c-1.9,3.4-4,6.7-6.6,9.6c-2.6,2.9-5.4,5.6-8.7,7.9c-3,2.1-6.2,3.9-9.6,5.1
				c-2.7,1-5.5,1.5-8.3,2.1c-1.6,0.4-3.2,0.7-4.8,0.9c-1.5,0.2-3,0.4-4.5,0.3c-2.7-0.1-5.5-0.1-8.2-0.6c-3-0.5-6-1.2-8.9-2.1
				c-5.7-1.7-10.7-4.6-15.2-8.4c-4.7-3.9-8.4-8.4-11.4-13.8c-2.3-4.3-4.1-8.8-5.3-13.5c-2.3-9.1-2.4-18.3-0.7-27.5
				c1.1-5.8,3.1-11.2,5.9-16.4c3.1-5.7,7.3-10.5,12.3-14.6c3.1-2.5,6.6-4.5,10.3-6.1c2.5-1.1,5-2.1,7.7-2.5c1.7-0.3,3.4-0.6,5.1-0.9
				c0.2,0,0.4,0,0.5-0.1c1.3-1.1,2.8-0.8,4.4-0.7L554.9,96.2L554.9,96.2L554.9,96.2z M531.9,149.9c0.1,0,0.2,0,0.3,0
				c-0.3,3.5,0.2,6.9,0.9,10.2c0.3,1.2,0.6,2.5,1.1,3.7c0.6,1.4,1.3,2.8,1.9,4.2c1.6,3.4,3.8,6.2,6.7,8.6c2.9,2.5,6.3,4.2,10,4.8
				c3,0.6,6.3,0.5,9.3,0c3.7-0.6,7-2.3,9.8-4.8c2.7-2.3,4.9-4.9,6.7-8c2.1-3.7,3.2-7.7,3.8-11.9c0.8-5.3,0.7-10.6-0.5-15.8
				c-0.9-3.8-2-7.6-4.2-10.9c-2-3-4.3-5.9-7.4-7.9c-3.5-2.2-7.2-3.6-11.3-3.9c-4.8-0.4-9.2,0.9-13.2,3.4c-2.3,1.5-4.6,3-6.4,5.2
				c-3.2,4-5.3,8.5-6.3,13.5C532.5,143.5,532.3,146.7,531.9,149.9L531.9,149.9L531.9,149.9z"/>
			<path class="st1" d="M1034.8,98.3h33.6c1.9,0,3.4-0.7,4.6-2.2c0.5-0.6,1-1.3,1.6-1.8c0.6-0.6,1.3-0.5,1.6,0.3
				c0.2,0.5,0.3,1,0.3,1.6c0.1,7.6,0.1,15.2,0.2,22.8c0,1.6,0.1,3.2,0.2,4.8c0,0.9-0.3,1.4-1.1,1.5c-0.9,0.1-1.6-0.2-1.7-1.1
				c-0.2-1.8-1.3-2.9-2.7-3.8c-1.4-0.8-2.9-1-4.6-1c-4.1,0.1-8.1-0.1-12.1-0.1c-3.6,0-7.2,0.1-10.8,0.1c-2.2,0-4.3-0.1-6.5-0.1
				c-2.7,0-5.4,0.1-8.1,0.1c-1.4,0-2,0.6-2,2c0,2.8,0.1,5.5,0.1,8.3c0,1.7,0,3.4-0.1,5.1c0,0.3,0,0.7,0,1c0.2,1.5,0.7,2,2.2,2.1
				c2.7,0.1,3-0.1,3-2.9c0-3,0-6.1,0.1-9.1c0.1-1.8,0.5-2.1,2.2-2.2c8.4-0.1,16.8-0.1,25.2-0.1c1.6,0,3.1,0.1,4.7,0.1
				c2.7,0,4.7,1.2,5.8,3.7c0.9,2,2.1,2.6,4.2,2.3c1.3-0.2,2.6,0,3.9,0c0.7,0,1.4-0.1,2.1-0.3c0.3-0.1,0.7-0.6,0.7-0.9
				c0.1-0.7,0.1-1.4,0.1-2.1c-0.1-6.7-0.2-13.4-0.2-20.1c0-1.4,0-2.8-0.1-4.2c0-1.4-0.1-1.4,1.4-1.5c1,0,1,0.1,1.1,1.5v13.6
				c0,4.9,0,9.7,0,14.6c0,1.2,0,1.3-1.2,1.3c-3.6,0-7.1,0-10.6,0c-1.3,0-1.7-0.4-2.1-1.6c-0.2-0.4-0.3-0.9-0.5-1.3
				c-0.8-1.8-2.1-2.7-4.1-2.7c-9.5,0-19,0-28.4-0.1c-1.7,0-2,0.3-1.9,2c0,2.3-0.1,4.6,0,7c0.1,3.4,0.2,2.8,3,2.8
				c4.9,0,9.8,0.1,14.8,0.2c1.5,0,2.9-0.3,4-1.4c0.5-0.5,0.8-1.1,1.2-1.7c0.2-0.4,0.3-0.8,0.5-1.2c0.3-0.6,0.9-0.9,1.5-0.6
				c0.6,0.2,1,0.7,0.9,1.4c-0.1,8-0.1,16.1-0.2,24.1c0,1.2,0.2,2.4,0.3,3.6c0.2,1.6-0.3,2.2-1.8,2.1c-0.7-0.1-1-0.6-1.2-1.1
				c-0.9-2.4-2.4-3.6-5-3.6c-7.1-0.1-14.2,0-21.3-0.1c-0.9,0-1.9,0-2.8,0.1c-0.7,0-1.1,0.4-1.2,1.1c-0.1,0.5-0.2,0.9-0.2,1.4
				c0,5.3,0,10.6,0,15.9c0,1.1,0.3,2,1.4,2.4c1.2,0.5,2.5,0.3,3.4-0.6c0.4-0.3,0.5-1.1,0.5-1.8c0-3.1,0-6.3,0-9.4
				c0-0.9,0.1-1.8,0.2-2.7c0.1-1.3,0.4-1.6,1.6-1.8c0.5-0.1,1.1-0.1,1.6-0.1c4.5,0,9,0.1,13.6,0.1c2.3,0,4.1,0.9,5.1,3.1
				c0.8,1.5,1.9,2,3.5,1.9c1.8-0.1,3.6,0,5.4,0s2.4-0.8,2.4-2.5c-0.1-4.9-0.1-9.7-0.1-14.6c0-3.4,0.3-6.9-0.4-10.3
				c-0.2-1,0.4-1.5,1-2.1c0.1-0.1,0.7-0.1,0.8,0.1c0.3,0.5,0.7,1.1,0.7,1.7c0.1,2.2,0,4.5,0,6.7c0,6,0,11.9-0.1,17.9
				c0,1.1-0.1,2.2-0.2,3.3c-0.1,0.9-0.6,1.4-1.5,1.4c-3.7,0-7.4,0.1-11.1,0.1c-0.8,0-1.2-0.4-1.4-1.1c-0.1-0.3-0.2-0.6-0.3-1
				c-0.8-2.1-2.2-3-4.5-2.9c-4.1,0.1-8.1,0-12.2,0c-1.6,0-2,0.4-2,2c0,3.4,0,6.7-0.1,10.1c0,2.1,0.5,2.5,2.6,2.5
				c5.1-0.1,10.2-0.1,15.3-0.1s10.3,0,15.5,0c3.2,0,5-1.3,5.9-4.4c0.1-0.3,0.2-0.7,0.5-0.9c0.4-0.3,1-0.6,1.4-0.4s0.8,0.7,0.9,1.2
				c0.1,0.9-0.1,1.8-0.1,2.7c0,8-0.1,15.9-0.1,23.9c0,0.6,0.2,1.2,0.1,1.7c-0.1,0.5-0.4,1.2-0.8,1.4c-0.6,0.3-1.3,0.1-1.8-0.5
				c-0.3-0.4-0.6-0.8-0.9-1.2c-0.7-1-1.5-1.6-2.7-1.7c-2.8-0.2-5.7-0.4-8.5-0.5c-9.5-0.1-19-0.1-28.6-0.1
				c-10.1,0.1-20.2,0.3-30.2,0.4c-0.9,0-1.8,0-2.6-0.1c-0.8,0-1.4-0.4-1.7-1.1c-0.2-0.7,0.2-1.2,0.7-1.7c0.1-0.1,0.2-0.2,0.4-0.3
				c2.4-1.2,3-3.4,3-5.9c0-5.1,0.1-10.3,0.1-15.4v-56.3c0-5-0.1-9.9-0.1-14.9c0-2.4-0.8-4.3-3-5.4c-0.2-0.1-0.5-0.2-0.5-0.4
				c-0.2-0.5-0.6-1.1-0.4-1.5c0.2-0.4,0.8-0.8,1.3-0.8c1-0.1,2.1,0.1,3.1,0.1h31.5L1034.8,98.3L1034.8,98.3L1034.8,98.3z"/>
			<path class="st1" d="M630.5,138.1c0-10.2,0-20.4,0-30.6c0-3-1-5.3-3.7-6.7c-0.7-0.3-0.9-1-0.8-1.7c0.2-0.9,0.9-0.9,1.6-0.9
				c3.4,0,6.8,0.1,10.2,0.1c6.2,0,12.5-0.1,18.7-0.1c0.6,0,1.3,0,1.9,0.1c0.4,0.1,0.9,0.4,1,0.8c0.1,0.3-0.1,0.9-0.4,1.1
				c-0.7,0.7-1.5,1.2-2.1,1.8c-1.1,1.1-1.6,2.5-1.6,4.1c0,5.1,0.1,10.3,0.1,15.4c0,4.6-0.1,9.1-0.1,13.7c0,8.5,0.1,17,0.1,25.5
				c0,1.2,0,2.4-0.1,3.6c-0.3,2.6,0,5.1,0.8,7.5c1.1,3.4,3.1,6.1,6.3,7.7c1.6,0.8,3.2,1.4,4.8,2.1c0.2,0.1,0.4,0.1,0.6,0.1
				c3.2,0,6.5,0.3,9.7-0.1c2.4-0.2,4.7-1.2,6.8-2.6c3.8-2.6,5.7-6.2,6.1-10.8c0-0.4,0.2-0.8,0.3-1.3c0.1-0.5,0.3-1.1,0.1-1.6
				c-0.9-2-0.3-4-0.3-6c0-3.6,0.3-7.3,0.3-10.9c0-2.6-0.5-5.3-0.7-7.9c-0.1-1.7-0.2-3.4-0.2-5.1V106c0-0.4,0-0.8,0-1.2
				c0.1-1.4-0.4-2.5-1.6-3.3c-0.3-0.2-0.5-0.5-0.8-0.8c-0.7-0.5-0.9-1.2-0.6-2s1-0.7,1.6-0.7c3.5,0,7,0.1,10.4,0.1
				c6.2,0,12.5-0.1,18.7-0.1c0.8,0,1.5-0.1,1.9,0.8c0.3,0.7-0.1,1.4-1,1.9c-1.7,1.1-2.5,2.5-2.5,4.6c0,19.2,0,38.5,0,57.7
				c0,5.8-0.8,11.5-2.6,17c-1.9,5.6-5.1,10.4-9.7,14.3c-3,2.5-6.2,4.4-9.8,5.8c-2.1,0.8-4.3,1.3-6.5,1.7c-3,0.5-6.1,0.8-9.2,1.3
				c-3.1,0.5-6.1,0.2-9.2,0.1c-4.4-0.1-8.8-1-13.1-1.9c-3.3-0.7-6.4-2-9.2-3.8c-1.9-1.2-3.9-2.5-5.6-4c-1.7-1.5-3.3-3.3-4.6-5.2
				c-1.4-2-2.3-4.2-3.4-6.4c-1.3-2.5-1.7-5.3-2.3-8.1c-0.8-3.8-0.8-7.6-0.7-11.5c0.1-2.9-0.1-5.9-0.1-8.8c0-5.2,0-10.4,0-15.6
				L630.5,138.1L630.5,138.1L630.5,138.1z"/>
			<path class="st1" d="M388.6,202.2h-14.2c-0.4,0-0.9,0-1.3,0c-1.2-0.1-1.8-1.1-1.3-2.1c0.4-0.7,0.9-1.3,1.4-1.8
				c1.1-1.2,1.8-2.5,1.4-4.1c-0.7-2.6-1.4-5.3-2.2-7.9c-0.3-0.9-0.6-1.9-1-2.8c-0.4-1.1-1-1.4-2.2-1.4c-6.5,0-13,0.1-19.5,0.1
				c-0.7,0-1.3-0.1-2-0.1c-1,0-1.8,0.4-2.1,1.3c-1.1,3.1-2.5,6-2.9,9.3c-0.2,1.7,0,3.1,1.3,4.4c0.8,0.8,1.1,1.8,1.1,2.9c0,2,0,4,0,6
				c-0.1,2.3-0.5,2.6-2.8,2.6h-27c-0.3,0-0.7,0-1-0.1c-0.5-0.1-1-0.2-0.9-0.8c0-0.6,0.2-1.1,0.9-1.2c0.2,0,0.5,0,0.7,0
				c8.5,0,17.1,0,25.6,0.1c0.3,0,0.7,0,1,0c1-0.1,1.5-0.6,1.6-1.6c0-1.6,0.1-3.1,0-4.6c-0.1-0.9-0.5-1.8-1-2.5
				c-1.2-1.6-1.6-3.3-1.2-5.1c0.6-2.4,1.3-4.9,2-7.3c0.2-0.8,0.6-1.6,0.9-2.5c0.7-1.9,1.4-2.5,3.4-2.5c3.9,0,7.8,0,11.8,0
				c2.9,0,5.8,0.1,8.7,0.1c2.2,0,2.8-0.8,2-2.9c-0.5-1.2-1.2-1.9-2.6-1.9c-6.1,0.1-12.3,0-18.4,0c-2,0-3.9,0.1-5.9,0
				c-1.4-0.1-2.1,0.7-2.5,1.9c-1.3,3.7-2.6,7.5-3.8,11.3c-0.6,2-0.9,4-1.3,6c-0.3,1.6,0.6,2.7,1.6,3.8c0.5,0.5,0.9,1.2,1.1,1.9
				c0.2,0.9-0.2,1.4-1.1,1.6c-0.7,0.1-1.5,0.1-2.2,0.1h-26c-0.5,0-1.1,0.1-1.5-0.6s-0.3-1.3,0.2-1.9c0.2-0.3,0.4-0.5,0.7-0.7
				c1.5-1,2.5-2.5,3.1-4.2c1.3-3.7,2.7-7.4,4-11c1.6-4.6,3.3-9.2,4.9-13.8c1.5-4.1,3-8.2,4.4-12.3c1.1-3.2,2.2-6.5,3.3-9.8
				c1-2.9,2.2-5.8,3.2-8.7c1.7-4.9,3.5-9.7,5.1-14.6c1.9-5.6,3.6-11.3,5.3-17c0.3-0.9,0.6-1.8,0.6-2.8c0-0.8-0.1-1.6-0.4-2.3
				c-0.3-0.7-0.8-1.2-1.2-1.9c-0.8-1.4-0.1-2.5,1.4-2.5c9.5,0.1,18.9,0.1,28.3,0.1c1.5,0,2,0.6,1.5,2.1c-0.1,0.4-0.4,0.9-0.7,1.2
				c-1,1.2-1.2,3.2-0.3,4.6c0.2,0.2,0.3,0.5,0.4,0.8c1.4,4.6,2.8,9.3,4.3,13.9c1.4,4.1,2.9,8.2,4.4,12.3c1.2,3.5,2.4,7,3.6,10.5
				c1,2.8,2,5.6,3,8.4c1.1,3.1,2.2,6.2,3.3,9.2c0.9,2.5,1.7,5,2.6,7.4c0.9,2.5,1.9,5,2.9,7.5c0.6,1.6,1.1,3.2,1.7,4.8
				c1.1,2.9,2.2,5.9,3.3,8.8c0.6,1.6,1,3.3,1.6,4.9c0.6,1.7,1.3,3.4,3.1,4.3c0.3,0.1,0.6,0.4,0.8,0.6c0.2,0.5,0.5,1.2,0.3,1.6
				c-0.1,0.4-0.8,0.8-1.2,0.8c-1.9,0.1-3.8,0.2-5.8,0.2C395.3,202.3,391.9,202.2,388.6,202.2L388.6,202.2L388.6,202.2L388.6,202.2z
				 M348.7,157.4c1.9,0,2.4-0.4,3-2.2c0.5-1.6,1-3.2,1.4-4.8c0.9-3.2,1.8-6.5,2.7-9.8c0.5-1.8,1.2-3.6,1.8-5.5
				c0.1-0.4,0.2-1,0.1-1.4c-0.4-1.9-0.9-3.9-1.3-5.8c0-0.1,0-0.1-0.1-0.2c-0.3-0.6-0.9-0.8-1.5-0.7c-0.7,0.1-0.7,0.6-0.8,1.1
				c-0.5,2.4-1.1,4.9-1.8,7.3c-0.9,3.4-1.9,6.8-2.9,10.2c-0.9,3-1.7,6-2.6,8.9C346.2,156.5,346.8,157.4,348.7,157.4L348.7,157.4
				L348.7,157.4z M362.2,157.4c0.6,0,0.9-0.2,1-1.2c0-0.4,0-0.8-0.1-1.1c-0.4-1.8-0.9-3.6-1.4-5.4c-0.7-2.8-1.3-5.6-2-8.4
				c-0.1-0.5-0.4-1.1-0.8-1.5c-0.3-0.4-0.8-0.4-1,0.1c-0.1,0.3-0.2,0.6-0.3,0.8c-1.3,4.7-2.5,9.4-3.8,14.1c-0.5,1.8,0,2.4,1.9,2.5
				L362.2,157.4L362.2,157.4z"/>
			<path class="st1" d="M202.9,202.2h-14.7c-0.9,0-1.6-0.1-2-1.1c-0.3-0.9-0.1-1.6,0.5-2.3c0.2-0.2,0.5-0.5,0.7-0.7
				c1.1-1.3,1.8-2.8,1.3-4.6c-1-3.3-2-6.6-3.1-9.9c-0.5-1.5-0.9-1.6-2.4-1.6c-6.3,0-12.6,0.1-18.8,0.1c-0.8,0-1.5-0.1-2.2-0.1
				c-1.1,0-1.9,0.4-2.2,1.5c-1,2.9-2.4,5.6-2.7,8.8c-0.2,1.8,0,3.4,1.3,4.8c0.5,0.6,0.7,1.5,0.8,2.2c0.1,2.3,0,4.6,0,6.9
				c0,1.8-0.4,2.3-2.3,2.3c-8.8,0-17.6,0.1-26.4,0.1c-0.6,0-1.2,0.1-1.8,0c-0.3-0.1-0.8-0.5-0.8-0.8c-0.1-0.5-0.2-1.2,0.6-1.4
				c0.3-0.1,0.6-0.1,0.9-0.1c8.5,0,17,0.1,25.5,0.1c0.3,0,0.7,0,1,0c1.1-0.1,1.6-0.5,1.6-1.6c0.1-1.7,0.1-3.4,0-5.1
				c-0.1-0.8-0.5-1.6-1-2.2c-1.8-1.9-1.9-4-1.1-6.2c0.9-2.9,1.9-5.7,2.9-8.5c0.8-2.1,1.3-2.5,3.7-2.5c6.4,0,12.9,0.1,19.3,0.1
				c0.3,0,0.6,0,0.9,0c2-0.1,2.6-0.9,1.9-2.8c-0.5-1.4-1.3-2-2.8-2c-5.1,0-10.2,0-15.3,0c-3,0-6,0-9,0c-1.6,0-1.7,0.1-2.2,1.6
				c-1.1,3.3-2.2,6.6-3.3,9.9c-0.7,2.3-1.3,4.7-1.8,7.1c-0.3,1.5,0,2.9,1.3,4c0.3,0.3,0.6,0.6,0.9,0.9c0.5,0.6,0.7,1.3,0.4,2.1
				c-0.3,0.7-1,0.8-1.6,0.8c-4.2,0.1-8.4,0.1-12.6,0.1c-4.8,0-9.6,0-14.4-0.1c-0.6,0-1.4-0.2-1.9-0.5c-0.8-0.5-0.8-1.3-0.2-2
				c0.2-0.3,0.5-0.6,0.8-0.8c1.8-0.9,2.6-2.7,3.2-4.5c1.3-3.5,2.5-7.1,3.8-10.6c1-2.9,2-5.8,3.1-8.7c2-5.5,4-11,5.9-16.5
				c2.6-7.3,5.1-14.6,7.6-21.9c1.8-5.1,3.6-10.3,5.4-15.5c1.4-4.2,2.6-8.4,3.9-12.6c0.4-1.2,0.7-2.5,1-3.7c0.2-1.2,0-2.3-0.9-3.2
				c-0.1-0.1-0.2-0.3-0.3-0.4c-0.5-0.8-1-1.6-0.5-2.5c0.5-0.9,1.4-0.6,2.2-0.6H183c0.5,0,1,0,1.5,0c1.3,0.1,1.8,0.9,1.2,2.1
				c-0.4,0.8-1,1.4-1.3,2.1c-0.3,0.6-0.5,1.3-0.3,1.9c0.5,1.9,1.3,3.8,1.9,5.6c1,3.1,1.9,6.1,2.8,9.2c0.6,2,1.4,3.9,2.1,5.8
				c0.7,2,1.3,4,2,6c0.6,1.8,1.3,3.5,1.9,5.3c1,2.8,1.9,5.7,2.9,8.5c0.6,1.9,1.3,3.7,2,5.5c0.4,1.1,0.7,2.2,1.1,3.4
				c1.1,3.2,2.2,6.4,3.4,9.5c0.8,2.3,1.6,4.6,2.4,6.9c0.6,1.6,1.3,3.2,1.9,4.9c1,2.7,1.9,5.4,2.9,8.1c0.9,2.6,1.9,5.2,2.9,7.8
				c0.3,0.9,0.6,1.7,0.8,2.6c0.7,2.3,1.9,4.2,3.8,5.6c0.7,0.5,1,1.2,0.8,2c-0.3,0.9-1,1-1.8,1h-15.1v0.1L202.9,202.2L202.9,202.2z
				 M162.9,157.2c1.9,0.1,2.8-0.4,3.4-2.6c1.1-4.1,2.1-8.1,3.2-12.2c0.7-2.4,1.4-4.8,2.2-7.1c0.3-0.8,0.4-1.5,0.1-2.4
				c-0.3-0.8-0.5-1.7-0.8-2.5c-0.3-1-0.7-2-1.1-3c-0.1-0.2-0.5-0.4-0.8-0.5c-0.2,0.2-0.4,0.5-0.5,0.7c-1.2,4.1-2.4,8.1-3.5,12.2
				c-0.8,2.8-1.5,5.7-2.3,8.5c-0.6,2.4-1.3,4.7-2,7.1c-0.3,1.1,0.2,1.8,1.4,1.8C162.6,157.2,162.8,157.2,162.9,157.2L162.9,157.2
				L162.9,157.2z M172.8,157.4c1,0,2,0,2.9,0c1.8,0.1,2.3-0.8,1.8-2.5c-0.8-2.7-1.6-5.5-2.3-8.2c-0.4-1.5-0.7-3-1-4.4
				c-0.2-1-0.4-3.6-1.9-1.9c-0.3,0.4-0.5,0.8-0.6,1.3c-1.1,2.9-1.6,6-2.5,9c-0.4,1.5-0.9,2.9-1.3,4.4c-0.4,1.6,0.2,2.4,1.8,2.5
				C170.7,157.4,171.7,157.4,172.8,157.4L172.8,157.4L172.8,157.4z"/>
			<path class="st1" d="M277,157.9v35.5c0,2.1,0.7,3.9,2.4,5.3c0.2,0.1,0.4,0.3,0.4,0.4c0.1,0.6,0.5,1.3,0.3,1.8
				c-0.2,0.4-1,0.8-1.5,0.9c-2.7,0.1-5.3,0.1-8,0.1c-6.6,0-13.2,0-19.7,0.1h-1.1c-0.6,0-1.2,0-1.5-0.7c-0.3-0.7-0.3-1.4,0.2-2
				c0.2-0.2,0.4-0.4,0.6-0.6c1.8-1.3,2.7-3,2.6-5.3c-0.1-20.8-0.1-41.6-0.1-62.4c0-1.1,0-2.1,0-3.1c0-1.6-0.3-1.9-1.9-1.9
				c-3.1,0-6.1,0.1-9.2,0.1c-1,0-2,0-3,0.1c-1.3,0-2.5,0.2-3.5,1.1c-0.5,0.4-1.3,0.7-1.8,0.1c-0.6-0.6-0.3-1.3,0.3-1.9
				c0.8-0.8,1.6-1.3,2.7-1.4c1.1-0.1,2.3-0.2,3.4-0.2c3.6,0,7.2,0.1,10.7,0.1c0.8,0,1.7,0.1,2.1-0.8c0.5-1,0.4-2.1-0.2-3
				c-0.2-0.3-0.6-0.4-0.9-0.5c-1.2-0.1-2.4-0.1-3.6-0.1c-4.8,0-9.5,0-14.3,0c-1.8,0-3.5,0.4-4.9,1.6c-0.4,0.3-0.7,0.8-1.1,1.2
				c-0.2,0.3-0.4,0.6-0.6,0.8c-0.5,0.6-1.2,0.6-1.9,0.4c-0.7-0.2-0.8-0.8-0.8-1.4c0-2.4,0-4.9,0-7.3V97.2c0-0.7,0-1.3,0.1-2
				c0.1-1.3,1.1-1.9,2.3-1.2c0.3,0.2,0.6,0.5,0.9,0.8c0.6,0.6,1.3,1.3,1.9,1.9c0.9,0.9,2,1,3.2,1c7.3,0,14.5,0,21.8,0
				c3.7,0,7.4,0.2,11.1,0.2c9.8,0,19.6-0.1,29.5-0.2c1,0,2,0,2.9,0c2.5,0.1,4.3-1.1,5.6-3.1c0.4-0.6,0.8-0.9,1.6-0.9
				c1,0.1,1.5,0.4,1.5,1.5c0,1.3,0,2.6,0,3.9c0,7.3-0.1,14.6-0.1,22c0,0.4,0,0.9,0.1,1.3c0,0.8-0.2,1.4-1,1.6
				c-0.9,0.3-1.8-0.1-2.2-0.8c-0.3-0.4-0.5-0.9-0.8-1.3c-1.4-2-3.5-2.2-5.7-2.2h-14.3c-1,0-2,0-3,0c-1.2,0-1.7,0.4-1.7,1.7
				c0,1.7,0,3.4,0,5.1c0,6,0,12,0,18v13.4L277,157.9L277,157.9L277,157.9z"/>
			<path class="st1" d="M461.9,157.4v34.8c0,2.7,0.6,5.1,2.7,6.9c0.6,0.5,0.8,1.2,0.6,1.9c-0.3,0.8-1,0.9-1.7,0.9
				c-2.5,0.1-5.1,0.1-7.6,0.1c-6.4,0-12.8,0-19.2,0c-0.8,0-1.5,0-2.2-0.1c-1.4-0.3-1.8-1.5-0.8-2.6c0.1-0.2,0.3-0.3,0.4-0.4
				c2.1-1.6,2.9-3.8,2.9-6.3c0-8.3,0-16.6,0-24.9c0-13.1,0-26.2,0-39.4c0-2.1-0.3-2.4-2.5-2.4c-4.5,0.1-9.1,0.1-13.7,0.1
				c-1.6,0-3.2,0.1-4.6,1.2c-0.5,0.4-1,0.3-1.4-0.2c-0.4-0.6-0.3-1.1,0.2-1.5c1.4-1.1,3-1.7,4.8-1.7c4.7,0.1,9.4,0.1,14.1,0.1
				c0.2,0,0.5,0,0.7,0c2.5-0.1,2.5-0.7,2.3-3c0-0.6-1.4-1.4-2.1-1.4c-2.3,0.1-4.6,0.2-6.9,0.2c-3.4,0-6.9,0-10.3-0.1
				c-2.6-0.1-4.7,0.8-6.2,3c-0.4,0.5-1,1-1.6,1.1c-1.2,0.3-1.8-0.3-1.8-1.5c0.1-4.6,0.1-9.3,0.2-13.9c0-3.6,0.1-7.1,0.1-10.6
				c0-0.7-0.1-1.4-0.1-2.1s-0.3-1.6,0.8-1.9c1-0.2,2,0.2,2.5,1.1c0.4,0.6,0.8,1.1,1.3,1.6c1.1,1.1,2.6,1.2,4,1.2
				c11.8,0,23.6,0.1,35.4,0.1c10,0,20-0.1,30-0.1c2.4,0,4-1,5.2-2.9c0.4-0.7,1-1.1,1.8-1c1.1,0.1,1.4,0.4,1.4,1.5
				c0,6.9,0,13.8-0.1,20.7c0,2.1-0.2,4.1,0.1,6.1c0.1,0.7,0.2,1.6-0.9,1.9c-1.2,0.3-1.9,0-2.4-1.1c-1.1-2.4-3.2-3.2-5.6-3.2
				c-4.1-0.1-8.2-0.1-12.2-0.1c-1.9,0-3.8,0.1-5.7,0.1c-1.6,0-2.1,0.5-2.1,2.1v35.6L461.9,157.4L461.9,157.4L461.9,157.4z"/>
			<path class="st1" d="M838.2,144v-32.4c0-1.9,0-3.7,1-5.4c0.2-0.3,0.4-0.7,0.7-0.9c0.4-0.2,1-0.4,1.2-0.2c0.3,0.2,0.3,0.8,0.3,1.2
				c0,0.3-0.2,0.6-0.4,0.8c-0.7,0.9-0.8,1.9-0.8,2.9c0,18.8,0,37.5,0,56.3c0,3.9-0.1,7.8-0.1,11.6c0,1.9,0.7,2.7,2.6,2.7
				c9.3,0.1,18.7,0.1,28,0.1c2.3,0,4.5-0.5,6.1-2.4c0.4-0.5,0.6-1.1,0.9-1.7c0.1-0.2,0.2-0.5,0.3-0.8c0.5-0.9,1.2-1.3,1.8-1.1
				c0.9,0.3,1,1,0.9,1.9c-0.1,3.9-0.2,7.7-0.2,11.6c0,4.2,0,8.4,0.1,12.6c0,1,0,2.1,0.1,3.1c0,0.7-0.1,1.3-0.8,1.6
				c-0.7,0.3-1.3,0.2-1.9-0.4c-0.3-0.3-0.6-0.7-0.8-1c-1-1.6-2.4-2.2-4.3-2.2H805c-0.6,0-1.2,0-1.7,0c-0.7,0-1.2-0.4-1.2-1
				c0-0.5,0.2-1.1,0.6-1.5c0.3-0.3,0.8-0.4,1.3-0.6c2.3-0.8,3.7-2.4,4-4.8c0.1-0.5,0.1-0.9,0.1-1.4c0-27,0-53.9,0-80.9
				c0-2,0-3.9,0-5.9c0-2.4-1.5-4.3-3.8-5c-0.3-0.1-0.5-0.1-0.8-0.2c-1-0.3-1.5-0.9-1.3-1.7c0.2-0.9,0.9-1.1,1.7-1.1
				c5.7,0.1,11.4,0.1,17.1,0.2c4.4,0,8.8,0,13.2,0c0.9,0,1.8-0.1,2.7-0.1c0.7,0,1.4,0.2,1.5,1c0.2,0.8-0.3,1.3-1,1.7
				c-0.9,0.4-1.9,0.9-2.7,1.5c-1.1,0.9-1.4,2.3-1.4,3.8c0,3.9,0,7.8,0,11.6c0,19.1,0,38.2,0,57.4c0,1,0,2,0,3c0,1.9,1,2.7,3,2.6
				c1.3,0,2.2-1,2.2-2.6c0-4.1,0-8.1,0-12.1L838.2,144L838.2,144L838.2,144L838.2,144z"/>
			<path class="st1" d="M935.1,143.8v-30c0-1.3,0-2.6-0.1-3.8c0-1.6,0.4-3,1.4-4.3c0.3-0.5,0.8-1,1.4-0.6c0.7,0.4,0.6,1.1,0.2,1.6
				c-0.9,1.1-1.1,2.3-1.1,3.7c0,20.7,0,41.4,0.1,62v6c0,1.9,0.3,2.2,2.2,2.2c6.8,0.1,13.7,0.1,20.5,0.1h8.2c1.4,0,2.8-0.3,4-1
				c1.1-0.7,2-1.6,2.4-2.9c0.2-0.5,0.4-0.9,0.7-1.4c0.4-0.6,0.9-0.8,1.6-0.6c0.7,0.2,0.9,0.7,0.9,1.3c0,1.5,0,3,0,4.6
				c0,7.3-0.1,14.6-0.1,21.9c0,0.5,0.1,1.1,0.1,1.6c0,0.6,0,1.3-0.7,1.5c-0.7,0.2-1.3,0.1-1.9-0.4c-0.2-0.2-0.3-0.4-0.4-0.6
				c-1.2-1.9-2.8-2.7-5.1-2.7c-10.7,0-21.4,0-32.1,0h-36.5c-0.7,0-1.5,0.2-1.7-0.8c-0.2-1.1,0.2-1.7,1.3-2.1
				c0.8-0.3,1.6-0.5,2.2-0.9c1.3-0.9,2.1-2.2,2.2-3.8c0.2-1.5,0.3-2.9,0.4-4.4c0.1-5,0.2-10,0.2-15c0-10.6,0-21.1,0-31.7
				c0-5.1-0.1-10.3-0.1-15.5c0-5.3-0.1-10.6-0.2-16c0-0.8,0-1.6,0.1-2.3c0.4-2.1-0.2-4-0.9-5.8c-0.6-1.5-1.8-2.6-3.6-2.7
				c-1.3-0.1-1.5-0.4-1.5-1.5s0.4-1.4,1.5-1.4c2.7,0.1,5.4,0.1,8.1,0.1c8.3,0,16.7,0,25-0.1c0.7,0,1.2,0.1,1.4,0.9
				c0.1,0.8-0.3,1.6-1,1.9s-1.5,0.6-2.2,1c-0.9,0.5-1.3,1.4-1.5,2.3c-0.2,0.9-0.2,1.8-0.2,2.7c0,10.5,0.2,21,0.2,31.6
				c0,12.4,0,24.8,0,37.2c0,0.8-0.1,1.5-0.1,2.2c0,1.8,0.7,2.6,2.4,2.7c2,0,2.8-0.7,2.8-2.6L935.1,143.8L935.1,143.8L935.1,143.8
				L935.1,143.8z"/>
			<path class="st1" d="M748.1,149.7v-42.1c0-0.4,0-0.8,0-1.2c0.3-2.9-1.5-4.3-3.7-5.5c-0.4-0.2-0.9-0.4-1.1-0.8
				c-0.5-0.9,0-1.9,1.1-2c0.8-0.1,1.7,0.1,2.5,0.1h26.3c1.1,0,2.2-0.1,3.3-0.1c0.7,0,1.4,0.1,1.6,1c0.2,0.9-0.2,1.4-1,1.8
				c-1.3,0.6-2.7,1.1-3.2,2.6c-0.3,1-0.6,2.1-0.6,3.2c0,6.6,0,13.3,0,19.9c0,7.2,0,14.4,0,21.7c0,15.1-0.1,30.2-0.1,45.3
				c0,2.6,0.9,4.6,3.5,5.6c1.1,0.4,1.5,1.1,1.3,1.9c-0.2,1-1.1,1.1-1.9,1.1c-7.3,0-14.5,0-21.8,0.1c-3.2,0-6.5,0-9.7,0
				c-0.4,0-1.2-0.3-1.2-0.5c0-0.6,0.1-1.3,0.4-2c0.1-0.3,0.5-0.5,0.9-0.6c1.5-0.6,2.4-1.8,3.1-3.1c0.3-0.5,0.4-1.1,0.4-1.7
				c0-3.6,0-7.3,0-10.9L748.1,149.7L748.1,149.7L748.1,149.7z"/>
			<path class="st1" d="M455.5,208.5h-14.9c-1.1,0-1.4-0.4-1.2-1.4c0.1-0.9,0.8-0.8,1.4-0.8c3.5,0,7,0,10.5,0c5.7,0,11.3,0,17,0.1
				c1.6,0,2.1-0.6,2.1-2.1c0-1.2,0.1-2.4,0-3.5c-0.1-0.8-0.3-1.8-0.8-2.3c-1.9-2-2.4-4.5-2.4-7.1c-0.1-6.1-0.1-12.1-0.2-18.2
				c0-10.6,0-21.3,0-31.9c0-4.6,0.1-9.1,0.2-13.7c0-0.2,0-0.4,0-0.6c0.2-2.8,0.5-3.1,3.3-3c2.3,0,4.6-0.1,6.9-0.1
				c1,0,2.1,0.2,3.1,0.3c1.9,0.3,3.3,1.2,4.3,2.8c0.9,1.4,2.1,1.9,3.7,1.8c1.8-0.1,3.6,0,5.4,0c1.5,0,2.1-0.6,2.1-2.1
				c0-7.1,0-14.2-0.1-21.3c0-1.3,0-2.6,0-3.9c0-0.5-0.1-1,0.1-1.4c0.2-0.4,0.6-0.7,0.9-1c0.3,0.3,0.7,0.7,1,1.1
				c0.1,0.2,0.1,0.5,0.1,0.8c0,8.7,0,17.3-0.1,26c0,0.7,0,1.3-0.1,2c-0.1,1.1-0.5,1.7-1.6,1.7c-3.3,0.1-6.6,0.1-9.9,0
				c-1,0-1.7-0.6-2.1-1.5c-0.9-2.2-2.6-3.1-5-3c-2.6,0.1-5.1,0-7.7,0c-1.6,0-2,0.5-1.9,2.1c0.1,0.7,0.1,1.4,0.1,2.1
				c0,11.5,0,23.1,0,34.6c0,8.3,0,16.7-0.1,25c0,1-0.1,2-0.2,2.9c-0.1,1.6,0.4,3,1.6,3.9c1.1,0.8,1.6,1.9,1.5,3.2
				c-0.1,1.8,0,3.7,0,5.5c0,0.4,0,0.8-0.1,1.2c-0.2,1.4-0.6,1.8-2.1,1.8h-14.7L455.5,208.5L455.5,208.5L455.5,208.5z"/>
			<path class="st1" d="M91,208.4H72.7c-0.2,0-0.5,0-0.7,0c-0.6-0.1-1.1-0.4-1.2-1c-0.1-0.7,0.4-1.1,1-1.3c0.4-0.1,0.8-0.1,1.2-0.1
				c8.2,0,16.5,0.1,24.7,0.1c3,0,6,0.1,9,0.1c0.5,0,1,0,1.5-0.1c0.7-0.1,1.2-0.5,1.2-1.3c0.1-1.6,0.2-3.2,0.1-4.8
				c0-0.6-0.5-1.4-1-1.8c-2.8-2-4.9-4.6-6.5-7.6c-2.9-5.3-5.8-10.5-8.6-15.8c-3.2-6.1-6.2-12.2-9.4-18.2c-0.5-0.9-1-1.8-1.5-2.7
				c-0.7-1.1-0.5-1.7,0.8-2.3c7.5-3.7,13.2-9.2,16.8-16.8c2.6-5.4,3.7-11.2,3.9-17.1c0.2-5.3-0.3-10.6-2.1-15.7
				c-1.6-4.7-4.1-8.9-7.7-12.4c-1-1-2.1-1.9-3.1-2.8c-0.3-0.3-0.7-0.6-0.8-1c-0.1-0.3,0.1-0.8,0.3-1.1c0.2-0.2,0.8-0.1,1,0
				c1.3,1.1,2.7,2.1,3.9,3.4c3.3,3.6,6.2,7.5,7.8,12.2c0.9,2.5,1.5,5.2,2,7.8c0.4,2.6,0.7,5.4,0.7,8c-0.1,6.7-1.3,13.2-4.2,19.3
				c-2.5,5.1-5.8,9.6-10.3,13c-1.8,1.3-3.7,2.5-5.6,3.8c-1.2,0.7-1.4,1.3-0.8,2.5c3.3,6.4,6.6,12.7,9.9,19.1c2,3.9,4,7.9,6.2,11.7
				c1.4,2.6,3.1,5.1,4.6,7.6c1,1.6,2.4,2.7,4,3.4c1.1,0.6,1.6,1.4,1.6,2.6c0,2.2,0,4.5-0.1,6.8c0,0.3,0,0.5-0.1,0.8
				c-0.2,1.2-0.6,1.6-1.8,1.6L91,208.4L91,208.4L91,208.4L91,208.4z"/>
			<path class="st1" d="M282,159.6V126c0-1.7,0.3-2.1,2-2c4.2,0,8.5,0.1,12.7,0.2c0.9,0,1.8,0.4,2.6,0.6c1.3,0.4,2.1,1.5,2.8,2.6
				c0.7,1.1,1.7,1.5,2.9,1.4c1.1-0.1,2.1,0,3.2,0c1.4,0,2.1-0.7,2.1-2.1c0-4.5,0-9,0-13.5c0-4.2-0.1-8.4-0.1-12.5
				c0-0.3,0.1-0.7,0.3-1c0.2-0.3,0.6-0.8,0.8-0.8c0.4,0.1,0.7,0.5,0.9,0.9c0.2,0.4,0.2,0.9,0.2,1.4c0,8.6,0,17.1-0.1,25.7
				c0,0.8,0,1.6-0.1,2.3c0,0.7-0.4,1.1-1.1,1.3c-0.4,0.1-0.9,0.2-1.3,0.2c-2.2,0-4.5,0-6.7,0c-1,0-1.8-0.5-2.1-1.5
				c-0.8-2-2.3-3-4.5-3c-3.5,0-7.1-0.1-10.6-0.1c-1.4,0-2,0.5-2,1.9c-0.1,1.8,0,3.5,0,5.3c0,19.2-0.1,38.5,0,57.7
				c0,1.4,0.3,2.8,0.8,4.1c0.2,0.7,0.8,1.4,1.4,1.9c0.7,0.6,1.1,1.2,1.1,2.1c0,2.5,0,5.1,0,7.6c0,1.4-0.4,1.8-1.9,1.9
				c-2.5,0.1-4.9,0.1-7.4,0.1h-22.4c-0.7,0-1.3-0.1-1.3-1c-0.1-1,0.2-1.4,1.2-1.4c8.9,0,17.8,0.1,26.7,0.1c0.5,0,1,0,1.5,0
				c1-0.1,1.6-0.6,1.7-1.6c0-1.5,0.1-3,0-4.4c-0.1-0.7-0.4-1.5-0.9-2c-1.8-1.9-2.4-4.2-2.4-6.8C282.1,180.8,282.1,170.2,282,159.6
				L282,159.6L282,159.6L282,159.6z"/>
			<path class="st1" d="M721.3,139.4c0-9.4,0-18.7,0-28c0-1.5,0.3-3,0.5-4.5c0.1-0.5,0.4-1.1,0.8-1.5c0.2-0.2,0.8-0.4,1.1-0.3
				c0.3,0.1,0.4,0.7,0.5,1.1c0,0.2-0.1,0.4-0.2,0.6c-1.1,1.3-1,2.9-1,4.4c0,12.3,0,24.6,0,36.8c0,6.1,0,12.1,0,18.2
				c-0.1,5.1-0.7,10.2-2.2,15.1c-1.5,5-3.8,9.5-7.1,13.5c-2.9,3.5-6.3,6.4-10.4,8.6c-5.2,2.9-10.7,4.6-16.6,5.4
				c-4.2,0.5-8.3,1.1-12.5,1.1c-4.9,0-9.9-0.7-14.7-1.7c-5-1-9.7-2.8-14.1-5.4c-2-1.2-3.9-2.7-5.8-4.1c-0.1-0.1-0.2-0.2-0.3-0.4
				c-0.3-0.5-0.9-1-0.2-1.5c0.5-0.5,1.1-0.2,1.5,0.2c0.6,0.5,1.2,1,1.8,1.5c3.4,2.8,7.3,4.7,11.5,6.2c3.9,1.4,7.9,2.2,11.9,2.7
				c5.7,0.6,11.4,0.6,17.1,0c5.6-0.5,11.1-1.8,16.2-4.1c6.1-2.8,11.4-6.5,15.1-12.2c3.3-5.1,5.2-10.6,6.2-16.6
				c0.7-4.3,0.8-8.6,0.8-12.9L721.3,139.4L721.3,139.4L721.3,139.4L721.3,139.4z"/>
			<path class="st1" d="M209.3,208.6H194c-1.5,0-2-0.4-2-1.3c0-0.8,0.5-1,2-1c9.5,0,19,0.1,28.4,0.1c1.9,0,2.4-0.5,2.4-2.5
				c0-1,0-2,0-3c0-1.1-0.3-1.9-1.3-2.6c-1.5-0.9-2.3-2.3-2.9-3.9c-1.5-4-2.9-8-4.4-12c-1.5-4-3.1-8-4.5-12c-1-2.6-1.8-5.1-2.8-7.7
				c-1.5-4.1-3-8.1-4.5-12.1c-0.4-1.1-0.8-2.3-1.2-3.4c-1.7-4.9-3.4-9.7-5.1-14.6c-1.7-4.7-3.4-9.5-4.9-14.2c-1-3.1-1.9-6.2-2.9-9.4
				c-0.3-1-0.3-2.1,0.1-3.1c0.1-0.3,0.3-0.7,0.6-0.9c0.4-0.2,0.9-0.4,1.2-0.2s0.6,0.9,0.5,1.1c-0.9,2.2,0,4.2,0.6,6.2
				c1.3,4.1,2.7,8.2,4.1,12.3c1.4,4.2,2.9,8.5,4.4,12.7c1.6,4.5,3.2,9,4.8,13.5c1.8,4.8,3.5,9.6,5.3,14.4c1.5,4.1,3,8.2,4.5,12.4
				c1.2,3.2,2.4,6.4,3.6,9.7c0.9,2.3,1.7,4.6,2.6,6.9c0.5,1.3,1.4,2.3,2.8,2.8c1.1,0.4,1.6,1.2,1.6,2.4c0,2.5,0,5.1-0.1,7.6
				c0,1.4-0.4,1.8-1.9,1.8C219.8,208.6,214.6,208.6,209.3,208.6L209.3,208.6L209.3,208.6L209.3,208.6z"/>
			<path class="st1" d="M612.8,151c0-4.4-0.5-8.7-1.4-12.9c-1.1-5.6-3-11.1-5.7-16.2c-2.6-4.8-5.8-9.2-9.7-13
				c-0.1-0.1-0.2-0.2-0.3-0.4c-0.3-0.4-0.5-0.9-0.1-1.4c0.5-0.5,1-0.3,1.4,0.1c1.2,1.3,2.5,2.5,3.6,3.8c2.8,3.4,5.3,7,7.2,11
				c2,4.1,3.8,8.3,4.7,12.9c0.5,2.5,1,5,1.5,7.5c0,0.2,0.1,0.4,0.1,0.6c0.4,5.6,0.6,11.3-0.2,17c-0.9,6.1-2.3,12-4.8,17.6
				c-3.8,8.2-9,15.3-16.2,20.9c-4.1,3.2-8.6,5.7-13.4,7.6c-5.1,2-10.4,2.8-15.8,3.5c-7.2,0.9-14.2-0.5-21.2-2.1
				c-4.9-1.2-9.3-3.3-13.5-6c-0.3-0.2-0.8-0.4-0.9-0.8c-0.2-0.3-0.3-0.8-0.2-1.1c0.1-0.2,0.8-0.3,1-0.2c0.9,0.4,1.7,1,2.5,1.5
				c4.9,2.9,10.1,4.8,15.6,5.8c6.3,1.2,12.6,1.3,19,0.7c5.6-0.6,10.9-2.1,16-4.5c7.3-3.4,13.5-8.1,18.5-14.6
				c3.8-4.9,6.7-10.3,8.7-16.1c1.4-4,2.5-8.2,2.7-12.5C612.1,156.8,612.5,153.9,612.8,151L612.8,151L612.8,151z"/>
			<path class="st1" d="M766.9,208.6h-15.1c-0.4,0-0.8,0-1.2,0c-0.6,0-1-0.2-0.9-0.9c0-0.6,0.2-1.2,0.9-1.2c0.7,0,1.3,0,2,0H781
				c1.9,0,2.1-0.3,2.2-2.2c0-1.4,0.1-2.8,0.1-4.1c0-1.2-0.4-2.1-1.5-2.7c-2.2-1.2-3.2-3.1-3.2-5.6c0-6.9,0-13.7,0-20.5
				c0-14.6,0-29.1,0-43.7c0-5.9,0-11.8,0-17.7c0-1.4,0.5-2.7,1-4c0.4-0.8,0.9-0.9,1.6-0.6c0.7,0.4,0.7,0.9,0.3,1.5
				c-1.1,1.5-0.9,3.3-0.9,5c0,4.8,0.1,9.6,0.1,14.4c0,20.4,0,40.9-0.1,61.3c0,1.6,0,3.2,0,4.8c0.1,1.9,1,3.1,2.8,3.7
				c1.5,0.5,1.7,0.9,1.7,2.4v7.7c0,1.9-0.5,2.5-2.4,2.5C777.4,208.6,772.1,208.5,766.9,208.6L766.9,208.6L766.9,208.6L766.9,208.6z"
				/>
			<path class="st1" d="M395.2,208.6H380c-0.3,0-0.6,0-0.9,0c-0.7,0-1.2-0.2-1.2-1c0-0.9,0.5-1.2,1.3-1.1c1.1,0,2.2,0,3.3,0
				c8.6,0,17.3,0.1,25.9,0.1c0.4,0,0.8,0,1.2-0.1c0.9-0.1,1.3-0.6,1.3-1.4c0-1.6,0.1-3.1,0-4.6c-0.1-0.6-0.5-1.5-1-1.9
				c-1.6-1.3-2.7-2.9-3.4-4.8c-2.2-6.1-4.6-12.2-6.9-18.3c-2.4-6.4-4.7-12.7-7-19.1c-2.5-7-5.1-14-7.6-21
				c-1.8-5.2-3.6-10.4-5.4-15.6c-1.1-3.2-2.1-6.3-3.1-9.5c-0.4-1.2-0.8-2.5-0.4-3.9c0.1-0.3,0.2-0.7,0.4-0.9c0.3-0.5,0.8-1,1.5-0.7
				c0.8,0.4,0.6,1,0.3,1.6c-0.5,1-0.5,1.9-0.2,2.9c1.5,4.7,3,9.4,4.6,14c1.9,5.4,3.8,10.8,5.7,16.2c1.1,3.3,2.2,6.6,3.4,9.8
				c1.5,4.2,3.1,8.4,4.6,12.6c1.2,3.4,2.4,6.8,3.6,10.2c1.2,3.2,2.5,6.4,3.6,9.5c1.2,3.3,2.3,6.6,3.5,9.8c0.5,1.4,1.1,2.8,1.9,4
				c0.5,0.8,1.4,1.3,2.2,1.8c0.8,0.4,1.3,1,1.3,1.9c0.1,2.5,0.1,5,0.1,7.5c0,1.7-0.5,2.1-2.2,2.1
				C405.6,208.6,400.5,208.6,395.2,208.6L395.2,208.6L395.2,208.6L395.2,208.6z"/>
			<path class="st1" d="M983.5,213.6c-0.3,0-0.6,0.1-0.9,0.1h-10.3c-0.6,0-0.9-0.2-1.1-0.8c-0.5-1.1-1.1-2.2-1.8-3.2
				c-0.7-1-1.9-1.1-3.1-1.1c-4.8,0-9.6,0.1-14.4,0.1h-45.5c-0.2,0-0.5,0-0.7,0c-0.5,0-1-0.2-0.9-0.8c0-0.6,0.1-1.2,0.8-1.4
				c0.2,0,0.4,0,0.6,0c13.2,0,26.4,0,39.6,0c6.7,0,13.5,0,20.2,0c2.1,0,3.9,0.8,5.1,2.5c0.9,1.2,2,1.9,3.6,1.7c1.8-0.2,3.7,0,5.6,0
				c1.5,0,2-0.6,2-2.1c-0.1-5.8-0.1-11.6-0.2-17.4c0-2.8,0-5.5,0-8.3v-0.7c0-0.6,0.1-1.1,0.8-1.2c0.8-0.1,1.5,0.4,1.7,1
				c0.1,0.5,0.1,1,0.1,1.5c0,8.1-0.1,16.2-0.2,24.4c0,1.6-0.2,3.1-1.1,4.5C983.3,212.6,983.4,213.1,983.5,213.6L983.5,213.6
				L983.5,213.6z"/>
			<path class="st1" d="M839.5,206.5h29.2c2.5,0,4.7,0.7,6.1,2.9c0.8,1.1,1.7,1.5,3,1.4c1.9-0.1,3.8,0,5.7,0c2,0,2.6-0.6,2.5-2.6
				c-0.1-2.4-0.2-4.9-0.2-7.3c0-4.1,0.2-8.2,0.2-12.3c0-1.9-0.2-3.8-0.2-5.8c0-0.5,0.1-1.1,0.4-1.4c0.3-0.3,1-0.3,1.3-0.2
				c0.3,0.2,0.7,0.8,0.7,1.2c0.1,3.4,0.1,6.9,0.1,10.3c0,4.6,0,9.1,0,13.7c0,2-0.4,4-0.6,6c0,0.4,0,1-0.3,1.2
				c-0.3,0.2-0.9,0.1-1.4,0.1h-10.2c-0.7,0-1.1,0-1.2-1c-0.2-2.4-2.4-4.2-4.8-4.2c-19.9,0-39.8,0-59.7,0.1h-0.5
				c-0.6-0.1-1.4,0.1-1.3-1c0-1,0.2-1.2,1.4-1.2c5.7,0,11.4,0,17.1,0L839.5,206.5L839.5,206.5L839.5,206.5L839.5,206.5z"/>
			<path class="st1" d="M660.8,139.1v-27.7c0-1.8,0-3.5,0.9-5.1c0.3-0.6,0.7-1.5,1.5-1.1c0.9,0.4,0.4,1.2,0.2,1.9
				c-0.3,1-0.6,2.1-0.6,3.1c0,5.9,0.1,11.9,0.1,17.8c0,9.4-0.1,18.8-0.1,28.2c0,4.3,0,8.6,0,12.9c0,1.8,0.6,3.4,1.7,4.9
				c0.4,0.6,1.1,1.1,0.4,1.8c-0.5,0.5-1.2,0.1-1.9-0.8c-1.3-1.9-1.9-3.9-2.1-6.2c-0.2-2.4-0.2-4.9-0.2-7.4
				C660.7,154.1,660.7,146.6,660.8,139.1L660.8,139.1L660.8,139.1z"/>
			<path class="st1" d="M539.1,150.7c0,5.4,0.8,10.3,2.8,14.9c0.6,1.3,1.4,2.5,2.1,3.7c0.3,0.5,0.7,1,0.1,1.4
				c-0.6,0.5-1.2,0.2-1.6-0.4c-0.9-1.5-1.8-3-2.5-4.6c-2.2-5.3-2.9-10.8-2.6-16.4c0.2-6.4,1.7-12.4,5.4-17.6
				c3.3-4.6,7.5-7.9,13.3-8.7c4.3-0.6,8.5-0.1,12.2,2.4c0.8,0.6,1.6,1.2,2.4,1.9c0.4,0.4,0.8,0.9,0.3,1.5c-0.5,0.6-1,0.3-1.5-0.1
				c-0.9-0.7-1.7-1.5-2.6-2.1c-3.4-1.9-7-2.4-10.8-1.5c-4.3,0.9-7.9,2.9-10.7,6.3c-2.5,2.9-4,6.3-5,10
				C539.5,144.4,539.1,147.8,539.1,150.7L539.1,150.7L539.1,150.7z"/>
		</g>
	</g>
</g>
</svg>
