<?xml version="1.0" encoding="UTF-8"?>
<svg id="Layer_3" data-name="Layer 3" xmlns="http://www.w3.org/2000/svg" viewBox="0 0 1196 352">
  <defs>
    <style>
      .cls-1, .cls-2 {
        fill: #fff;
      }

      .cls-2 {
        stroke: #3c5aa5;
        stroke-miterlimit: 10;
        stroke-width: 1.5px;
      }

      .cls-3 {
        fill: #d0222a;
      }
    </style>
  </defs>
  <g>
    <path class="cls-3" d="m543.96,66.51c2.71,2.42,4.82,5.25,6.48,8.47q.08.16.17.32c3.75,7.36,4.09,16.24,1.62,24.06-1.16,3.49-2.98,6.89-5.42,9.65-.13.14-.25.29-.38.44-.39.43-.78.86-1.17,1.29q-.19.2-.38.41c-5.45,5.71-13.45,8.51-21.22,8.76-5.65.11-11.16-1.13-16.12-3.82q-.16-.08-.32-.17c-2.43-1.29-4.45-2.96-6.43-4.84-.13-.12-.26-.24-.4-.36-5.27-4.97-8.15-12.53-8.45-19.68-.2-8.26,2.02-16.34,7.81-22.45.2-.23.4-.47.6-.7,9.91-11.26,28.94-11.98,43.62-1.38Zm-34.28,8.86c-2.35,2.68-3.81,5.81-4.57,9.28-.04.19-.08.38-.13.57-.96,5.33,0,11.39,3.11,15.9.38.51.77,1.01,1.17,1.5.11.14.23.28.35.42,1.99,2.35,4.7,3.98,7.61,4.93.11.04.22.07.34.11,3.42,1.06,7.51,1,10.91-.11.11-.04.23-.07.34-.11,4.46-1.51,7.9-4.72,10.04-8.87,1.47-3.05,2.15-6.35,2.13-9.72,0-.2,0-.41,0-.62-.07-5.34-2.08-10.5-5.91-14.26-3.75-3.52-8.54-4.76-13.58-4.62-4.55.24-8.69,2.34-11.82,5.6Z"/>
    <path class="cls-3" d="m477.12,63.4c1.33,1.26,2.41,2.62,3.41,4.15q.16.23.32.47c.07.13.13.26.2.39-.22.66-.45.74-1.03,1.11-.18.11-.36.23-.54.34-.19.12-.39.24-.59.36-.2.12-.4.25-.59.37-.4.25-.79.5-1.19.75-.73.46-1.45.93-2.18,1.39-.23.15-.46.3-.69.45-.4.26-.81.53-1.21.79-.17.11-.34.22-.52.34q-.22.14-.44.29t-.88.2q-.27-.37-.56-.86c-1.18-1.91-2.54-3.33-4.77-3.96-1.91-.39-3.8-.38-5.57.51-1.29.86-2.01,1.85-2.34,3.36-.22,1.6.09,3,.97,4.35,1.87,2.29,5.35,3.43,8.01,4.56q5.66,2.4,8.13,3.88c.16.1.32.19.49.29,1.18.71,2.23,1.47,3.25,2.4.14.12.29.24.44.36,3.39,2.87,5.04,6.84,5.4,11.19.34,4.71-.74,9.25-3.87,12.9-1.27,1.42-2.73,2.44-4.38,3.37-.16.09-.32.18-.48.28-5.95,3.23-13.95,3.17-20.32,1.34-5.87-1.8-10.44-5.54-13.56-10.8q-.25-.49-.25-.83c.12-.07.25-.14.37-.21.48-.27.96-.55,1.44-.82.22-.12.44-.25.65-.37,1.22-.7,2.45-1.4,3.67-2.11q.15-.09.31-.18c.49-.28.98-.57,1.47-.85.18-.1.35-.2.53-.31.15-.09.31-.18.46-.27.42-.23.85-.41,1.3-.58.06.08.12.16.18.24.27.36.54.72.81,1.08.09.12.18.25.28.37,2.07,2.76,4.63,4.72,8.08,5.39.16.03.32.06.48.1,2.85.4,5.96.06,8.34-1.65,1.14-.97,1.75-2.21,1.96-3.69.07-1.62-.51-3.05-1.57-4.25-2.4-2.42-6.03-3.57-9.11-4.87q-4.94-2.09-6.92-3.33c-.13-.08-.26-.16-.39-.24-1.07-.68-2.06-1.41-3-2.27-.08-.07-.17-.15-.25-.23-3.09-2.81-5.11-6.6-5.31-10.83-.15-5.32.69-9.59,4.45-13.59,6.95-6.68,20.05-6.71,27.11-.24Z"/>
    <path class="cls-3" d="m384.5,59.43h13.32q1.19,2.58,1.61,3.63c.05.12.1.24.15.36.1.26.21.51.31.77.28.7.57,1.41.85,2.11.06.15.12.29.18.44.63,1.56,1.27,3.12,1.91,4.67l.35.85c.23.57.47,1.13.7,1.7.52,1.26,1.04,2.53,1.56,3.8.29.7.58,1.4.86,2.11.12.28.23.56.35.84.06.14.11.28.17.42,1.9,4.63,3.81,9.26,5.71,13.9.36-.36.46-.58.65-1.04.06-.15.12-.29.18-.44.06-.16.13-.32.19-.48.07-.17.13-.34.2-.51.22-.56.45-1.13.67-1.69.16-.4.32-.8.47-1.19.38-.95.75-1.9,1.13-2.85.78-1.97,1.56-3.94,2.34-5.91.08-.2.16-.41.25-.62,1.52-3.81,3.06-7.61,4.62-11.41.78-1.9,1.55-3.81,2.31-5.73.2-.49.39-.99.59-1.48.12-.3.24-.59.36-.89q.39-.97.58-1.35h13.84c-.14.69-.28,1.16-.57,1.79-.08.19-.17.37-.25.56-.09.2-.19.41-.28.62-.1.22-.2.44-.3.66-.22.49-.44.97-.66,1.45-.38.83-.75,1.65-1.12,2.48-.55,1.22-1.11,2.45-1.66,3.67-.77,1.69-1.53,3.38-2.3,5.07-.34.75-.68,1.51-1.03,2.26-.14.3-.27.6-.41.91-3.56,7.86-7.12,15.72-10.68,23.58-.07.15-.14.3-.21.45-.14.3-.27.61-.41.91-.34.75-.68,1.51-1.02,2.26-.63,1.4-1.26,2.79-1.9,4.19-.29.65-.59,1.29-.88,1.94-.14.3-.28.61-.41.91-.97,2.13-1.93,4.27-2.89,6.4h-2.6c-.81-1.59-1.57-3.18-2.29-4.81-.17-.39-.35-.79-.52-1.19-.26-.58-.51-1.15-.77-1.73-.7-1.59-1.41-3.17-2.11-4.75-.07-.16-.15-.33-.22-.5-1.09-2.46-2.2-4.91-3.3-7.36-1.04-2.31-2.07-4.63-3.08-6.95-1.06-2.41-2.14-4.81-3.23-7.2-1.02-2.23-2.01-4.47-2.99-6.71-1.12-2.57-2.27-5.13-3.43-7.68-1.27-2.8-2.53-5.61-3.78-8.42-.21-.47-.42-.95-.64-1.42q-.46-1.02-.46-1.4Z"/>
    <path class="cls-1" d="m603.73,83.96h3.46c.37.97.74,1.95,1.11,2.92.12.33.25.66.38.99.18.48.36.95.54,1.43.06.15.11.3.17.45.05.14.1.28.16.42.05.12.09.24.14.37q.1.32.1.84h.35c.02-.1.04-.19.06-.29.2-.93.45-1.81.77-2.7.05-.13.09-.26.14-.39.14-.4.29-.81.43-1.21.1-.28.2-.55.29-.83.24-.67.48-1.34.72-2.01h3.46v11.92h-2.6c-.06-2.11-.11-4.22-.17-6.39q-.24.65-.49,1.31c-.15.42-.31.84-.47,1.25l-.32.87c-.15.42-.31.84-.46,1.25-.05.13-.1.26-.15.4q-.34.92-.54,1.31h-2.08c-.74-2.05-1.49-4.1-2.25-6.22-.06,2.05-.11,4.1-.17,6.22h-2.6v-11.92Z"/>
    <path class="cls-1" d="m665.51,83.96q2.6,0,3.18.51.2.34.38.72c.15.27.3.53.45.8q.12.22.23.44c.38.68.8,1.33,1.23,1.99.49.76.97,1.52,1.46,2.28.06-2.22.11-4.45.17-6.74h2.42v11.92q-2.6,0-3.29-.6c-.18-.27-.35-.55-.51-.83-.09-.15-.18-.29-.28-.44-.29-.46-.57-.93-.85-1.4-.2-.32-.39-.63-.59-.95-.48-.77-.95-1.55-1.41-2.33-.06,2.17-.11,4.33-.17,6.56h-2.42v-11.92Z"/>
    <path class="cls-1" d="m603.91,63.23h2.6c.66.7,1.01,1.19,1.45,2.01.22.38.44.75.65,1.13.22.39.44.78.67,1.18q.77,1.2,1.56,2.42c.06-2.22.12-4.45.17-6.74h2.42v11.92q-2.6,0-3.29-.6c-.18-.27-.35-.55-.51-.83-.09-.15-.18-.29-.28-.44-.29-.46-.57-.93-.85-1.4-.2-.32-.39-.63-.59-.95-.48-.77-.95-1.55-1.41-2.33-.06,2.17-.12,4.33-.17,6.56h-2.42v-11.92Z"/>
    <path class="cls-1" d="m591.28,104.69q1.45-.02,2.93-.03c.3,0,.6-.01.92-.01q3.02-.03,4.17.89c.09.11.18.23.28.35.1.11.19.23.29.34.73,1.1.71,2.2.59,3.48-.29,1.03-.86,1.64-1.73,2.24h-.35c.56,1.2,1.21,2.33,1.91,3.46q.51.83.51,1.21c-.98.21-1.99.4-2.94,0-.87-.85-1.39-1.99-1.89-3.08q-.19-.41-.53-.9c-.51-.06-1.03-.11-1.56-.17v4.15h-2.6v-11.92Zm2.6,2.42v3.11c.44.01.88.02,1.33.03q.2,0,.41.01c.78,0,1.27-.07,1.89-.56.37-.56.39-.66.32-1.3-.01-.13-.02-.27-.03-.4q-.1-.39-.37-.68c-.67-.33-1.3-.27-2.04-.25-.5.01-1,.02-1.51.03Z"/>
    <path class="cls-1" d="m690.08,63.23q1.54-.02,3.11-.04c.32,0,.64-.01.98-.02.26,0,.52,0,.78,0q.2,0,.4-.01c1.13,0,2.03.33,2.88,1.08q.12.15.24.3c.08.1.16.2.25.3.65.97.46,2.45.37,3.57-.34,1.01-.99,1.56-1.9,2.07.23.61.49,1.14.83,1.69.09.15.18.3.28.46.2.32.39.63.59.95.09.15.18.3.28.46q.13.21.26.42t.18.69q-2.6.23-3.32-.26c-.27-.42-.47-.83-.66-1.29-.16-.33-.32-.65-.49-.97-.11-.22-.22-.43-.32-.66q-.17-.36-.58-.8c-.51-.06-1.03-.11-1.56-.17v4.15h-2.6v-11.92Zm2.6,2.25v3.11q.7.03,1.42.05.22.01.44.02c.72.01,1.01-.02,1.61-.47.51-.7.45-1,.34-1.85-.3-.56-.43-.66-1.04-.86-.47-.01-.94-.02-1.42-.01-.45,0-.89,0-1.35.01Z"/>
    <path class="cls-1" d="m673.81,104.69q6.58,0,7.93.81c.9.95,1.12,1.76,1.16,3.08-.03,1.02-.1,1.88-.78,2.68-.42.37-.81.69-1.38.69.66,1.24,1.36,2.45,2.09,3.65q.5.82.5,1.01c-1.04.23-2.1.44-3.11,0-1.03-1.03-1.71-2.46-2.25-3.8v-.35h-1.56v4.15h-2.6v-11.92Zm2.6,2.42v3.11c.41,0,.82.01,1.24.02.13,0,.26,0,.39,0,.69,0,1.22-.04,1.83-.38.36-.55.4-.89.44-1.53-.16-.61-.46-.86-.96-1.23-.51-.1-1-.08-1.52-.05-.47.02-.93.04-1.42.05Z"/>
    <path class="cls-1" d="m659.08,84.77c1.5,1.63,1.68,3.62,1.62,5.75-.1,1.98-.61,3.34-2,4.73-1.59,1-3.45,1.02-5.27.73-1.13-.31-2.02-1.03-2.69-1.97-1.08-1.94-1.09-4.62-.58-6.72.44-1.44,1.2-2.42,2.53-3.17,2.06-.84,4.52-.44,6.39.65Zm-5.51,1.61c-.91,1.07-.9,2.07-.91,3.41,0,.15,0,.3-.01.45,0,1.26.16,2.25,1.04,3.21.67.42,1.17.58,1.96.53.8-.25,1.39-.54,1.9-1.21.41-.94.4-1.83.4-2.83,0-.16,0-.31,0-.48,0-1.03-.14-1.8-.58-2.74-1.16-1.03-2.47-1.06-3.81-.35Z"/>
    <path class="cls-1" d="m637.62,63c.15,0,.29,0,.45-.01,1.3,0,2.24.4,3.35,1.05,1.42,1.5,1.68,3.54,1.64,5.52-.12,1.69-.41,3.3-1.6,4.57-1.41,1.18-3.07,1.36-4.85,1.21-1.24-.24-2.23-.67-3.14-1.58-1.32-2.03-1.42-4.46-1.11-6.8.3-1.4.87-2.37,2-3.26,1.09-.59,2.04-.69,3.26-.69Zm-1.7,2.66c-.86,1.11-.9,1.96-.91,3.31,0,.16,0,.32,0,.48,0,1.21.12,2.22.92,3.19.76.59,1.68.55,2.6.44.77-.38,1.2-.78,1.56-1.55.22-.82.21-1.63.22-2.47,0-.14,0-.28.01-.43,0-.99-.15-1.72-.57-2.63-.65-.64-1.13-.85-2.04-.91-.7.01-1.17.16-1.76.56Z"/>
    <path class="cls-1" d="m584.59,105.36c1.23,1,1.71,2.25,1.93,3.79.2,2.11.11,4.27-1.13,6.08-.79.91-1.79,1.45-2.99,1.61-.41.02-.82.03-1.24.02-.14,0-.29,0-.44,0-1.05-.03-1.89-.16-2.77-.76-.16-.1-.31-.19-.48-.29-1.39-1.43-1.66-3.23-1.64-5.15,0-.14,0-.27,0-.41,0-1.75.36-3.13,1.52-4.46,1.89-1.83,5.09-1.61,7.25-.41Zm-5.43,2.09c-.96,1.47-.81,3.6-.47,5.26.24.85.57,1.32,1.3,1.8.88.31,1.51.27,2.4.01.81-.47,1.12-1.01,1.37-1.93.23-1.53.37-3.6-.45-4.97-.65-.63-1.12-.89-2.02-.92-.92.01-1.4.17-2.13.75Z"/>
    <path class="cls-1" d="m635.57,83.96h2.6v4.66h4.33v-4.66h2.6v11.92h-2.6v-5.01h-4.33v5.01h-2.6v-11.92Z"/>
    <path class="cls-1" d="m619.48,104.69h2.42v4.66h4.33v-4.66h2.6v11.92h-2.6v-5.01h-4.33v5.01h-2.42v-11.92Z"/>
    <path class="cls-1" d="m634.19,104.69h8.13v2.42h-5.54v2.25h4.85v2.25h-4.85v2.76h5.71v2.25h-8.3v-11.92Z"/>
    <path class="cls-1" d="m676.75,63.23h8.13v2.25h-5.54v2.25h4.84v2.42h-4.84v2.76h5.71v2.25h-8.31v-11.92Z"/>
    <path class="cls-1" d="m592.49,63.06h3.12c.3.81.6,1.59.86,2.41.06.19.12.38.19.58q.1.3.2.61t.21.64c.14.44.29.89.43,1.33.18.57.36,1.13.55,1.7.18.54.35,1.09.53,1.63.07.2.13.4.2.61q.09.28.18.57c.05.17.11.33.16.5q.14.48.31,1.52h-2.77q-.52-1.21-.86-2.76h-3.63c-.06.4-.11.8-.17,1.21-.15.53-.34,1.04-.52,1.55h-2.77c.35-1.32.74-2.62,1.16-3.92.06-.19.12-.37.18-.56.19-.59.38-1.17.57-1.76.13-.39.25-.79.38-1.18.5-1.56,1-3.12,1.52-4.67Zm1.38,3.63c-.17.51-.35,1.01-.52,1.52q-.07.22-.15.44c-.05.14-.09.28-.14.42q-.07.19-.13.39-.12.37-.1.86h2.42c-.14-.48-.27-.95-.41-1.43-.04-.13-.08-.27-.12-.41-.04-.13-.08-.26-.11-.39q-.05-.18-.1-.36c-.12-.37-.28-.7-.46-1.04h-.17Z"/>
    <path class="cls-1" d="m690.42,104.69h3.29c.47,1.48.95,2.96,1.42,4.43.22.69.44,1.37.66,2.06.21.66.42,1.32.64,1.99.08.25.16.51.24.76.11.35.23.71.34,1.06.07.2.13.4.2.61q.14.5.14,1.01h-2.77c-.08-.21-.16-.41-.24-.63-.04-.12-.09-.23-.13-.35-.17-.48-.33-.96-.49-1.44h-3.46c-.11.37-.22.73-.34,1.11q-.33,1.11-.53,1.31c-.47.01-.93.02-1.39.01-.13,0-.26,0-.4,0-.33,0-.65,0-.98,0,1.26-3.98,2.52-7.95,3.81-11.92Zm1.38,3.63c-.17.51-.35,1.02-.52,1.53q-.07.22-.15.44c-.05.14-.09.28-.14.42q-.07.19-.13.39t-.1.67h2.42c-.31-1.17-.64-2.32-1.04-3.46h-.35Z"/>
    <path class="cls-1" d="m647.68,63.23h2.6c0,.25,0,.5,0,.76,0,.94.02,1.87.04,2.81,0,.4.01.81.01,1.21,0,.58.01,1.16.02,1.75,0,.18,0,.36,0,.55q.01,1.22.61,2.25c.77.51,1.52.46,2.42.35.63-.36.81-.53,1.04-1.21.02-.28.03-.56.04-.84,0-.17,0-.34,0-.51,0-.18,0-.36,0-.55,0-.19,0-.37.01-.57.01-.6.02-1.2.03-1.8,0-.41.01-.81.02-1.22.02-.99.04-1.99.05-2.98h2.6c.01,1.17.02,2.35.03,3.52,0,.4,0,.8.01,1.2,0,.58,0,1.15.01,1.73,0,.18,0,.35,0,.53,0,1.33-.14,2.7-.96,3.8-1.27,1.18-2.64,1.37-4.33,1.34-1.4-.07-2.42-.41-3.43-1.41-.7-.92-.89-1.83-.89-2.96v-.52c0-.18,0-.37,0-.56,0-.19,0-.38,0-.58,0-.61,0-1.21,0-1.82,0-.41,0-.82,0-1.24,0-1.01,0-2.02,0-3.03Z"/>
    <path class="cls-1" d="m656.34,105.21c-.05.28-.11.55-.16.83-.03.15-.06.31-.09.47q-.09.43-.27.95c-.11-.03-.21-.05-.32-.08-1.02-.22-2.01-.31-3.05-.31-.12,0-.24,0-.36,0-.64,0-.91.03-1.45.39q-.04.53,0,1.04c1.01.57,2.03.91,3.15,1.22,1.02.3,1.8.69,2.44,1.56.52,1.01.59,2.11.3,3.21-.4,1.03-1.2,1.71-2.18,2.16-.84.2-1.65.2-2.51.2-.18,0-.35,0-.54,0-1.32-.02-2.52-.16-3.78-.57.02-.24.05-.49.08-.73.01-.14.03-.27.04-.41.05-.38.13-.73.23-1.1.15.03.29.05.44.08q2.73.54,5.27-.08.19-.5.17-1.04c-.36-.47-.72-.62-1.28-.8-.15-.05-.3-.1-.45-.15-.31-.1-.62-.19-.93-.29-1.29-.42-2.43-.99-3.14-2.18-.45-1.04-.37-2.04-.09-3.11.59-.95,1.38-1.55,2.47-1.84,1.83-.3,4.31-.26,6.01.58Z"/>
    <path class="cls-1" d="m585.05,84.31c-.02.24-.04.49-.07.73-.01.14-.02.27-.04.41-.07.42-.21.73-.42,1.1-.18-.03-.37-.05-.56-.08-.25-.03-.49-.06-.74-.1-.12-.02-.24-.03-.36-.05q-1.74-.27-3.36.22-.16.53-.17,1.04c.81.6,1.54.88,2.51,1.12,1.47.37,2.46.93,3.37,2.16.34,1.01.27,2.06-.01,3.08-.7,1.15-1.64,1.76-2.93,2.11-.52.07-1.04.07-1.57.06-.14,0-.28,0-.43,0-1.32-.03-2.62-.18-3.89-.58-.24-.47-.12-.72-.01-1.23q.05-.24.1-.48c.03-.12.05-.24.08-.37.68-.18,1.16-.15,1.84-.01,1.42.25,2.78.48,4.04-.33q.09-.49,0-1.04c-.75-.61-1.49-.86-2.4-1.1-1.36-.4-2.26-.9-3.21-1.97-.49-1.02-.57-2.02-.26-3.12.34-.87.86-1.3,1.68-1.75,2.06-.88,4.71-.39,6.79.17Z"/>
    <path class="cls-1" d="m621.9,83.96c.99-.02,1.99-.04,3.01-.05q.46-.01.94-.02c1.51-.02,2.76,0,4.02.94.71.7.99,1.45,1.1,2.44.02,1.45-.11,2.6-1.15,3.67-1.27.76-2.19.87-3.66.83q-.9-.02-1.83-.03v4.15h-2.42v-11.92Zm2.42,2.25v3.28c.44.01.88.02,1.33.03q.21,0,.41.01c.79,0,1.27-.08,1.89-.56.43-.65.43-.96.35-1.73-.37-.59-.55-.82-1.21-1.04-.47-.01-.94-.02-1.42-.01-.45,0-.89,0-1.35.01Z"/>
    <path class="cls-1" d="m661.7,63.23h2.77q.58,1.36.77,1.98c.04.14.08.28.12.42.04.14.09.29.13.44.05.15.09.3.14.46.14.48.29.96.43,1.44.1.33.2.65.29.98.24.8.48,1.6.71,2.4.71-2.21,1.4-4.42,2.04-6.65.05-.17.1-.33.15-.51.04-.15.08-.3.13-.45q.11-.34.28-.51c.44-.01.87-.02,1.31-.01q.18,0,.37,0c.31,0,.61,0,.91,0-.1.8-.25,1.53-.49,2.29q-.1.31-.2.63c-.07.22-.14.44-.21.66-.07.23-.15.46-.22.69-.15.48-.31.96-.46,1.44-.2.61-.39,1.23-.59,1.84-.19.59-.37,1.17-.56,1.76-.04.11-.07.22-.11.34-.1.32-.2.63-.3.95-.06.18-.11.36-.17.54q-.14.43-.32.77h-3.11c-.54-1.31-1.01-2.64-1.44-3.99-.07-.21-.14-.42-.21-.64-.14-.44-.29-.89-.43-1.33-.18-.57-.36-1.13-.55-1.7-.18-.54-.35-1.09-.53-1.63-.07-.2-.13-.41-.2-.62-.06-.19-.12-.38-.18-.57q-.08-.25-.16-.5-.11-.42-.11-.94Z"/>
    <path class="cls-1" d="m575.53,63.23h2.94c.8,2.68,1.6,5.36,2.42,8.12q.67-2,1.28-4.01c.03-.11.07-.23.1-.35.1-.35.2-.71.3-1.06.13-.48.27-.95.41-1.43q.09-.31.18-.63.15-.47.32-.64c.47-.01.93-.02,1.4-.01.13,0,.26,0,.4,0,.33,0,.65,0,.98,0-1.22,3.99-2.46,7.97-3.81,11.92h-3.11c-.31-.72-.59-1.37-.82-2.11-.05-.17-.11-.33-.16-.5-.06-.18-.11-.35-.17-.53-.06-.19-.12-.37-.18-.56-.12-.39-.25-.78-.38-1.17-.19-.59-.38-1.18-.57-1.78-.12-.38-.25-.76-.37-1.14-.06-.17-.11-.35-.17-.53-.38-1.19-.69-2.38-.99-3.59Z"/>
    <path class="cls-1" d="m614.29,105.04c.18.66.16,1.06-.08,1.69q-.07.21-.15.41c-.04.1-.08.2-.12.31-.11-.03-.22-.05-.33-.08-1.43-.3-3.3-.69-4.66-.04-.77.58-1.11,1.26-1.24,2.19-.09,1.35-.16,2.76.52,3.97.96.93,1.68.9,2.97.89.93-.04,1.83-.19,2.74-.38.33.8.56,1.37.52,2.25-1.33.47-2.6.58-4,.59q-.24,0-.48.01c-1.28,0-2.5-.24-3.5-1.09-1.45-1.47-1.71-3.42-1.72-5.4.03-1.65.35-3.31,1.46-4.59,2.21-1.99,5.43-1.32,8.06-.76Z"/>
    <path class="cls-1" d="m624.12,62.98c.17,0,.33,0,.5,0,1.3.03,2.44.22,3.68.59-.17.74-.34,1.48-.52,2.25q-1.31-.16-1.86-.27c-1.09-.15-2.18-.21-3.24.11-.8.62-1.14,1.41-1.3,2.41-.1,1.39-.12,2.92.73,4.09.57.55,1.17.71,1.93.76.73-.02,1.45-.15,2.17-.28q.54-.08,1.58-.08c.17.68.34,1.37.52,2.07-2.32.74-4.96,1.17-7.29.19-1.21-.64-1.79-1.72-2.25-2.97-.24-.89-.2-1.8-.2-2.72,0-.18,0-.36,0-.54,0-1.5.15-2.98,1.2-4.14.1-.12.21-.24.32-.37,1.23-.94,2.54-1.15,4.05-1.11Z"/>
    <path class="cls-1" d="m589.37,83.96h2.94c.69,1.54,1.37,3.08,2.08,4.66.43-.57.67-.99.95-1.63.08-.18.15-.35.23-.54.08-.18.16-.37.24-.56q.12-.28.24-.56c.2-.46.39-.92.59-1.38h2.94c-.15.32-.3.64-.45.96-.14.29-.27.58-.41.87-.39.83-.8,1.64-1.26,2.44-1.46,2.59-1.81,4.7-1.69,7.65h-2.6c.03-.23.06-.46.09-.69.26-3.73-1.6-6.68-3.35-9.85-.07-.13-.14-.26-.22-.4-.06-.12-.13-.23-.19-.35q-.14-.29-.14-.63Z"/>
    <path class="cls-1" d="m679,83.96h2.94c.68,1.54,1.37,3.08,2.08,4.66.32-.48.55-.95.8-1.48.08-.19.17-.37.26-.56q.13-.29.27-.59t.27-.59c.22-.48.44-.97.66-1.45h2.77q-.39,1.16-.68,1.71-.1.18-.2.37c-.07.13-.14.26-.21.39q-2.4,4.47-2.71,9.45h-2.42c.03-.22.06-.43.09-.65.27-3.65-1.64-6.6-3.35-9.69q-.11-.2-.22-.4-.1-.17-.19-.35-.14-.31-.14-.83Z"/>
    <path class="cls-1" d="m660.66,104.69h8.83v2.42h-3.12v9.5h-2.6v-9.5h-3.11v-2.42Z"/>
  </g>
  <path class="cls-2" d="m859.06,330.29v-34.08h6.62v34.08h-6.62Zm20.36-21.84v21.84h-6.62v-34.08h5.14l17.76,22.37v-22.32h6.62v34.03h-5.38s-17.52-21.84-17.52-21.84Zm39.45,4.56c0-2.08.37-4.13,1.1-6.14.75-2.02,1.87-3.87,3.31-5.47,1.44-1.6,3.2-2.9,5.28-3.89s4.45-1.49,7.1-1.49c3.14,0,5.84.69,8.11,2.06,2.3,1.38,4.02,3.17,5.14,5.38l-5.09,3.5c-.45-.96-.99-1.76-1.63-2.4-.6-.64-1.29-1.17-2.06-1.58-.73-.38-1.5-.65-2.3-.82-.8-.19-1.58-.29-2.35-.29-1.66,0-3.12.34-4.37,1.01-1.2.66-2.24,1.56-3.07,2.64-.8,1.06-1.41,2.27-1.82,3.65-.41,1.3-.62,2.66-.62,4.03,0,1.5.24,2.96.72,4.37.48,1.38,1.15,2.59,2.02,3.65.88,1.04,1.96,1.91,3.17,2.54,1.25.64,2.61.96,4.08.96.77,0,1.57-.1,2.4-.29.82-.19,1.62-.5,2.35-.91.78-.42,1.49-.96,2.11-1.58.66-.7,1.18-1.51,1.54-2.4l5.42,3.12c-.55,1.28-1.35,2.44-2.35,3.41-1.01.98-2.16,1.8-3.41,2.45-1.27.68-2.63,1.2-4.03,1.54-1.44.35-2.85.53-4.22.53-2.43,0-4.66-.51-6.67-1.54-1.98-.99-3.75-2.34-5.23-3.98-1.44-1.67-2.59-3.57-3.41-5.62-.8-2.11-1.2-4.26-1.2-6.43h0Zm49.19,17.52c-2.5,0-4.77-.48-6.82-1.44-1.97-.96-3.75-2.28-5.23-3.89-1.44-1.64-2.58-3.53-3.36-5.57-.8-2.08-1.2-4.21-1.2-6.38s.42-4.45,1.25-6.53c.83-2.03,2.02-3.9,3.5-5.52,1.51-1.6,3.32-2.89,5.33-3.79,2.05-.96,4.27-1.44,6.67-1.44s4.7.51,6.72,1.54c2.05.99,3.79,2.3,5.23,3.94,1.44,1.64,2.58,3.53,3.36,5.57.8,2.08,1.2,4.19,1.2,6.34,0,2.27-.42,4.45-1.25,6.53-.81,2.02-1.98,3.87-3.46,5.47-1.47,1.57-3.23,2.83-5.28,3.79-2.05.93-4.27,1.39-6.67,1.39Zm-9.89-17.28c0,1.47.22,2.9.67,4.27s1.09,2.59,1.92,3.65c.86,1.05,1.92,1.92,3.12,2.54,1.25.64,2.66.96,4.22.96s3.01-.32,4.22-.96c1.22-.65,2.28-1.55,3.12-2.64.86-1.09,1.51-2.32,1.92-3.65.45-1.38.67-2.77.67-4.18s-.24-2.9-.72-4.27c-.45-1.38-1.1-2.59-1.97-3.65-.84-1.06-1.9-1.91-3.12-2.5-1.22-.64-2.59-.96-4.13-.96s-3.02.34-4.27,1.01c-1.22.62-2.29,1.5-3.12,2.59-.83,1.06-1.47,2.27-1.92,3.65-.41,1.34-.63,2.73-.62,4.13h0Zm38.25-4.8v21.84h-6.62v-34.08h5.14l17.76,22.37v-22.32h6.62v34.03h-5.38l-17.52-21.84h0Zm27.92,4.56c0-2.08.37-4.13,1.1-6.14.75-2.02,1.87-3.87,3.31-5.47,1.44-1.6,3.2-2.9,5.28-3.89s4.45-1.49,7.1-1.49c3.14,0,5.84.69,8.11,2.06,2.3,1.38,4.02,3.17,5.14,5.38l-5.09,3.5c-.45-.96-.99-1.76-1.63-2.4-.6-.64-1.29-1.17-2.06-1.58-.73-.38-1.5-.65-2.3-.82-.8-.19-1.58-.29-2.35-.29-1.66,0-3.12.34-4.37,1.01-1.2.66-2.24,1.56-3.07,2.64-.8,1.06-1.41,2.27-1.82,3.65-.41,1.3-.62,2.66-.62,4.03,0,1.5.24,2.96.72,4.37.48,1.38,1.15,2.59,2.02,3.65.88,1.04,1.96,1.91,3.17,2.54,1.25.64,2.61.96,4.08.96.77,0,1.57-.1,2.4-.29.82-.19,1.62-.5,2.35-.91.78-.42,1.49-.96,2.11-1.58.66-.7,1.18-1.51,1.54-2.4l5.42,3.12c-.55,1.28-1.35,2.44-2.35,3.41-1.01.98-2.16,1.8-3.41,2.45-1.27.68-2.63,1.2-4.03,1.54-1.44.35-2.85.53-4.22.53-2.43,0-4.66-.51-6.67-1.54-1.98-.99-3.75-2.34-5.23-3.98-1.44-1.67-2.59-3.57-3.41-5.62-.8-2.11-1.2-4.26-1.2-6.43Zm58.63,11.47v5.81h-23.67v-34.08h23.23v5.81h-16.61v8.21h14.35v5.38h-14.35v8.88h17.04Zm5.16,5.81v-34.08h15.07c1.57,0,3.01.34,4.32,1.01,1.32.62,2.49,1.5,3.46,2.59.97,1.07,1.73,2.3,2.26,3.65.54,1.34.82,2.7.82,4.08,0,2.21-.56,4.22-1.68,6.05-1.09,1.79-2.58,3.09-4.46,3.89l7.78,12.82h-7.44l-6.96-11.42h-6.53v11.42h-6.62,0Zm6.62-17.23h8.3c.61,0,1.17-.14,1.68-.43.54-.28,1.01-.68,1.39-1.15.4-.54.71-1.14.91-1.78.23-.7.34-1.43.34-2.16,0-.8-.13-1.54-.38-2.21-.24-.64-.59-1.23-1.06-1.73-.4-.5-.91-.89-1.49-1.15-.52-.28-1.09-.43-1.68-.43h-8.02v11.04h0Zm50.27-11.04h-10.9v28.27h-6.58v-28.27h-10.9v-5.81h28.37v5.81h0Z"/>
  <g id="Layer_1-2" data-name="Layer 1-2">
    <g>
      <path class="cls-1" d="m.1,134.91c.39-1.07.87-1.34,2.09-.94,1.1.37,2.15.29,3.27.08,1.05-.19,2.15-.13,3.22-.1,2.41.08,4.89.58,7.24.23,3.48-.53,6.92-.23,10.37-.29,6.84-.13,13.69-.24,20.53-.32,3.99-.05,7.96-.1,11.94-.02,1.67.03,3.34.39,5.01.63,2.5.36,5.04.58,7.49,1.13,2.19.49,4.33,1.26,6.42,2.04,5.27,1.96,9.85,4.97,13.56,9.19,2.19,2.48,3.99,5.27,5.14,8.41.5,1.36,1.07,2.71,1.41,4.1.42,1.69.81,3.42.92,5.15.31,4.78.39,9.58-.63,14.31-.76,3.53-1.91,6.93-3.61,10.16-2.41,4.59-5.98,8.13-10.01,11.24-2.25,1.73-4.84,2.88-7.57,3.74-1.12.36-1.39,1.6-.63,2.66.53.75.99,1.59,1.41,2.41,1.26,2.41,2.5,4.84,3.73,7.26.91,1.77,1.78,3.55,2.69,5.31.63,1.26,1.28,2.53,1.91,3.78,1.51,2.93,2.98,5.88,4.5,8.8,1.54,2.95,3.09,5.9,4.7,8.83,1.22,2.22,2.43,4.42,3.76,6.56,1.05,1.7,2.33,3.22,4.15,4.2.21.11.5.21.57.41.23.57.52,1.17.49,1.75-.05.7-.75.78-1.33.79-3.43.05-6.87.11-10.3.15-4.08.03-8.17,0-12.23.03-3.71.02-7.42.08-11.13.08-1.07,0-2.15-.13-3.22-.23-.66-.06-1.39-.03-1.51-.97-.1-.87.32-1.52,1.18-1.9.81-.37,1.69-.71,2.37-1.26,1.12-.89,1.23-2.12.62-3.39-1.23-2.54-2.43-5.1-3.73-7.63-2.79-5.43-5.62-10.82-8.46-16.23-1.6-3.08-3.24-6.14-4.84-9.22-.65-1.23-1.38-1.57-2.59-1.49-2.28.15-4.57.26-6.85.24-1.93,0-2.3.32-2.27,2.25.05,3.24.02,6.48.02,9.72,0,6.51-.02,13.03-.03,19.54v1c.08,2.58.92,3.71,3.35,4.55,1.56.53,1.88.99,1.99,2.62.05.78.24,1.54.21,2.32-.06,1.78-.16,3.56-.39,5.31-.13.97-.75,1.3-1.98,1.31-5.64.03-11.28.05-16.92.05s-11.62,0-17.42-.03c-.39,0-.94.03-1.15-.19-.31-.36-.57-.94-.52-1.39.06-.65.68-.86,1.31-.86,2.15,0,4.33-.06,6.48-.05,8.64.1,17.27.21,25.91.32.41,0,.83,0,1.22-.08.76-.18,1.26-.63,1.25-1.49-.02-1.46-.03-2.9-.05-4.36,0-.92-.44-1.57-1.25-2.06-.86-.52-1.78-1-2.48-1.7-1.25-1.23-1.54-2.85-1.54-4.57-.03-7.45-.1-14.91-.15-22.36,0-3.11-.02-6.21.03-9.32.03-1.9.28-2.2,2.15-2.32,2.35-.15,4.71-.1,7.08-.15.79-.02,1.75.19,2.14-.75.57-1.36-1.2-3.01-2.33-3.4-.94-.34-1.96-.36-2.97-.37-2.62-.05-5.23-.08-7.86-.13-.63,0-1.28-.02-1.88.16-1.26.37-1.69,1.47-1.73,2.69-.16,4.07.16,8.25.19,12.33.05,8.17.1,16.32.15,24.48,0,.31.02.6.03.91.16,2.35,1.6,4.15,3.84,4.91.44.15.97.36,1.18.7.28.47.45,1.17.31,1.65-.11.34-.83.68-1.28.7-3.6.13-7.21.24-10.82.24-6.01,0-12.01-.11-18.02-.15-2.12,0-4.25.11-6.37.21-.87.05-1.22-.34-1.3-1.15-.16-1.52-.03-2.01,1.47-2.28,2.69-.5,3.76-2.93,3.74-5.18-.05-4.34-.18-8.7-.19-13.04-.05-11.5-.06-23.01-.1-34.51-.02-8.07-.1-16.12-.05-24.19.05-9.17.19-18.34.31-27.53.02-1.65.18-3.31.13-4.94-.03-1.26-.15-2.56-.52-3.76-.52-1.72-1.99-2.54-3.63-2.87-.84-.18-1.34-.42-1.44-1.3v-1.22l.1.02Zm45.97,23.51h-11.63c-1.1,0-1.47.32-1.54,1.43-.05,1.1.03,2.22.02,3.34-.05,5.93-.1,11.88-.15,17.81,0,.79.23,1.31.62,2.03.13.23.28.47.5.6.21.13.47.15.73.15.94,0,2.92.24,3.05-1.02.1-.91.16-1.81.16-2.72.03-4.89,0-9.79.05-14.66.02-1.96.45-2.35,2.43-2.35,4.15,0,8.3.02,12.44.05,2.56.02,5.14.03,7.7.13,2.01.08,3.94.49,5.64,1.69.42.31.83.66.49,1.15-.23.32-.75.55-1.15.58-.36.03-.73-.29-1.12-.41-1.18-.34-2.38-.92-3.56-.94-6.3-.11-12.62-.08-18.92-.11-1.38,0-1.77.28-1.78,1.69-.03,4.86-.05,9.71-.06,14.57,0,.66,0,1.69.53,2.15.37.36.96.37,1.47.36,4.41-.02,8.81-.03,13.24-.02,3.76,0,7.37-.76,10.68-2.53,1.7-.91,3.11-2.25,4.03-4,1.25-2.37,1.59-4.96,1.43-7.55-.1-1.56-.49-3.18-1.15-4.57-1.51-3.18-4.28-5.01-7.6-5.87-3-.78-6.09-1.09-9.22-.99-2.43.06-4.86,0-7.29.05l-.02-.02Z"/>
      <path class="cls-1" d="m1084,238.55c-.06.87-.18,1.73-.19,2.61-.03,7.83-.03,15.65-.05,23.48,0,2.24-.28,2.37-2.54,2.3-3.06-.08-6.14-.03-9.2.06-1.04.03-1.67-.26-2.11-1.15-.19-.39-.45-.75-.7-1.12-.73-1.1-1.72-1.59-3.08-1.57-9.92.05-19.83.06-29.76.08-9.92,0-19.85.02-29.76,0-.49,0-1.13-.16-1.39-.49-.58-.75.06-1.83,1.05-1.86.97-.03,1.96.1,2.93.1,7.36,0,14.71,0,22.07-.05,8.51-.05,17-.15,25.5-.18,3,0,5.99.06,8.99.23,2.03.11,3.79.83,4.93,2.71.53.89,1.47,1.31,2.5,1.33,2.41.03,4.84.19,7.24-.44.66-.18.96-.44.96-1.15.03-5.8.13-11.6.15-17.4,0-3-.11-5.99-.15-9.01,0-.34.08-.87.29-.99.52-.28,1.12-.37,1.7-.47.1,0,.28.32.36.52.11.28.18.57.26.86v1.62l.02-.02Z"/>
      <path class="cls-1" d="m554.9,150.96c3.31.32,6.63.7,9.93.96,3.11.26,6.04,1.31,9.04,2.04.97.24,1.88.7,2.8,1.1,4.5,2.01,8.86,4.33,12.54,7.65,2.41,2.17,4.59,4.63,6.77,7.06,2.24,2.5,3.9,5.4,5.38,8.39,2.15,4.41,3.66,9.01,4.65,13.84.71,3.48.97,7,1.3,10.5.16,1.73.03,3.5-.05,5.25-.19,4.73-.83,9.41-2.09,13.98-1,3.68-2.4,7.21-4.23,10.58-1.88,3.45-4,6.72-6.63,9.64-2.62,2.9-5.44,5.57-8.65,7.87-2.98,2.14-6.16,3.87-9.56,5.14-2.66.99-5.51,1.49-8.3,2.14-1.6.37-3.22.71-4.84.94-1.49.21-3.03.36-4.54.31-2.72-.08-5.48-.15-8.17-.57-3.01-.47-6.01-1.2-8.94-2.06-5.67-1.67-10.66-4.65-15.2-8.39-4.67-3.86-8.44-8.44-11.36-13.8-2.33-4.29-4.08-8.77-5.28-13.5-2.33-9.12-2.4-18.28-.7-27.48,1.07-5.78,3.08-11.23,5.88-16.4,3.11-5.72,7.29-10.52,12.3-14.6,3.11-2.54,6.63-4.47,10.34-6.09,2.48-1.09,4.96-2.09,7.66-2.5,1.69-.26,3.37-.6,5.06-.91.16-.03.37,0,.49-.1,1.31-1.09,2.85-.78,4.36-.7v-.31h.03Zm-22.97,53.73c.1,0,.21,0,.31.02-.32,3.47.18,6.87.89,10.24.26,1.25.6,2.5,1.07,3.66.57,1.43,1.3,2.8,1.94,4.2,1.59,3.37,3.82,6.17,6.66,8.62,2.93,2.53,6.32,4.16,9.98,4.83,3.03.55,6.3.49,9.35,0,3.66-.6,6.95-2.32,9.85-4.83,2.69-2.33,4.93-4.94,6.66-8.04,2.07-3.71,3.22-7.73,3.84-11.88.78-5.27.7-10.55-.47-15.78-.86-3.84-1.99-7.55-4.21-10.86-2.04-3.05-4.26-5.88-7.39-7.91-3.47-2.25-7.24-3.65-11.34-3.94-4.78-.36-9.2.89-13.25,3.42-2.35,1.46-4.6,3.01-6.37,5.23-3.19,4-5.3,8.52-6.29,13.51-.62,3.13-.83,6.34-1.22,9.49h-.02Z"/>
      <path class="cls-1" d="m1034.78,153.14h33.62c1.9,0,3.45-.73,4.62-2.25.49-.65,1-1.28,1.59-1.83.62-.6,1.26-.47,1.6.32.21.49.29,1.04.29,1.57.06,7.58.1,15.18.16,22.76,0,1.62.1,3.24.15,4.84.03.94-.29,1.38-1.12,1.51-.91.13-1.56-.16-1.65-1.05-.21-1.8-1.26-2.93-2.71-3.78-1.41-.81-2.93-.99-4.57-.96-4.05.06-8.1-.1-12.14-.1-3.61,0-7.23.1-10.82.13-2.15,0-4.31-.08-6.48-.06-2.69,0-5.4.08-8.08.13-1.36.03-1.98.62-1.96,2.01.02,2.77.11,5.52.13,8.3,0,1.72-.03,3.43-.06,5.15,0,.34,0,.68.02,1,.16,1.54.7,2.04,2.24,2.09,2.74.1,2.97-.15,3-2.9.03-3.03,0-6.08.1-9.11.06-1.75.5-2.15,2.22-2.17,8.41-.05,16.8-.06,25.21-.06,1.56,0,3.11.08,4.65.1,2.69.03,4.73,1.22,5.78,3.68.86,1.98,2.14,2.62,4.21,2.32,1.28-.19,2.62,0,3.94-.02.7-.02,1.43-.06,2.09-.26.32-.1.66-.58.73-.94.13-.68.06-1.41.06-2.12-.06-6.71-.15-13.43-.21-20.14,0-1.41,0-2.84-.05-4.25-.03-1.44-.05-1.44,1.41-1.49.96-.03,1.04.06,1.05,1.46v13.56c0,4.86,0,9.72-.03,14.58,0,1.23-.03,1.28-1.25,1.3-3.55.03-7.08.03-10.63,0-1.26,0-1.73-.42-2.14-1.62-.16-.45-.29-.91-.47-1.33-.78-1.83-2.11-2.66-4.12-2.66-9.48,0-18.97-.02-28.45-.05-1.73,0-1.98.28-1.94,1.99.03,2.33-.1,4.65-.02,6.98.11,3.39.15,2.84,3,2.82,4.93-.02,9.85.08,14.78.19,1.52.03,2.9-.29,3.97-1.39.49-.49.84-1.1,1.2-1.7.23-.37.28-.84.5-1.22.34-.57.86-.89,1.54-.65.63.23.96.68.94,1.39-.06,8.02-.11,16.06-.15,24.08,0,1.2.16,2.41.32,3.61.21,1.6-.32,2.24-1.8,2.09-.73-.06-1.02-.55-1.25-1.15-.87-2.41-2.45-3.61-4.99-3.63-7.11-.05-14.24-.03-21.35-.05-.94,0-1.9.02-2.84.06-.65.03-1.07.39-1.17,1.05-.06.47-.18.94-.18,1.39,0,5.3.03,10.6.02,15.88,0,1.12.26,2.03,1.38,2.45,1.23.47,2.46.28,3.43-.55.39-.32.47-1.15.47-1.75.03-3.13,0-6.27,0-9.4,0-.91.08-1.81.16-2.72.1-1.28.39-1.59,1.64-1.75.53-.06,1.07-.13,1.62-.13,4.52.02,9.04.05,13.56.08,2.3,0,4.07.94,5.09,3.05.75,1.54,1.88,2.01,3.53,1.91,1.78-.11,3.58-.02,5.36-.02s2.38-.81,2.37-2.53c-.06-4.86-.1-9.72-.06-14.57.02-3.43.32-6.89-.37-10.29-.19-.97.42-1.52,1-2.07.13-.13.7-.08.78.05.31.52.7,1.1.73,1.69.08,2.22.03,4.46.03,6.68,0,5.98,0,11.94-.05,17.92,0,1.12-.08,2.22-.18,3.34-.08.87-.55,1.43-1.52,1.44-3.71.03-7.42.08-11.13.11-.75,0-1.18-.42-1.41-1.09-.11-.32-.19-.65-.31-.96-.78-2.12-2.25-2.98-4.52-2.93-4.05.1-8.1,0-12.15-.02-1.64,0-2.01.39-2.03,2.03,0,3.37-.03,6.74-.1,10.11-.03,2.12.47,2.54,2.62,2.51,5.09-.08,10.19-.08,15.29-.08s10.32.03,15.49.03c3.22,0,4.97-1.31,5.95-4.39.1-.31.23-.71.47-.86.42-.26,1-.58,1.39-.45s.81.73.86,1.18c.1.89-.08,1.81-.08,2.72-.03,7.96-.06,15.93-.08,23.88,0,.57.21,1.17.08,1.7-.11.53-.42,1.2-.84,1.44-.6.34-1.33.11-1.8-.5-.31-.41-.62-.81-.89-1.23-.65-.99-1.52-1.62-2.74-1.69-2.82-.16-5.65-.44-8.47-.45-9.51-.08-19.04-.13-28.55-.06-10.09.06-20.17.26-30.25.39-.87,0-1.75-.02-2.62-.08-.76-.05-1.39-.39-1.65-1.13-.24-.71.21-1.22.7-1.67.13-.11.24-.24.39-.32,2.38-1.25,2.98-3.39,2.98-5.87,0-5.12.08-10.26.1-15.38v-56.27c0-4.96-.08-9.92-.1-14.87,0-2.38-.83-4.28-3.01-5.43-.21-.11-.47-.24-.55-.42-.21-.5-.57-1.12-.42-1.52.15-.39.83-.78,1.31-.83,1.04-.1,2.09.06,3.13.06h31.5v.06h-.03Z"/>
      <path class="cls-1" d="m630.5,192.86c0-10.19-.03-20.38.02-30.56,0-2.98-.97-5.3-3.71-6.72-.66-.34-.94-.97-.78-1.72.19-.89.94-.89,1.6-.89,3.4,0,6.82.06,10.22.05,6.24,0,12.49-.05,18.73-.08.63,0,1.3-.03,1.91.11.39.1.87.44,1.02.79.11.29-.1.86-.36,1.12-.65.66-1.47,1.17-2.11,1.83-1.07,1.12-1.56,2.53-1.56,4.07,0,5.12.1,10.26.1,15.38,0,4.55-.06,9.11-.06,13.66,0,8.51.06,17,.08,25.5,0,1.22.03,2.43-.1,3.65-.28,2.56,0,5.06.76,7.49,1.07,3.4,3.08,6.11,6.32,7.74,1.56.78,3.19,1.39,4.8,2.06.18.08.39.1.6.1,3.24,0,6.5.26,9.71-.05,2.41-.23,4.71-1.18,6.82-2.61,3.84-2.61,5.7-6.25,6.14-10.76.05-.44.21-.84.28-1.28.08-.53.29-1.15.11-1.59-.86-1.98-.31-4-.29-5.99.03-3.63.34-7.27.29-10.9-.03-2.64-.5-5.28-.7-7.92-.13-1.72-.16-3.43-.16-5.15v-29.34c0-.41-.02-.81,0-1.22.06-1.38-.41-2.5-1.57-3.31-.31-.21-.53-.5-.83-.75-.65-.53-.87-1.22-.62-1.99s1-.71,1.62-.7c3.47.03,6.95.15,10.42.15,6.24,0,12.48-.06,18.73-.1.75,0,1.54-.06,1.86.84.26.71-.1,1.36-1.05,1.94-1.7,1.05-2.54,2.51-2.54,4.6.03,19.23,0,38.46.03,57.7,0,5.82-.79,11.52-2.61,17.03-1.88,5.64-5.14,10.39-9.74,14.26-2.97,2.48-6.24,4.37-9.77,5.78-2.06.83-4.26,1.31-6.45,1.7-3.05.55-6.14.83-9.19,1.3-3.06.47-6.11.16-9.19.06-4.44-.15-8.77-1-13.08-1.94-3.27-.71-6.37-2.01-9.17-3.84-1.91-1.25-3.87-2.48-5.56-3.99-1.72-1.54-3.32-3.29-4.62-5.18-1.36-1.98-2.35-4.23-3.42-6.4-1.26-2.54-1.73-5.31-2.27-8.05-.75-3.79-.81-7.63-.68-11.49.1-2.93-.08-5.87-.08-8.8-.02-5.2,0-10.39,0-15.59h.13-.06Z"/>
      <path class="cls-1" d="m388.6,256.98h-14.18c-.44,0-.87,0-1.31-.03-1.2-.08-1.81-1.05-1.26-2.12.36-.66.86-1.3,1.39-1.83,1.15-1.17,1.78-2.51,1.36-4.12-.68-2.64-1.43-5.27-2.19-7.87-.28-.94-.6-1.86-.96-2.77-.44-1.12-.99-1.43-2.19-1.41-6.51.03-13.03.06-19.54.08-.68,0-1.34-.06-2.03-.06-.96,0-1.75.39-2.09,1.31-1.13,3.06-2.53,6.03-2.93,9.33-.19,1.67,0,3.13,1.28,4.37.81.78,1.09,1.8,1.07,2.95-.05,1.99.05,3.99-.05,5.96-.1,2.28-.5,2.62-2.75,2.62h-27.03c-.34,0-.68-.03-1-.06-.5-.06-.97-.18-.94-.83.03-.62.23-1.13.94-1.25.23-.03.47-.05.71-.05,8.54.02,17.08.05,25.62.06.34,0,.68,0,1-.03,1.02-.1,1.54-.6,1.56-1.62.03-1.56.15-3.11,0-4.65-.08-.86-.45-1.8-.99-2.46-1.25-1.56-1.64-3.27-1.2-5.14.58-2.45,1.31-4.88,2.01-7.29.24-.84.58-1.65.87-2.48.66-1.93,1.38-2.46,3.43-2.48,3.92-.02,7.83-.03,11.75-.02,2.9,0,5.8.05,8.7.06,2.24,0,2.77-.79,1.98-2.9-.45-1.22-1.22-1.88-2.64-1.86-6.14.05-12.28.03-18.42.03-1.96,0-3.92.06-5.87-.02-1.41-.06-2.07.7-2.5,1.88-1.31,3.74-2.61,7.5-3.78,11.29-.6,1.96-.94,3.99-1.31,6.01-.31,1.6.57,2.74,1.64,3.82.49.5.89,1.18,1.07,1.86.24.87-.21,1.43-1.13,1.56-.73.1-1.47.13-2.22.13h-26.02c-.55,0-1.15.1-1.47-.6s-.26-1.31.21-1.88c.21-.26.42-.53.7-.71,1.51-1.04,2.46-2.46,3.08-4.16,1.33-3.68,2.67-7.36,3.99-11.03,1.65-4.6,3.27-9.2,4.93-13.8,1.46-4.08,2.95-8.17,4.37-12.27,1.13-3.24,2.17-6.51,3.32-9.75,1.02-2.92,2.17-5.82,3.19-8.73,1.72-4.86,3.47-9.72,5.07-14.61,1.85-5.64,3.56-11.33,5.3-17,.28-.91.57-1.83.63-2.75.05-.76-.11-1.59-.39-2.32-.26-.68-.84-1.22-1.22-1.86-.81-1.38-.13-2.53,1.44-2.53,9.45.05,18.89.08,28.34.13,1.52,0,1.99.62,1.51,2.09-.15.44-.41.86-.7,1.22-1.04,1.23-1.18,3.21-.29,4.57.16.24.32.52.41.81,1.44,4.63,2.8,9.28,4.33,13.89,1.36,4.12,2.93,8.17,4.37,12.27,1.23,3.5,2.4,7.02,3.61,10.52.97,2.8,2.01,5.57,3,8.36,1.1,3.08,2.19,6.16,3.26,9.24.86,2.48,1.67,4.97,2.58,7.44.92,2.53,1.94,5.02,2.9,7.53.6,1.57,1.13,3.18,1.72,4.75,1.09,2.93,2.2,5.85,3.27,8.8.58,1.62,1.02,3.27,1.64,4.88.65,1.69,1.33,3.4,3.09,4.31.29.15.63.37.75.65.21.52.49,1.17.34,1.65-.1.36-.78.75-1.23.78-1.91.15-3.84.19-5.77.21-3.4.03-6.82,0-10.22,0v-.05h.1Zm-39.87-44.8c1.93-.02,2.38-.36,2.97-2.24.49-1.59.96-3.16,1.41-4.75.91-3.24,1.75-6.51,2.67-9.75.53-1.83,1.23-3.63,1.8-5.46.15-.44.23-.96.13-1.39-.41-1.94-.89-3.86-1.34-5.78,0-.06-.05-.13-.08-.18-.34-.6-.86-.83-1.54-.71-.66.1-.68.6-.79,1.12-.55,2.43-1.1,4.86-1.75,7.26-.92,3.42-1.94,6.8-2.9,10.19-.86,2.98-1.67,5.96-2.56,8.93-.57,1.91.02,2.79,2.01,2.75l-.02.02Zm13.45.03c.58.03.89-.21.97-1.23.03-.36.02-.75-.06-1.1-.44-1.8-.94-3.58-1.38-5.38-.68-2.79-1.3-5.57-1.99-8.36-.13-.53-.44-1.05-.78-1.51-.34-.44-.78-.39-1.05.13-.15.26-.24.55-.32.84-1.28,4.71-2.54,9.43-3.81,14.14-.49,1.8.02,2.45,1.9,2.46h6.53Z"/>
      <path class="cls-1" d="m202.89,256.96h-14.68c-.91,0-1.65-.11-2.03-1.1-.34-.91-.08-1.65.53-2.32.23-.24.49-.47.71-.73,1.12-1.33,1.81-2.82,1.28-4.57-1-3.32-2.04-6.63-3.14-9.92-.49-1.46-.86-1.6-2.43-1.59-6.27.03-12.56.06-18.83.08-.75,0-1.49-.06-2.22-.06-1.09,0-1.86.42-2.25,1.52-1.02,2.88-2.4,5.65-2.69,8.77-.16,1.78,0,3.39,1.28,4.81.49.55.73,1.47.76,2.24.08,2.28,0,4.59-.02,6.89-.02,1.83-.44,2.27-2.28,2.28-8.81.05-17.61.06-26.43.11-.6,0-1.23.1-1.81,0-.32-.06-.76-.45-.83-.75-.11-.52-.18-1.2.6-1.41.29-.08.6-.1.91-.1,8.51.03,17.01.06,25.52.1.34,0,.68,0,1-.03,1.15-.11,1.59-.52,1.62-1.65.05-1.69.13-3.39-.03-5.06-.06-.78-.5-1.65-1.04-2.22-1.77-1.86-1.85-3.97-1.12-6.22.91-2.85,1.88-5.7,2.87-8.54.75-2.15,1.28-2.53,3.66-2.51,6.45.02,12.9.06,19.33.1.31,0,.62.02.91,0,1.99-.05,2.59-.94,1.91-2.82-.5-1.39-1.28-1.96-2.84-1.96-5.1,0-10.19.02-15.29.03-3,0-6.01,0-9.01.03-1.65.02-1.67.11-2.17,1.65-1.07,3.31-2.25,6.58-3.27,9.9-.7,2.32-1.26,4.68-1.75,7.05-.31,1.52.03,2.95,1.33,4.02.34.28.63.6.92.94.5.62.7,1.33.37,2.07-.31.71-.97.76-1.64.78-4.18.06-8.36.13-12.56.15-4.8.02-9.59,0-14.37-.06-.63,0-1.36-.18-1.88-.52-.79-.5-.81-1.26-.21-2.01.23-.29.49-.6.79-.76,1.85-.94,2.59-2.67,3.24-4.46,1.28-3.52,2.53-7.05,3.79-10.56,1.02-2.88,2.01-5.78,3.05-8.67,1.96-5.49,3.99-10.97,5.91-16.46,2.56-7.29,5.07-14.58,7.6-21.89,1.78-5.15,3.63-10.3,5.35-15.49,1.38-4.16,2.59-8.36,3.86-12.56.37-1.22.71-2.46.97-3.71.24-1.17.03-2.28-.86-3.18-.11-.11-.21-.28-.31-.41-.53-.78-1.04-1.6-.53-2.53.47-.86,1.41-.63,2.2-.63h26.33c.5,0,1.02-.03,1.52,0,1.28.06,1.81.91,1.25,2.07-.37.75-.97,1.39-1.3,2.15-.26.58-.47,1.33-.31,1.9.53,1.91,1.26,3.76,1.85,5.65.97,3.05,1.85,6.12,2.84,9.17.63,1.96,1.38,3.87,2.06,5.82.7,2.01,1.34,4.03,2.04,6.03.62,1.78,1.3,3.53,1.91,5.31.99,2.84,1.91,5.67,2.9,8.49.65,1.85,1.34,3.66,2.01,5.49.39,1.1.73,2.24,1.12,3.35,1.1,3.18,2.24,6.35,3.35,9.51.81,2.28,1.59,4.57,2.43,6.85.6,1.64,1.33,3.22,1.93,4.86.99,2.69,1.93,5.4,2.9,8.07.94,2.59,1.91,5.17,2.87,7.76.31.86.58,1.72.84,2.59.68,2.28,1.85,4.23,3.82,5.65.66.49,1.04,1.18.78,2.04-.26.89-1.04.97-1.8.99h-15.08v.08l-.03.06Zm-40.04-44.91c1.9.13,2.75-.41,3.37-2.64,1.12-4.07,2.12-8.15,3.24-12.22.66-2.4,1.41-4.78,2.24-7.13.29-.81.37-1.54.1-2.35-.28-.83-.49-1.69-.76-2.51-.34-1.02-.68-2.03-1.1-3.01-.1-.24-.5-.36-.78-.53-.16.24-.39.47-.47.73-1.18,4.07-2.37,8.13-3.52,12.22-.79,2.82-1.51,5.67-2.28,8.49-.65,2.37-1.34,4.71-1.96,7.1-.29,1.12.24,1.75,1.38,1.83.24.02.47,0,.55,0v.03Zm9.9.15c.97,0,1.96-.02,2.93,0,1.75.05,2.32-.83,1.81-2.5-.84-2.72-1.59-5.48-2.3-8.25-.39-1.47-.71-2.97-1.04-4.44-.23-1-.45-3.65-1.9-1.9-.31.36-.49.81-.63,1.26-1.05,2.93-1.65,5.99-2.5,8.99-.41,1.46-.87,2.9-1.28,4.36-.44,1.57.19,2.43,1.78,2.46,1.04.02,2.09,0,3.13.02l-.02-.02Z"/>
      <path class="cls-1" d="m276.95,212.73v35.53c0,2.15.66,3.95,2.38,5.33.16.13.36.28.41.44.15.6.49,1.31.29,1.77-.19.44-.97.84-1.52.87-2.66.11-5.33.13-7.99.13-6.58.03-13.16.05-19.73.06h-1.12c-.58,0-1.18,0-1.46-.68-.29-.7-.28-1.39.24-1.99.18-.21.37-.39.58-.55,1.77-1.33,2.66-3.03,2.64-5.28-.05-20.82-.06-41.64-.1-62.44,0-1.05.03-2.09.03-3.14,0-1.59-.32-1.94-1.88-1.94-3.08,0-6.14.06-9.22.1-1,0-2.03.02-3.03.05-1.26.03-2.46.23-3.48,1.1-.5.44-1.3.68-1.83.08-.55-.63-.28-1.3.28-1.88.75-.79,1.62-1.33,2.71-1.43,1.13-.1,2.28-.21,3.43-.21,3.58,0,7.16.08,10.73.11.79,0,1.73.13,2.15-.76.47-1,.37-2.06-.23-3-.16-.26-.6-.44-.94-.47-1.22-.1-2.43-.13-3.63-.13-4.76,0-9.51,0-14.27.03-1.8,0-3.48.44-4.88,1.62-.41.34-.73.79-1.07,1.22-.21.26-.39.55-.62.81-.53.63-1.22.65-1.94.42-.71-.21-.75-.83-.75-1.39-.02-2.43-.02-4.86-.02-7.29v-17.81c0-.68.03-1.34.08-2.03.11-1.34,1.15-1.88,2.33-1.2.34.19.6.53.87.81.63.63,1.26,1.26,1.9,1.91.89.91,2.03,1,3.19,1,7.26,0,14.52-.02,21.78,0,3.71,0,7.42.18,11.13.16,9.82-.03,19.64-.15,29.46-.21.97,0,1.96-.03,2.93.03,2.53.13,4.33-1.05,5.57-3.14.37-.63.84-.92,1.57-.87,1.02.06,1.49.45,1.52,1.49.05,1.31,0,2.62,0,3.95-.03,7.32-.06,14.65-.1,21.97,0,.44.05.87.06,1.31.03.78-.18,1.41-1,1.65-.86.26-1.75-.06-2.19-.83-.26-.44-.45-.91-.75-1.31-1.41-1.96-3.5-2.25-5.67-2.25h-14.26c-1,0-2.03.02-3.03.03-1.25,0-1.72.42-1.73,1.7-.03,1.69.02,3.37,0,5.06,0,6.01,0,12.01-.02,18.02v13.45h.13l.03.02Z"/>
      <path class="cls-1" d="m461.88,212.24v34.82c0,2.67.62,5.07,2.72,6.9.57.5.84,1.17.57,1.91-.29.83-1.02.92-1.73.94-2.53.06-5.06.13-7.6.13-6.42,0-12.83,0-19.23-.02-.75,0-1.51,0-2.22-.15-1.39-.31-1.75-1.51-.83-2.59.13-.16.26-.31.42-.44,2.11-1.57,2.87-3.81,2.88-6.29.05-8.3.03-16.61.03-24.9,0-13.12,0-26.25.02-39.37,0-2.12-.29-2.4-2.46-2.37-4.55.05-9.11.06-13.67.05-1.65,0-3.22.08-4.6,1.17-.49.39-1.04.31-1.41-.23-.39-.55-.29-1.1.24-1.52,1.39-1.1,2.95-1.7,4.76-1.67,4.7.05,9.38.05,14.08.08.24,0,.47.02.71,0,2.51-.15,2.45-.71,2.32-2.97-.03-.57-1.44-1.41-2.14-1.39-2.28.08-4.57.21-6.87.21-3.43,0-6.89-.03-10.32-.11-2.62-.06-4.71.84-6.25,3.03-.36.5-.97.97-1.57,1.12-1.18.32-1.78-.29-1.77-1.51.06-4.65.13-9.3.19-13.95.05-3.55.1-7.08.13-10.63,0-.71-.13-1.41-.13-2.12s-.29-1.64.81-1.9c1-.24,1.98.24,2.46,1.09.36.6.81,1.15,1.3,1.64,1.1,1.15,2.58,1.22,4.03,1.22,11.81.03,23.62.06,35.43.06,10,0,19.98-.06,29.97-.05,2.35,0,3.99-1.04,5.2-2.92.44-.68.96-1.12,1.81-1.04,1.09.1,1.44.44,1.43,1.54-.03,6.92.03,13.84-.15,20.74-.05,2.06-.21,4.08.11,6.14.11.73.24,1.6-.86,1.86-1.22.28-1.91-.03-2.4-1.09-1.12-2.38-3.22-3.16-5.64-3.21-4.08-.1-8.17-.1-12.25-.11-1.9,0-3.78.06-5.67.1-1.62.03-2.09.52-2.09,2.12v35.63h.18l.03.03Z"/>
      <path class="cls-1" d="m838.19,198.81v-32.39c0-1.86.03-3.73,1.04-5.4.19-.31.36-.71.65-.87.36-.19.96-.36,1.22-.19.26.18.31.78.29,1.2,0,.26-.24.55-.42.79-.71.86-.84,1.86-.84,2.95.02,18.76.03,37.51.03,56.27,0,3.87-.06,7.76-.11,11.63-.03,1.94.66,2.71,2.64,2.72,9.35.05,18.7.08,28.05.11,2.35,0,4.5-.49,6.06-2.41.39-.49.62-1.1.89-1.67.11-.24.18-.52.31-.75.49-.91,1.17-1.31,1.85-1.05.89.32.96,1.04.94,1.9-.08,3.87-.15,7.74-.15,11.62,0,4.21.03,8.43.08,12.65,0,1.04.05,2.09.11,3.13.05.7-.06,1.3-.78,1.59-.68.28-1.34.16-1.88-.36-.31-.31-.57-.66-.81-1.04-.99-1.57-2.43-2.25-4.26-2.24h-68.13c-.57,0-1.15-.02-1.72-.03-.66,0-1.18-.41-1.2-1-.02-.49.24-1.09.57-1.47.28-.32.81-.44,1.26-.58,2.35-.78,3.68-2.4,4-4.83.06-.47.06-.94.06-1.41,0-26.96-.03-53.91-.03-80.87,0-1.96.03-3.9,0-5.87-.03-2.37-1.54-4.34-3.81-5.02-.26-.08-.52-.13-.78-.21-.99-.29-1.49-.94-1.34-1.73.19-.94.89-1.05,1.7-1.05,5.7.06,11.41.13,17.11.18,4.39.03,8.78.02,13.16,0,.91,0,1.81-.11,2.72-.11.71,0,1.38.18,1.52,1.02.15.83-.26,1.31-.99,1.67-.92.45-1.91.86-2.69,1.51-1.13.94-1.43,2.33-1.43,3.76-.02,3.87-.02,7.76,0,11.63,0,19.13.03,38.25.05,57.39,0,1-.05,2.03-.03,3.03.03,1.86.96,2.66,3.03,2.64,1.33,0,2.2-.99,2.2-2.59,0-4.05-.03-8.1-.05-12.15v-22.07h-.08l-.02-.02Z"/>
      <path class="cls-1" d="m935.08,198.6v-29.96c0-1.28-.05-2.56-.1-3.84-.05-1.59.44-3,1.36-4.26.34-.47.76-.97,1.41-.55.66.42.57,1.1.16,1.6-.87,1.1-1.07,2.33-1.07,3.69.03,20.67.05,41.36.06,62.04v5.98c.02,1.91.26,2.19,2.15,2.22,6.85.06,13.71.1,20.54.13h8.2c1.41,0,2.75-.31,3.97-1.04,1.13-.68,1.98-1.6,2.38-2.92.15-.47.39-.94.65-1.36.36-.55.87-.84,1.56-.63.65.21.87.73.87,1.34,0,1.52-.03,3.03-.03,4.55-.03,7.29-.06,14.57-.08,21.86,0,.53.08,1.07.11,1.62.03.62.03,1.26-.7,1.52-.68.24-1.34.15-1.88-.39-.16-.16-.31-.36-.44-.57-1.17-1.9-2.82-2.69-5.07-2.69-10.69.05-21.4.03-32.1.03h-36.55c-.66,0-1.47.23-1.65-.84-.18-1.09.16-1.69,1.26-2.09.75-.28,1.57-.47,2.22-.91,1.31-.89,2.07-2.2,2.22-3.81.15-1.47.32-2.95.36-4.44.1-4.99.15-9.98.16-14.97.02-10.56.02-21.11,0-31.68,0-5.15-.08-10.32-.13-15.47-.05-5.33-.13-10.64-.19-15.98,0-.78-.03-1.57.11-2.32.41-2.06-.15-4-.86-5.82-.58-1.46-1.81-2.56-3.61-2.74-1.3-.13-1.52-.41-1.52-1.54s.37-1.44,1.47-1.41c2.71.05,5.4.13,8.1.15,8.34,0,16.67-.02,25.02-.05.66,0,1.23.06,1.36.86.13.84-.26,1.57-1,1.88s-1.49.62-2.19,1c-.89.49-1.31,1.36-1.46,2.32-.15.89-.24,1.81-.23,2.72.05,10.53.15,21.05.18,31.58.02,12.41-.02,24.84-.05,37.25,0,.75-.06,1.49-.08,2.22-.03,1.83.7,2.64,2.37,2.66,1.99,0,2.77-.71,2.77-2.61v-34.32h-.03l-.02-.05Z"/>
      <path class="cls-1" d="m748.06,204.53v-42.09c0-.41-.05-.81,0-1.22.34-2.9-1.46-4.34-3.71-5.51-.41-.21-.89-.44-1.1-.79-.52-.89.05-1.9,1.12-1.96.84-.05,1.69.08,2.53.08h26.33c1.12,0,2.22-.1,3.34-.13.71-.02,1.39.11,1.56.96.18.86-.23,1.43-1,1.77-1.33.55-2.69,1.1-3.19,2.59-.34,1.04-.58,2.15-.6,3.22-.03,6.64,0,13.29,0,19.93,0,7.23-.02,14.44-.03,21.66-.03,15.12-.06,30.22-.1,45.33,0,2.58.87,4.6,3.45,5.61,1.1.44,1.51,1.09,1.33,1.88-.24,1.02-1.1,1.09-1.93,1.09-7.26.03-14.52.05-21.76.06-3.24,0-6.48,0-9.72-.03-.44,0-1.25-.29-1.25-.47-.03-.65.13-1.34.37-1.98.11-.29.55-.52.87-.65,1.49-.58,2.37-1.77,3.08-3.08.28-.5.41-1.15.42-1.73.03-3.65,0-7.29,0-10.94v-33.6h0Z"/>
      <path class="cls-1" d="m455.51,263.34h-14.89c-1.07,0-1.43-.42-1.25-1.43.15-.86.79-.81,1.39-.81,3.52,0,7.02.03,10.53.05,5.67.03,11.34.05,17.01.06,1.57,0,2.12-.58,2.09-2.15-.02-1.18.08-2.37-.05-3.53-.1-.79-.28-1.75-.78-2.3-1.86-2.04-2.4-4.47-2.43-7.1-.06-6.08-.15-12.14-.18-18.21-.03-10.63-.05-21.26-.03-31.89,0-4.55.11-9.11.18-13.66,0-.19,0-.41.03-.6.18-2.84.47-3.06,3.32-3.03,2.3.03,4.59-.1,6.89-.06,1.04,0,2.07.16,3.11.31,1.85.26,3.31,1.18,4.26,2.77.86,1.41,2.06,1.88,3.66,1.78,1.78-.11,3.58,0,5.36-.02,1.54-.02,2.06-.6,2.06-2.11-.03-7.08-.05-14.16-.06-21.26,0-1.31-.05-2.62-.05-3.95,0-.47-.08-.99.1-1.39.16-.41.58-.7.91-1.04.32.34.7.66.96,1.05.13.19.06.52.06.79-.02,8.67-.03,17.34-.06,26,0,.68-.05,1.34-.08,2.03-.06,1.05-.55,1.72-1.59,1.73-3.31.06-6.61.05-9.92,0-.99,0-1.73-.55-2.11-1.49-.91-2.25-2.58-3.09-4.96-3-2.56.11-5.12.02-7.7,0-1.59,0-2.03.47-1.88,2.06.06.7.06,1.41.06,2.12,0,11.54-.03,23.07-.05,34.61,0,8.33-.03,16.66-.06,25,0,.97-.1,1.96-.16,2.93-.11,1.59.37,2.97,1.64,3.94,1.09.84,1.56,1.86,1.51,3.22-.06,1.81,0,3.65,0,5.46,0,.41,0,.81-.08,1.22-.23,1.43-.62,1.8-2.06,1.8h-14.68v.08h-.03Z"/>
      <path class="cls-1" d="m91.01,263.21h-18.32c-.24,0-.47,0-.71-.02-.63-.08-1.12-.36-1.15-1.05-.05-.71.36-1.15,1.02-1.31.39-.1.81-.1,1.2-.08,8.23.03,16.46.08,24.71.13,3,.02,6.01.1,9.01.13.5,0,1.02,0,1.51-.08.7-.13,1.18-.55,1.22-1.3.06-1.59.18-3.18.08-4.75-.03-.62-.49-1.39-.99-1.75-2.84-1.99-4.89-4.6-6.53-7.6-2.87-5.27-5.78-10.52-8.59-15.81-3.19-6.06-6.25-12.17-9.4-18.24-.47-.92-1-1.83-1.52-2.74-.66-1.15-.47-1.73.75-2.32,7.5-3.68,13.16-9.22,16.79-16.77,2.59-5.41,3.73-11.16,3.92-17.14.18-5.33-.31-10.58-2.06-15.67-1.64-4.73-4.12-8.93-7.73-12.41-.99-.96-2.06-1.85-3.06-2.79-.31-.29-.66-.65-.78-1.04-.08-.31.06-.81.29-1.05.16-.16.75-.15.96.02,1.33,1.09,2.71,2.15,3.87,3.4,3.35,3.58,6.16,7.53,7.76,12.2.87,2.54,1.54,5.17,1.98,7.83.45,2.64.73,5.36.71,8.04-.05,6.71-1.26,13.24-4.2,19.33-2.46,5.1-5.75,9.61-10.34,13.04-1.8,1.34-3.73,2.54-5.62,3.76-1.15.73-1.38,1.26-.75,2.51,3.29,6.37,6.61,12.74,9.92,19.1,2.04,3.92,4.03,7.86,6.17,11.71,1.44,2.59,3.08,5.06,4.63,7.58.97,1.57,2.38,2.66,4.02,3.45,1.1.55,1.6,1.36,1.57,2.58-.03,2.25-.03,4.52-.06,6.77,0,.28,0,.53-.05.81-.18,1.18-.63,1.57-1.81,1.57h-18.42v-.03l.02-.02Z"/>
      <path class="cls-1" d="m282.03,214.4v-33.6c.05-1.72.31-2.06,2.01-2.04,4.24,0,8.49.05,12.74.18.89.02,1.78.36,2.62.65,1.28.44,2.07,1.47,2.77,2.56.7,1.09,1.67,1.49,2.92,1.41,1.07-.06,2.15-.02,3.24-.03,1.39-.02,2.14-.71,2.15-2.11,0-4.49,0-8.98-.05-13.46-.03-4.18-.08-8.36-.11-12.54,0-.32.1-.68.26-.96.19-.31.63-.81.78-.75.36.13.71.5.87.86.18.41.18.92.18,1.38-.02,8.57-.05,17.14-.1,25.71,0,.78-.05,1.56-.1,2.33-.03.7-.42,1.12-1.09,1.28-.42.1-.86.21-1.3.21-2.22.03-4.46.03-6.68.02-1.05,0-1.77-.53-2.15-1.52-.79-2.03-2.3-2.98-4.46-2.98-3.55-.02-7.08-.06-10.63-.1-1.41,0-1.99.47-2.04,1.91-.06,1.75-.03,3.5-.03,5.27-.03,19.23-.06,38.46-.05,57.68,0,1.38.34,2.8.76,4.13.21.71.84,1.36,1.43,1.86.66.57,1.09,1.2,1.1,2.06,0,2.53.05,5.06,0,7.58-.03,1.43-.37,1.8-1.85,1.85-2.46.1-4.93.13-7.39.13h-22.38c-.71,0-1.28-.06-1.33-.97-.06-1.02.19-1.36,1.25-1.36,8.91.03,17.82.08,26.72.11.5,0,1.02.03,1.52,0,1.05-.06,1.65-.6,1.69-1.64.05-1.47.11-2.98,0-4.44-.06-.68-.41-1.47-.89-1.98-1.83-1.94-2.4-4.18-2.37-6.84.11-10.63.05-21.26.05-31.87h-.1l.02.02Z"/>
      <path class="cls-1" d="m721.28,194.21c0-9.35-.03-18.68.03-28.03,0-1.49.29-3,.55-4.49.1-.53.42-1.09.79-1.49.23-.24.84-.42,1.1-.29.29.15.39.68.5,1.09.05.16-.08.41-.19.55-1.07,1.31-1,2.88-.99,4.44,0,12.28.03,24.56.03,36.84,0,6.08.05,12.15,0,18.21-.06,5.14-.73,10.19-2.24,15.15-1.52,4.97-3.79,9.53-7.11,13.5-2.92,3.5-6.35,6.42-10.37,8.64-5.17,2.85-10.71,4.6-16.56,5.35-4.15.52-8.31,1.1-12.48,1.12-4.94.02-9.87-.71-14.74-1.72-5.01-1.04-9.71-2.82-14.1-5.4-2.03-1.18-3.86-2.72-5.77-4.1-.13-.1-.24-.24-.34-.37-.29-.47-.86-.96-.24-1.51.52-.47,1.07-.19,1.54.21.58.5,1.18,1,1.78,1.49,3.42,2.82,7.34,4.68,11.5,6.21,3.87,1.41,7.86,2.24,11.91,2.66,5.67.6,11.36.6,17.06.05,5.64-.53,11.07-1.78,16.2-4.1,6.08-2.75,11.37-6.53,15.13-12.25,3.35-5.09,5.25-10.61,6.24-16.61.7-4.31.76-8.59.76-12.9v-22.26h0l-.02.02Z"/>
      <path class="cls-1" d="m209.3,263.38h-15.29c-1.49,0-2.03-.36-1.99-1.26.02-.76.53-1.04,1.98-1.02,9.48.03,18.97.08,28.45.13,1.94,0,2.45-.53,2.4-2.48-.03-1,0-2.03,0-3.03,0-1.09-.32-1.94-1.3-2.56-1.46-.92-2.33-2.33-2.92-3.9-1.51-3.97-2.93-7.97-4.42-11.96-1.49-4-3.05-8-4.54-12.01-.96-2.56-1.81-5.14-2.75-7.71-1.47-4.05-2.98-8.1-4.47-12.15-.42-1.13-.83-2.28-1.23-3.42-1.72-4.86-3.43-9.72-5.14-14.58-1.67-4.75-3.35-9.48-4.94-14.24-1.04-3.09-1.91-6.25-2.85-9.38-.31-1.04-.32-2.07.13-3.06.15-.32.32-.73.62-.89.36-.21.94-.39,1.25-.23.31.16.65.87.52,1.15-.94,2.19-.03,4.16.62,6.17,1.34,4.1,2.69,8.18,4.08,12.27,1.44,4.25,2.9,8.47,4.37,12.7,1.59,4.52,3.18,9.02,4.81,13.53,1.75,4.81,3.53,9.61,5.28,14.42,1.51,4.12,2.97,8.25,4.47,12.35,1.18,3.22,2.41,6.43,3.61,9.66.86,2.3,1.73,4.6,2.61,6.9.5,1.34,1.44,2.28,2.75,2.8,1.13.45,1.6,1.23,1.59,2.41-.03,2.53,0,5.06-.05,7.58-.02,1.38-.45,1.81-1.85,1.83-5.27.02-10.53,0-15.8,0h0v-.02Z"/>
      <path class="cls-1" d="m612.8,205.79c-.05-4.36-.55-8.67-1.38-12.9-1.1-5.64-2.97-11.07-5.67-16.17-2.56-4.83-5.75-9.2-9.71-12.98-.13-.11-.24-.24-.34-.37-.32-.44-.55-.91-.1-1.36.49-.49,1.02-.29,1.43.13,1.22,1.26,2.48,2.5,3.58,3.84,2.77,3.42,5.27,7.02,7.18,10.99,1.99,4.13,3.79,8.34,4.67,12.88.49,2.51,1.02,5.02,1.54,7.52.03.19.08.41.1.6.41,5.65.6,11.34-.19,16.96-.86,6.06-2.27,12.02-4.83,17.6-3.76,8.21-8.99,15.31-16.2,20.9-4.12,3.18-8.57,5.69-13.42,7.57-5.09,1.98-10.39,2.84-15.75,3.47-7.24.86-14.24-.47-21.21-2.14-4.86-1.17-9.32-3.32-13.55-5.98-.34-.21-.75-.42-.94-.75-.18-.29-.29-.83-.15-1.09.13-.21.76-.32,1.04-.19.87.42,1.7.97,2.53,1.47,4.86,2.9,10.09,4.76,15.64,5.83,6.32,1.22,12.64,1.33,19.02.68,5.61-.58,10.94-2.09,15.99-4.49,7.26-3.43,13.53-8.15,18.49-14.58,3.79-4.93,6.66-10.3,8.68-16.14,1.41-4.03,2.5-8.17,2.71-12.51.15-2.95.55-5.9.83-8.85l.02.05Z"/>
      <path class="cls-1" d="m766.87,263.36h-15.08c-.41,0-.81-.02-1.22-.05-.58-.03-.99-.24-.94-.92.03-.62.19-1.17.94-1.2.68-.03,1.34,0,2.03,0h28.35c1.86,0,2.12-.31,2.17-2.2.03-1.38.1-2.77.13-4.15.03-1.17-.39-2.07-1.47-2.67-2.19-1.2-3.19-3.14-3.21-5.59-.03-6.85,0-13.69,0-20.54,0-14.57-.02-29.15-.03-43.71,0-5.9.03-11.81,0-17.71,0-1.44.47-2.72,1.04-3.97.36-.76.91-.94,1.56-.58.7.39.71.94.29,1.52-1.1,1.51-.94,3.27-.94,4.97,0,4.8.06,9.58.06,14.37-.02,20.45-.05,40.88-.08,61.33,0,1.59-.02,3.18.03,4.75.06,1.9,1,3.14,2.85,3.73,1.47.47,1.72.89,1.72,2.45v7.7c0,1.86-.53,2.45-2.4,2.46-5.27.03-10.53,0-15.8,0h0v.03Z"/>
      <path class="cls-1" d="m395.21,263.38h-15.18c-.31,0-.6,0-.91-.03-.66-.03-1.2-.16-1.17-1.04.03-.89.49-1.18,1.3-1.15,1.12.03,2.22.03,3.34.03,8.64.05,17.27.08,25.91.13.41,0,.81-.05,1.22-.08.86-.06,1.28-.57,1.3-1.39.03-1.56.11-3.11-.03-4.65-.06-.65-.47-1.46-.99-1.86-1.64-1.26-2.69-2.85-3.4-4.78-2.25-6.11-4.59-12.18-6.85-18.28-2.35-6.35-4.68-12.72-6.98-19.09-2.54-7-5.09-14.02-7.58-21.03-1.83-5.18-3.6-10.39-5.36-15.59-1.07-3.16-2.07-6.34-3.08-9.51-.39-1.25-.79-2.53-.37-3.87.1-.32.19-.66.37-.94.34-.52.78-1.04,1.49-.68.75.36.6,1.02.28,1.57-.55.96-.53,1.9-.19,2.92,1.54,4.67,3,9.36,4.59,14.02,1.85,5.41,3.82,10.79,5.74,16.19,1.15,3.27,2.22,6.56,3.4,9.83,1.52,4.21,3.11,8.39,4.65,12.61,1.23,3.39,2.4,6.8,3.65,10.18,1.18,3.19,2.46,6.35,3.65,9.53,1.2,3.26,2.32,6.55,3.53,9.79.52,1.38,1.07,2.79,1.86,4,.5.76,1.41,1.33,2.25,1.77.81.42,1.31.99,1.34,1.85.06,2.5.15,4.99.06,7.49-.05,1.69-.52,2.06-2.2,2.06-5.2.03-10.39,0-15.59,0v.03h-.02Z"/>
      <path class="cls-1" d="m983.45,268.38c-.26.02-.58.06-.92.06h-10.32c-.63,0-.87-.19-1.13-.83-.45-1.15-1.09-2.25-1.81-3.24-.73-1-1.91-1.12-3.11-1.1-4.8.05-9.58.1-14.37.1h-45.45c-.24,0-.47,0-.71-.03-.5-.05-.97-.19-.92-.83.05-.57.06-1.18.81-1.36.19-.05.41-.05.6-.05,13.19,0,26.38.02,39.57.05,6.74,0,13.5.03,20.24.05,2.12,0,3.87.76,5.12,2.53.87,1.23,1.96,1.88,3.6,1.73,1.85-.16,3.71-.02,5.56-.03,1.49,0,2.01-.65,1.99-2.14-.08-5.8-.13-11.6-.16-17.4,0-2.77.03-5.52.05-8.3v-.71c.02-.58.13-1.09.84-1.17.75-.08,1.54.37,1.65,1,.1.49.1,1,.1,1.51-.05,8.13-.1,16.25-.16,24.38,0,1.6-.18,3.14-1.07,4.55-.16.26-.02.73-.02,1.18l.05.03Z"/>
      <path class="cls-1" d="m839.47,261.27h29.15c2.5,0,4.65.71,6.14,2.87.75,1.07,1.73,1.46,3.05,1.39,1.88-.1,3.78-.03,5.67-.02,1.99,0,2.56-.6,2.48-2.62-.1-2.43-.23-4.86-.23-7.27,0-4.12.15-8.21.16-12.33,0-1.91-.19-3.84-.24-5.75,0-.47.1-1.07.41-1.36.26-.26.96-.34,1.28-.16.34.19.66.76.68,1.18.06,3.43.08,6.89.08,10.32,0,4.55.05,9.11-.05,13.66-.05,2.01-.39,4.02-.62,6.01-.05.42-.03,1.05-.28,1.2-.34.21-.91.1-1.38.1h-10.22c-.7,0-1.1,0-1.2-.99-.21-2.4-2.37-4.16-4.76-4.16-19.91.03-39.81.05-59.72.06h-.5c-.6-.1-1.38.06-1.33-.96.05-1.05.21-1.23,1.38-1.23,5.7,0,11.41.03,17.11.03h12.96v.03h-.02Z"/>
      <path class="cls-1" d="m660.76,193.95v-27.72c0-1.75.03-3.52.94-5.12.34-.6.66-1.47,1.52-1.1.91.39.37,1.18.19,1.85-.28,1.02-.63,2.07-.63,3.13,0,5.93.11,11.86.11,17.81,0,9.4-.1,18.81-.13,28.21-.02,4.31-.03,8.64,0,12.95.02,1.78.6,3.43,1.67,4.89.41.55,1.09,1.09.39,1.83-.45.47-1.18.08-1.86-.84-1.33-1.85-1.93-3.94-2.07-6.16-.15-2.45-.16-4.91-.16-7.37-.02-7.45,0-14.91,0-22.34h.03Z"/>
      <path class="cls-1" d="m539.1,205.49c-.03,5.44.79,10.3,2.84,14.91.57,1.28,1.36,2.48,2.07,3.69.28.47.7.97.11,1.43-.62.47-1.22.16-1.56-.41-.87-1.51-1.81-3.01-2.48-4.62-2.2-5.27-2.87-10.79-2.64-16.45.24-6.35,1.7-12.39,5.43-17.63,3.27-4.6,7.55-7.94,13.32-8.75,4.31-.6,8.51-.13,12.22,2.43.83.57,1.6,1.23,2.37,1.9.44.39.81.94.31,1.49-.49.55-1.05.26-1.54-.11-.87-.68-1.65-1.52-2.61-2.06-3.4-1.9-7-2.38-10.84-1.54-4.26.94-7.87,2.93-10.71,6.27-2.46,2.92-4,6.32-5.01,9.96-.89,3.24-1.23,6.56-1.3,9.46l.02.02Z"/>
    </g>
  </g>
</svg>